<svg width="24" height="24" viewBox="0 0 24 24" fill="none" xmlns="http://www.w3.org/2000/svg">
<g id="icon / jam-icons / outline &#38; logos / chevron-left">
<path id="Vector" d="M10.7566 12.0002L15.7066 16.9502C15.8021 17.0424 15.8783 17.1528 15.9307 17.2748C15.9831 17.3968 16.0107 17.528 16.0118 17.6608C16.013 17.7936 15.9877 17.9252 15.9374 18.0481C15.8871 18.171 15.8128 18.2827 15.719 18.3766C15.6251 18.4705 15.5134 18.5447 15.3905 18.595C15.2676 18.6453 15.1359 18.6706 15.0032 18.6694C14.8704 18.6683 14.7392 18.6407 14.6172 18.5883C14.4952 18.5359 14.3848 18.4597 14.2926 18.3642L8.63556 12.7072C8.44809 12.5197 8.34277 12.2653 8.34277 12.0002C8.34277 11.735 8.44809 11.4807 8.63556 11.2932L14.2926 5.63618C14.4812 5.45402 14.7338 5.35323 14.996 5.35551C15.2582 5.35778 15.509 5.46295 15.6944 5.64836C15.8798 5.83377 15.985 6.08458 15.9872 6.34678C15.9895 6.60898 15.8887 6.86158 15.7066 7.05018L10.7566 12.0002Z" fill="black" stroke="black"/>
</g>
</svg>
