<svg width="20" height="20" viewBox="0 0 20 20" fill="none" xmlns="http://www.w3.org/2000/svg">
<path d="M10.0766 18L13.148 15.0783L10.0753 12.1566L9.27521 12.9193L11.04 14.6015C10.0523 14.6064 9.1744 14.4957 8.40622 14.2694C7.63803 14.0424 7.02255 13.7083 6.55977 13.2671C6.08508 12.8155 5.72778 12.3026 5.48788 11.7284C5.24799 11.1543 5.12804 10.5806 5.12804 10.0073C5.12804 9.66266 5.16802 9.31803 5.24799 8.97339C5.32795 8.62876 5.4445 8.30196 5.59763 7.99301L4.73374 7.26319C4.48704 7.69216 4.30286 8.13654 4.18121 8.59632C4.05956 9.0561 3.99916 9.524 4.00001 10C4.00001 10.7225 4.14718 11.4357 4.44152 12.1396C4.73586 12.8434 5.171 13.4739 5.74692 14.031C6.32285 14.5881 7.07955 15.0017 8.01702 15.2717C8.95449 15.5417 9.91706 15.6792 10.9047 15.6841L9.27521 17.2373L10.0766 18ZM15.2663 12.7368C15.513 12.3078 15.6967 11.8635 15.8175 11.4037C15.9383 10.9439 15.9991 10.476 16 10C16 9.27992 15.8537 8.56429 15.561 7.85312C15.2684 7.14196 14.8303 6.51188 14.2467 5.9629C13.6793 5.40581 12.9243 4.99346 11.9817 4.72586C11.0383 4.45745 10.0757 4.32325 9.09401 4.32325L10.7235 2.76266L9.92344 2L6.85071 4.9217L9.92344 7.84339L10.7235 7.08074L8.95237 5.39243C9.93493 5.39243 10.8141 5.50636 11.59 5.73423C12.3658 5.96209 12.9847 6.29781 13.4466 6.74137C13.9086 7.18494 14.2616 7.69378 14.5057 8.2679C14.7499 8.84203 14.8715 9.41696 14.8707 9.9927C14.8707 10.3373 14.8311 10.682 14.752 11.0266C14.6729 11.3712 14.5564 11.698 14.4024 12.007L15.2663 12.7368Z" fill="black" stroke="black" stroke-width="0.5"/>
</svg>
