<svg width="19" height="19" viewBox="0 0 19 19" fill="none" xmlns="http://www.w3.org/2000/svg">
<path d="M10.5394 9.5562L6.62067 5.63745C6.47646 5.48814 6.39666 5.28817 6.39847 5.08059C6.40027 4.87302 6.48353 4.67446 6.63031 4.52768C6.77709 4.3809 6.97565 4.29764 7.18323 4.29584C7.3908 4.29403 7.59077 4.37383 7.74008 4.51804L12.2185 8.9965C12.367 9.14495 12.4503 9.34628 12.4503 9.5562C12.4503 9.76613 12.367 9.96745 12.2185 10.1159L7.74008 14.5944C7.59077 14.7386 7.3908 14.8184 7.18323 14.8166C6.97565 14.8148 6.77709 14.7315 6.63031 14.5847C6.48353 14.4379 6.40027 14.2394 6.39847 14.0318C6.39666 13.8242 6.47646 13.6243 6.62067 13.475L10.5394 9.5562Z" fill="#727272"/>
</svg>
