<svg width="24" height="24" viewBox="0 0 24 24" fill="none" xmlns="http://www.w3.org/2000/svg">
<path d="M12.0716 13.3134L17.0216 8.36339C17.1139 8.26788 17.2242 8.1917 17.3462 8.13929C17.4682 8.08688 17.5995 8.0593 17.7322 8.05814C17.865 8.05699 17.9967 8.08229 18.1196 8.13257C18.2425 8.18285 18.3541 8.25711 18.448 8.351C18.5419 8.44489 18.6162 8.55654 18.6665 8.67944C18.7167 8.80234 18.742 8.93402 18.7409 9.06679C18.7397 9.19957 18.7121 9.33079 18.6597 9.4528C18.6073 9.5748 18.5311 9.68515 18.4356 9.77739L12.7786 15.4344C12.5911 15.6219 12.3368 15.7272 12.0716 15.7272C11.8065 15.7272 11.5522 15.6219 11.3646 15.4344L5.70763 9.77739C5.61212 9.68515 5.53594 9.5748 5.48353 9.4528C5.43112 9.33079 5.40354 9.19957 5.40238 9.06679C5.40123 8.93402 5.42653 8.80234 5.47681 8.67944C5.52709 8.55654 5.60134 8.44489 5.69524 8.351C5.78913 8.25711 5.90078 8.18285 6.02368 8.13257C6.14657 8.08229 6.27825 8.05699 6.41103 8.05814C6.54381 8.0593 6.67503 8.08688 6.79704 8.13929C6.91904 8.1917 7.02939 8.26788 7.12163 8.36339L12.0716 13.3134Z" fill="black"/>
</svg>
