<svg width="24" height="24" viewBox="0 0 24 24" fill="none" xmlns="http://www.w3.org/2000/svg">
<path d="M10.7566 12.0001L15.7066 16.9501C15.8021 17.0423 15.8783 17.1526 15.9307 17.2747C15.9831 17.3967 16.0107 17.5279 16.0118 17.6607C16.013 17.7934 15.9877 17.9251 15.9374 18.048C15.8871 18.1709 15.8128 18.2826 15.719 18.3765C15.6251 18.4703 15.5134 18.5446 15.3905 18.5949C15.2676 18.6452 15.1359 18.6705 15.0032 18.6693C14.8704 18.6682 14.7392 18.6406 14.6172 18.5882C14.4952 18.5358 14.3848 18.4596 14.2926 18.3641L8.63556 12.7071C8.44809 12.5195 8.34277 12.2652 8.34277 12.0001C8.34277 11.7349 8.44809 11.4806 8.63556 11.2931L14.2926 5.63606C14.4812 5.4539 14.7338 5.35311 14.996 5.35538C15.2582 5.35766 15.509 5.46283 15.6944 5.64824C15.8798 5.83365 15.985 6.08446 15.9872 6.34666C15.9895 6.60885 15.8887 6.86146 15.7066 7.05006L10.7566 12.0001Z" fill="#171717" stroke="#171717"/>
</svg>
