<svg width="38" height="38" viewBox="0 0 38 38" fill="none" xmlns="http://www.w3.org/2000/svg">
<rect width="38" height="38" rx="19" fill="#F1F1F2"/>
<g clip-path="url(#clip0_12967_31888)">
<path d="M19 29C24.5228 29 29 24.5228 29 19C29 13.4772 24.5228 9 19 9C13.4772 9 9 13.4772 9 19C9 24.5228 13.4772 29 19 29Z" fill="#3C5A9A"/>
<path d="M22.2511 12.0693H20.0359C18.7213 12.0693 17.2591 12.6222 17.2591 14.5278C17.2655 15.1918 17.2591 15.8277 17.2591 16.5433H15.7383V18.9634H17.3062V25.9304H20.1872V18.9174H22.0888L22.2608 16.5365H20.1376C20.1376 16.5365 20.1423 15.4774 20.1376 15.1698C20.1376 14.4168 20.9211 14.4599 20.9682 14.4599C21.3411 14.4599 22.0661 14.461 22.2522 14.4599V12.0693H22.2511Z" fill="white"/>
</g>
<defs>
<clipPath id="clip0_12967_31888">
<rect width="20" height="20" fill="white" transform="translate(9 9)"/>
</clipPath>
</defs>
</svg>
