<svg width="32" height="32" viewBox="0 0 32 32" fill="none" xmlns="http://www.w3.org/2000/svg">
<path d="M27.2794 12.8399C27.1066 11.029 26.5004 9.28637 25.512 7.75917C24.5236 6.23197 23.1822 4.96513 21.6009 4.0657C20.0197 3.16627 18.2452 2.66068 16.4274 2.59166C14.6096 2.52263 12.8019 2.8922 11.157 3.66914C9.51216 4.44607 8.07848 5.60753 6.97714 7.05538C5.87581 8.50323 5.13917 10.1949 4.82949 11.9875C4.51981 13.7801 4.64618 15.6208 5.19793 17.3543C5.74968 19.0877 6.71058 20.6628 7.99945 21.9466L15.0661 29.0266C15.1901 29.1516 15.3375 29.2508 15.5 29.3185C15.6625 29.3862 15.8368 29.421 16.0128 29.421C16.1888 29.421 16.3631 29.3862 16.5256 29.3185C16.688 29.2508 16.8355 29.1516 16.9595 29.0266L23.9995 21.9466C25.1877 20.7672 26.0986 19.3381 26.6659 17.763C27.2332 16.1878 27.4428 14.5062 27.2794 12.8399ZM22.1328 20.0666L15.9995 26.1999L9.86612 20.0666C8.96224 19.1627 8.26985 18.0697 7.83874 16.8663C7.40763 15.6629 7.2485 14.3789 7.37279 13.1066C7.49788 11.8147 7.90847 10.5668 8.57488 9.45306C9.24129 8.33931 10.1469 7.38755 11.2261 6.66661C12.6407 5.72692 14.3012 5.22567 15.9995 5.22567C17.6977 5.22567 19.3582 5.72692 20.7728 6.66661C21.8488 7.38476 22.7523 8.33232 23.4186 9.44119C24.0848 10.5501 24.4972 11.7927 24.6261 13.0799C24.7545 14.3565 24.5973 15.6456 24.1661 16.854C23.7349 18.0624 23.0403 19.1597 22.1328 20.0666Z" fill="#7B35E3"/>
<path d="M16 16C16.3956 16 16.7822 15.8827 17.1111 15.6629C17.44 15.4432 17.6964 15.1308 17.8478 14.7654C17.9991 14.3999 18.0387 13.9978 17.9616 13.6098C17.8844 13.2219 17.6939 12.8655 17.4142 12.5858C17.1345 12.3061 16.7781 12.1156 16.3902 12.0384C16.0022 11.9613 15.6001 12.0009 15.2346 12.1522C14.8692 12.3036 14.5568 12.56 14.3371 12.8889C14.1173 13.2178 14 13.6044 14 14C14 14.5304 14.2107 15.0391 14.5858 15.4142C14.9609 15.7893 15.4696 16 16 16Z" fill="#7B35E3"/>
</svg>
