<svg width="32" height="32" viewBox="0 0 32 32" fill="none" xmlns="http://www.w3.org/2000/svg">
<path d="M22 4H10C6.68629 4 4 6.68629 4 10V19.7895C4 24.324 7.67598 28 12.2105 28H19.7895C24.324 28 28 24.324 28 19.7895V10C28 6.68629 25.3137 4 22 4Z" stroke="#7B35E3" stroke-width="2" stroke-linecap="round"/>
<path d="M4 11.726C4 12.2657 4.10209 12.8001 4.30047 13.2987C4.49885 13.7973 4.7896 14.2503 5.15617 14.6319C5.52271 15.0136 5.95786 15.3163 6.43679 15.5228C6.91568 15.7293 7.429 15.8356 7.94737 15.8356C8.46574 15.8356 8.97905 15.7293 9.45795 15.5228C9.93687 15.3163 10.372 15.0136 10.7386 14.6319C11.1051 14.2503 11.3959 13.7973 11.5943 13.2987C11.7926 12.8001 11.8947 12.2657 11.8947 11.726M11.8947 4V11.8904C11.8947 12.4301 12.0009 12.9645 12.2072 13.4631C12.4135 13.9617 12.7159 14.4147 13.0971 14.7963C13.4784 15.178 13.9309 15.4806 14.429 15.6872C14.927 15.8937 15.4609 16 16 16C16.5391 16 17.073 15.8937 17.571 15.6872C18.0691 15.4806 18.5216 15.178 18.9029 14.7963C19.2841 14.4147 19.5865 13.9617 19.7928 13.4631C19.9991 12.9645 20.1053 12.4301 20.1053 11.8904V4M20.1053 11.726C20.1053 12.2657 20.2074 12.8001 20.4057 13.2987C20.6041 13.7973 20.8949 14.2503 21.2614 14.6319C21.628 15.0136 22.0631 15.3163 22.5421 15.5228C23.0209 15.7293 23.5343 15.8356 24.0526 15.8356C24.571 15.8356 25.0843 15.7293 25.5632 15.5228C26.0421 15.3163 26.4773 15.0136 26.8438 14.6319C27.2104 14.2503 27.5011 13.7973 27.6994 13.2987C27.898 12.8001 28 12.2657 28 11.726" stroke="#7B35E3" stroke-width="2"/>
</svg>
