<svg width="38" height="38" viewBox="0 0 38 38" fill="none" xmlns="http://www.w3.org/2000/svg">
<rect width="38" height="38" rx="19" fill="#F1F1F2"/>
<g clip-path="url(#clip0_12967_31901)">
<path d="M28.7879 19.2252C28.7879 18.5668 28.7296 17.9418 28.6296 17.3335H19.2129V21.0918H24.6046C24.3629 22.3252 23.6546 23.3668 22.6046 24.0752V26.5752H25.8212C27.7046 24.8335 28.7879 22.2668 28.7879 19.2252Z" fill="#4285F4"/>
<path d="M19.2131 28.9999C21.9131 28.9999 24.1714 28.0999 25.8214 26.5749L22.6048 24.0749C21.7048 24.6749 20.5631 25.0415 19.2131 25.0415C16.6048 25.0415 14.3964 23.2832 13.6048 20.9082H10.2881V23.4832C11.9298 26.7499 15.3048 28.9999 19.2131 28.9999Z" fill="#34A853"/>
<path d="M13.6046 20.9083C13.3962 20.3083 13.2879 19.6666 13.2879 18.9999C13.2879 18.3333 13.4046 17.6916 13.6046 17.0916V14.5166H10.2879C9.60456 15.8666 9.21289 17.3833 9.21289 18.9999C9.21289 20.6166 9.60456 22.1333 10.2879 23.4833L13.6046 20.9083Z" fill="#FBBC05"/>
<path d="M19.2131 12.9583C20.6881 12.9583 22.0048 13.4667 23.0464 14.4583L25.8964 11.6083C24.1714 9.99167 21.9131 9 19.2131 9C15.3048 9 11.9298 11.25 10.2881 14.5167L13.6048 17.0917C14.3964 14.7167 16.6048 12.9583 19.2131 12.9583Z" fill="#EA4335"/>
</g>
<defs>
<clipPath id="clip0_12967_31901">
<rect width="20" height="20" fill="white" transform="translate(9 9)"/>
</clipPath>
</defs>
</svg>
