<svg width="261" height="156" viewBox="0 0 261 156" fill="none" xmlns="http://www.w3.org/2000/svg">
<path d="M114.016 154.022C113.856 152.111 114.212 150.191 115.047 148.464C115.882 146.737 117.165 145.265 118.762 144.203C120.359 143.141 122.213 142.527 124.128 142.425C126.044 142.323 127.952 142.737 129.653 143.624C130.476 141.422 131.321 139.182 132.777 137.341C134.233 135.5 136.434 134.087 138.782 134.174V154.022H114.016Z" fill="#EBEBEB"/>
<path d="M48.7644 77.1279L36.104 102.674L39.8866 102.817L29.1543 123.116H34.7912L26 141.149H75.1424L64.3191 123.116L69.5055 122.891L59.1371 102.6L62.9673 102.375L48.7644 77.1279Z" fill="#EBEBEB"/>
<path d="M50.9092 106.76C50.9699 106.76 50.8616 117.592 50.6666 130.919C50.4716 144.247 50.2636 155.079 50.1986 155.075C50.1336 155.07 50.2463 144.243 50.4413 130.915C50.6363 117.588 50.8442 106.76 50.9092 106.76Z" fill="#E0E0E0"/>
<path d="M56.9318 112.718C56.6884 113.132 56.4116 113.527 56.1043 113.896C55.5714 114.607 54.8044 115.564 53.9379 116.613L51.7282 119.286C51.4372 119.669 51.1201 120.031 50.7793 120.369C51.0192 119.952 51.2947 119.557 51.6025 119.187C52.1398 118.48 52.9024 117.518 53.7689 116.47L55.9786 113.797C56.2687 113.413 56.5874 113.053 56.9318 112.718Z" fill="#E0E0E0"/>
<path d="M50.7964 120.37C49.8303 119.756 48.9042 119.081 48.0234 118.35C47.0968 117.675 46.2153 116.94 45.3848 116.149C46.3527 116.762 47.2804 117.437 48.1621 118.168C49.089 118.842 49.9692 119.577 50.7964 120.37Z" fill="#E0E0E0"/>
<path d="M50.4542 132.895C50.1217 132.681 49.8111 132.434 49.527 132.159C48.9724 131.686 48.2271 131.037 47.3606 130.335C46.494 129.633 45.7054 129.013 45.1335 128.567C44.8089 128.341 44.5045 128.087 44.2236 127.809C44.5773 127.984 44.9126 128.195 45.2245 128.437C45.8268 128.87 46.637 129.455 47.5035 130.17C48.3701 130.885 49.1197 131.548 49.6483 132.05C49.9435 132.305 50.2133 132.588 50.4542 132.895Z" fill="#E0E0E0"/>
<path d="M57.4559 125.152C57.3935 125.277 57.3164 125.393 57.2262 125.499C57.0703 125.711 56.832 126.01 56.5287 126.366C55.9177 127.089 55.0339 128.051 54.033 129.095C53.0321 130.14 52.1352 131.075 51.4983 131.773C51.1706 132.163 50.822 132.534 50.4541 132.886C50.5106 132.761 50.5867 132.646 50.6794 132.544C50.8354 132.328 51.0737 132.029 51.377 131.678C51.9879 130.95 52.8718 129.988 53.8727 128.948C54.8735 127.908 55.7704 126.964 56.4073 126.266C56.7356 125.875 57.0857 125.504 57.4559 125.152Z" fill="#E0E0E0"/>
<path d="M151.842 106.197H203.185L212.778 92.5743L222.834 106.582L234.65 106.392L221.916 89.238L164.667 89.4763L151.842 106.197Z" fill="#E0E0E0"/>
<path d="M177.518 106.392V154.143H228.787V106.392H222.912L212.778 92.5743L203.155 106.184L177.518 106.392Z" fill="#F5F5F5"/>
<path d="M196.755 133.441H184.762V154.143H196.755V133.441Z" fill="#E0E0E0"/>
<path d="M222.834 132.855H203.943V144.558H222.834V132.855Z" fill="#E0E0E0"/>
<path d="M209.615 132.855H209.182V144.667H209.615V132.855Z" fill="#EBEBEB"/>
<path d="M217.47 132.855H217.037V144.667H217.47V132.855Z" fill="#EBEBEB"/>
<path d="M217.254 138.9H209.398V139.334H217.254V138.9Z" fill="#EBEBEB"/>
<path d="M222.834 109.438H203.943V121.14H222.834V109.438Z" fill="#E0E0E0"/>
<path d="M209.615 109.438H209.182V121.249H209.615V109.438Z" fill="#EBEBEB"/>
<path d="M217.47 109.438H217.037V121.249H217.47V109.438Z" fill="#EBEBEB"/>
<path d="M217.254 115.481H209.398V115.915H217.254V115.481Z" fill="#EBEBEB"/>
<path d="M195.503 109.541H183.588V120.824H195.503V109.541Z" fill="#E0E0E0"/>
<path d="M177.521 106.391H156.711V154.138H177.521V106.391Z" fill="#E0E0E0"/>
<path d="M189.761 109.541H189.328V120.824H189.761V109.541Z" fill="#EBEBEB"/>
<path d="M195.503 115.243H183.588V115.676H195.503V115.243Z" fill="#EBEBEB"/>
<path d="M212.752 104.216C214.147 104.216 215.278 103.085 215.278 101.69C215.278 100.295 214.147 99.1641 212.752 99.1641C211.357 99.1641 210.226 100.295 210.226 101.69C210.226 103.085 211.357 104.216 212.752 104.216Z" fill="#E0E0E0"/>
<path d="M194.732 98.5921L197.917 94.6579V85.1995H191.244V98.6657L194.732 98.5921Z" fill="#F5F5F5"/>
<path d="M194.731 98.5921V85.1995H197.916V94.6579L194.731 98.5921Z" fill="#EBEBEB"/>
<path d="M198.366 83.8087H190.498V85.1995H198.366V83.8087Z" fill="#EBEBEB"/>
<path d="M177.518 127.28H138.8V154.144H177.518V127.28Z" fill="#F5F5F5"/>
<path d="M163.042 127.28H138.8V154.144H163.042V127.28Z" fill="#E0E0E0"/>
<path d="M159.433 135.94H143.579V154.095H159.433V135.94Z" fill="#F5F5F5"/>
<path d="M175.385 135.867H165.173V138.467H175.385V135.867Z" fill="#EBEBEB"/>
<path d="M151.842 106.197V107.579H203.155V106.184L151.842 106.197Z" fill="#EBEBEB"/>
<path d="M203.154 107.579L212.751 94.1081L212.777 92.5743L203.185 106.197L203.154 107.579Z" fill="#EBEBEB"/>
<path d="M234.403 106.391H222.912V107.283H234.403V106.391Z" fill="#EBEBEB"/>
<path d="M192.665 130.27H188.423V131.881H192.665V130.27Z" fill="#E0E0E0"/>
<path d="M260.114 154.143C260.114 154.204 201.882 154.256 130.061 154.256C58.2413 154.256 0 154.204 0 154.143C0 154.082 58.2196 154.022 130.057 154.022C201.895 154.022 260.114 154.078 260.114 154.143Z" fill="#263238"/>
<path d="M157.001 28.4668C147.404 15.2649 133.453 9.1123 118.873 9.1123C118.873 9.1123 83.2183 9.1123 72.6593 41.0319C68.7598 52.7954 69.6264 65.5685 74.3491 77.0243C76.1222 81.3793 78.3562 85.5321 81.0129 89.4118C90.2374 102.713 118.903 139.026 118.903 139.026H125.134C133.132 127.917 153.266 91.0149 159.298 79.1821C166.858 64.3336 168.02 43.6229 157.001 28.4668ZM124.839 87.5097C118.815 87.5097 112.925 85.7232 107.916 82.376C102.907 79.0289 99.003 74.2715 96.6977 68.7055C94.3925 63.1396 93.7895 57.0149 94.9652 51.1063C96.1408 45.1976 99.0422 39.7702 103.302 35.5106C107.563 31.2509 112.99 28.3503 118.899 27.1755C124.808 26.0007 130.933 26.6045 136.498 28.9106C142.064 31.2167 146.821 35.1214 150.167 40.131C153.514 45.1406 155.299 51.0301 155.298 57.0546C155.297 65.1321 152.088 72.8785 146.376 78.5898C140.663 84.3012 132.917 87.5097 124.839 87.5097Z" fill="#7B35E3"/>
<path opacity="0.4" d="M157.001 28.4668C147.404 15.2649 133.453 9.1123 118.873 9.1123C118.873 9.1123 83.2183 9.1123 72.6593 41.0319C68.7598 52.7954 69.6264 65.5685 74.3491 77.0243C76.1222 81.3793 78.3562 85.5321 81.0129 89.4118C90.2374 102.713 118.903 139.026 118.903 139.026H125.134C133.132 127.917 153.266 91.0149 159.298 79.1821C166.858 64.3336 168.02 43.6229 157.001 28.4668ZM124.839 87.5097C118.815 87.5097 112.925 85.7232 107.916 82.376C102.907 79.0289 99.003 74.2715 96.6977 68.7055C94.3925 63.1396 93.7895 57.0149 94.9652 51.1063C96.1408 45.1976 99.0422 39.7702 103.302 35.5106C107.563 31.2509 112.99 28.3503 118.899 27.1755C124.808 26.0007 130.933 26.6045 136.498 28.9106C142.064 31.2167 146.821 35.1214 150.167 40.131C153.514 45.1406 155.299 51.0301 155.298 57.0546C155.297 65.1321 152.088 72.8785 146.376 78.5898C140.663 84.3012 132.917 87.5097 124.839 87.5097Z" fill="black"/>
<path d="M163.27 28.7139C153.673 15.5162 139.722 9.36365 125.142 9.36365C125.142 9.36365 89.4875 9.36365 78.9285 41.2833C75.029 53.0468 75.8956 65.8198 80.6226 77.2757C82.3934 81.631 84.6259 85.7839 87.2821 89.6631C96.5066 102.96 125.159 139.291 125.159 139.291C125.159 139.291 158.266 93.7489 165.554 79.4508C173.128 64.5763 174.293 43.8743 163.27 28.7139ZM124.878 87.761C118.853 87.761 112.964 85.9746 107.955 82.6277C102.946 79.2808 99.0422 74.5236 96.7368 68.9579C94.4314 63.3921 93.8282 57.2678 95.0035 51.3592C96.1788 45.4507 99.0798 40.0233 103.34 35.7635C107.599 31.5036 113.027 28.6027 118.935 27.4274C124.844 26.2521 130.968 26.8553 136.534 29.1607C142.1 31.4661 146.857 35.3702 150.204 40.3792C153.551 45.3882 155.337 51.2773 155.337 57.3016C155.367 61.3099 154.6 65.2842 153.08 68.9933C151.56 72.7023 149.317 76.0721 146.483 78.9065C143.648 81.7409 140.278 83.9834 136.569 85.5035C132.86 87.0236 128.886 87.791 124.878 87.761Z" fill="#7B35E3"/>
<path d="M124.839 26.5946C118.544 26.5946 112.405 28.5446 107.264 32.1764C102.123 35.8083 98.2331 40.9437 96.1299 46.8764C98.48 41.6824 102.466 37.4009 107.479 34.6863C112.492 31.9717 118.256 30.9733 123.89 31.8438C129.524 32.7142 134.718 35.4057 138.678 39.5067C142.638 43.6077 145.147 48.8926 145.82 54.5536C146.493 60.2146 145.293 65.9403 142.405 70.8554C139.517 75.7704 135.098 79.6045 129.826 81.7716C124.553 83.9386 118.715 84.3193 113.205 82.8556C107.696 81.3919 102.817 78.1642 99.3145 73.666C102.194 78.0882 106.172 81.6866 110.861 84.1083C115.549 86.53 120.786 87.692 126.059 87.4804C131.331 87.2688 136.458 85.6908 140.938 82.9011C145.417 80.1115 149.094 76.2058 151.61 71.5671C154.125 66.9283 155.392 61.7155 155.286 56.4397C155.181 51.1639 153.706 46.0061 151.007 41.4718C148.308 36.9375 144.477 33.1823 139.889 30.5743C135.302 27.9662 130.116 26.5949 124.839 26.5946Z" fill="#7B35E3"/>
<path opacity="0.4" d="M124.839 26.5946C118.544 26.5946 112.405 28.5446 107.264 32.1764C102.123 35.8083 98.2331 40.9437 96.1299 46.8764C98.48 41.6824 102.466 37.4009 107.479 34.6863C112.492 31.9717 118.256 30.9733 123.89 31.8438C129.524 32.7142 134.718 35.4057 138.678 39.5067C142.638 43.6077 145.147 48.8926 145.82 54.5536C146.493 60.2146 145.293 65.9403 142.405 70.8554C139.517 75.7704 135.098 79.6045 129.826 81.7716C124.553 83.9386 118.715 84.3193 113.205 82.8556C107.696 81.3919 102.817 78.1642 99.3145 73.666C102.194 78.0882 106.172 81.6866 110.861 84.1083C115.549 86.53 120.786 87.692 126.059 87.4804C131.331 87.2688 136.458 85.6908 140.938 82.9011C145.417 80.1115 149.094 76.2058 151.61 71.5671C154.125 66.9283 155.392 61.7155 155.286 56.4397C155.181 51.1639 153.706 46.0061 151.007 41.4718C148.308 36.9375 144.477 33.1823 139.889 30.5743C135.302 27.9662 130.116 26.5949 124.839 26.5946Z" fill="black"/>
<path d="M129.834 105.729L121.974 121.582L124.318 121.669L117.659 134.269H121.16L115.7 145.46H146.199L139.483 134.269L142.702 134.126L136.268 121.535L138.647 121.396L129.834 105.729Z" fill="#455A64"/>
<path d="M131.16 124.126C131.225 124.126 131.16 130.842 131.056 139.122C130.952 147.402 130.783 154.113 130.722 154.113C130.662 154.113 130.722 147.397 130.831 139.117C130.939 130.837 131.099 124.126 131.16 124.126Z" fill="#263238"/>
<path d="M134.898 128.194C134.778 128.449 134.619 128.683 134.426 128.888C133.998 129.408 133.541 129.905 133.057 130.374C132.502 130.933 132 131.431 131.649 131.808C131.473 132.025 131.275 132.224 131.06 132.401C131.178 132.146 131.336 131.911 131.528 131.704C131.958 131.185 132.415 130.689 132.897 130.218C133.456 129.659 133.958 129.161 134.309 128.784C134.483 128.566 134.681 128.368 134.898 128.194Z" fill="#263238"/>
<path d="M131.086 132.561C130.468 132.216 129.888 131.808 129.353 131.344C128.769 130.935 128.228 130.466 127.741 129.944C128.359 130.29 128.94 130.698 129.474 131.162C130.059 131.57 130.6 132.039 131.086 132.561Z" fill="#263238"/>
<path d="M130.878 140.339C130.198 139.858 129.546 139.339 128.924 138.784C128.254 138.287 127.613 137.751 127.005 137.181C127.747 137.571 128.44 138.05 129.067 138.606C129.74 139.107 130.349 139.689 130.878 140.339Z" fill="#263238"/>
<path d="M135.223 135.529C135.28 135.573 134.387 136.734 133.131 138.012L131.549 139.667C131.349 139.914 131.124 140.139 130.878 140.339C130.821 140.295 131.714 139.134 132.97 137.856L134.552 136.205C134.752 135.958 134.977 135.732 135.223 135.529Z" fill="#263238"/>
</svg>
