<?xml version="1.0" encoding="utf-8"?>
<!-- Generator: Adobe Illustrator 27.3.1, SVG Export Plug-In . SVG Version: 6.00 Build 0)  -->
<svg version="1.1" id="Layer_1" xmlns="http://www.w3.org/2000/svg" xmlns:xlink="http://www.w3.org/1999/xlink" x="0px" y="0px"
	 viewBox="0 0 758.4 565" style="enable-background:new 0 0 758.4 565;" xml:space="preserve">
<style type="text/css">
	.st0{fill:#EBEBEB;}
	.st1{fill:#E6E6E6;}
	.st2{fill:#F0F0F0;}
	.st3{fill:#FAFAFA;}
	.st4{fill:#FFFFFF;}
	.st5{fill:#E0E0E0;}
	.st6{fill:#F5F5F5;}
	.st7{opacity:0.7;fill:#FFFFFF;enable-background:new    ;}
	.st8{opacity:0.2;enable-background:new    ;}
	.st9{fill:#2D2D2D;}
</style>
<path class="st0" d="M752.7,493.3H5.5v0.4h747.2V493.3z"/>
<path class="st0" d="M677.8,517.4h-49.5v0.4h49.5V517.4z"/>
<path class="st0" d="M456,517.6h-13v0.4h13V517.6z"/>
<path class="st0" d="M626.8,503.5H535v0.4h91.8V503.5z"/>
<path class="st0" d="M342,512.3h-19v0.4h19V512.3z"/>
<path class="st0" d="M309.7,512.3h-55v0.4h55V512.3z"/>
<path class="st0" d="M121.9,506h-38v0.4h38V506z"/>
<path class="st0" d="M242.8,506H130.9v0.4h111.9V506z"/>
<path class="st0" d="M359.7,426.7H71.1c-2.3,0-4.4-0.9-6-2.5c-1.6-1.6-2.5-3.8-2.5-6V12.5c0-2.2,0.9-4.4,2.5-6
	c1.6-1.6,3.8-2.5,6-2.5h288.5c2.3,0,4.4,0.9,6,2.5c1.6,1.6,2.5,3.8,2.5,6v405.5c0,2.3-0.9,4.4-2.5,6
	C364.1,425.8,361.9,426.7,359.7,426.7z M71.1,4.4c-2.2,0-4.2,0.9-5.8,2.4c-1.5,1.5-2.4,3.6-2.4,5.8v405.6c0,2.2,0.9,4.2,2.4,5.8
	c1.5,1.5,3.6,2.4,5.8,2.4h288.5c2.2,0,4.2-0.9,5.8-2.4c1.5-1.5,2.4-3.6,2.4-5.8V12.5c0-2.2-0.9-4.2-2.4-5.8
	c-1.5-1.5-3.6-2.4-5.8-2.4H71.1z"/>
<path class="st0" d="M682.9,426.7H394.4c-2.3,0-4.4-0.9-6-2.5c-1.6-1.6-2.5-3.8-2.5-6V12.5c0-2.2,0.9-4.4,2.5-6
	c1.6-1.6,3.8-2.5,6-2.5h288.6c2.2,0,4.4,0.9,6,2.5c1.6,1.6,2.5,3.7,2.5,6v405.6c0,2.3-0.9,4.4-2.5,6
	C687.3,425.8,685.2,426.7,682.9,426.7z M394.4,4.4c-2.2,0-4.2,0.9-5.8,2.4c-1.5,1.5-2.4,3.6-2.4,5.8v405.6c0,2.2,0.9,4.2,2.4,5.8
	c1.5,1.5,3.6,2.4,5.8,2.4h288.6c2.2,0,4.2-0.9,5.8-2.4c1.5-1.5,2.4-3.6,2.4-5.8V12.5c0-2.2-0.9-4.2-2.4-5.8
	c-1.5-1.5-3.6-2.4-5.8-2.4H394.4z"/>
<path class="st1" d="M290.6,294.8h363.2V29.5H290.6V294.8z"/>
<path class="st2" d="M274.6,294.8h375.5V29.5H274.6V294.8z"/>
<path class="st3" d="M627.6,272.3V51.9H297v220.3H627.6z"/>
<path class="st4" d="M547.2,272.3L472,51.9h-71.9l75.3,220.3H547.2z"/>
<path class="st4" d="M459.9,272.3L384.7,51.9h-28l75.3,220.3H459.9z"/>
<path class="st1" d="M299.9,272.3V51.9H297v220.3H299.9z"/>
<path class="st5" d="M102,222.6h128.2V40.8H102V222.6z"/>
<path class="st6" d="M92.9,222.6h132.2V40.8H92.9V222.6z"/>
<path class="st4" d="M212.1,208.2V55.1H106v153.2H212.1z"/>
<path class="st1" d="M151.9,349.9c9.5-23.5,32.2-32.2,40-47.1c10.2-19.4,10.2-48.6,1.5-59.1c-7.6-9.1-32.7,52.7-35.5,59.6
	c-7.7,18.6-12.6,38.3-14.4,58.4c0.2-14.5,0.4-27.8,0.6-38.1c0.5-33.5,1.2-44.3,1.5-47.6c1-1.6,2.3-3.5,3-4.5
	c6.1-8.6,19.6-18.8,26.3-31.2c9.8-18.2,8.2-39.9,1.3-48c-7.2-8.5-20,11.6-26.7,31.4c-6.8,19.8-3.9,38.9-5.8,55.3
	c-0.4,3.2-0.8,15.5-1.2,32.5c-2.1-18.3-6.2-30.6-13.7-42c-9.3-14.1-17.4-31.2-25.1-29c-7.7,2.2-3.6,24.9,2.5,40.8
	c5.4,14.2,32.1,28.3,36,39.7c-0.5,23.1-0.9,52.3-1.2,79.5c-2.1-14.1-0.7-15.2-9.3-36.8c-5.1-12.8-26.1-28.6-28.7-19.8
	c-2.5,8.8,1.3,25.4,9.2,37.1c6.4,9.4,20.6,9.4,23.9,15.2c0.8,1.4,3.3,6.6,4.8,9.6c-0.3,33.2-0.5,62.6-0.3,72.6l1.4,0.1
	c0-2.6,0.1-19.4,0.4-41.8c3.5-12,26.7-18.8,33.9-31.2c7.5-13,12.9-28.1,9.7-38.2c-2.7-8.4-23.9,3-32.4,17
	c-5.7,9.3-9.2,19.3-10.8,32.6c0.2-15.2,0.4-31.6,0.6-47.1C145,365.8,149,356.9,151.9,349.9z"/>
<path class="st2" d="M165.5,493.3h-48.8c-1.3,0-2.5-0.4-3.5-1.3c-1-0.8-1.7-2-1.9-3.2l-3.5-17h66.8l-3.5,17.1c-0.3,1.3-1,2.4-2,3.2
	C168,492.9,166.8,493.3,165.5,493.3z"/>
<path class="st2" d="M175.9,478.4h-69.6c-0.8,0-1.6-0.3-2.2-0.8c-0.6-0.5-1-1.3-1.1-2.1l-1.5-12.6c-0.1-0.5,0-0.9,0.1-1.4
	c0.1-0.4,0.4-0.8,0.7-1.2c0.3-0.3,0.7-0.6,1.1-0.8c0.4-0.2,0.9-0.3,1.3-0.3h72.4c0.5,0,0.9,0.1,1.3,0.3c0.4,0.2,0.8,0.5,1.1,0.8
	c0.3,0.3,0.5,0.8,0.7,1.2c0.1,0.4,0.2,0.9,0.1,1.4l-1.5,12.6c-0.1,0.8-0.4,1.5-1,2C177.4,478,176.7,478.3,175.9,478.4z"/>
<path class="st2" d="M611.7,482.4h14.9V321.8h-14.9V482.4z"/>
<path class="st2" d="M307.5,493.1h313.4v-10.7H307.5V493.1z"/>
<path class="st6" d="M611.7,321.8H301.7v160.6h309.9V321.8z"/>
<path class="st5" d="M615.2,321.8h15.4v-10.1h-15.4V321.8z"/>
<path class="st0" d="M615.2,311.7H297.7v10.1h317.5V311.7z"/>
<path class="st4" d="M589.4,391.1H324c-3.2,0-6.2-1.3-8.5-3.5c-2.2-2.2-3.5-5.3-3.5-8.5v-34.4c0-3.2,1.3-6.2,3.5-8.5
	c2.2-2.2,5.3-3.5,8.5-3.5h265.5c3.2,0,6.2,1.3,8.5,3.5c2.2,2.2,3.5,5.3,3.5,8.5v34.4c0,3.2-1.3,6.2-3.5,8.5
	C595.6,389.9,592.6,391.1,589.4,391.1z M324,335.8c-2.4,0-4.7,0.9-6.3,2.6c-1.7,1.7-2.6,4-2.6,6.3v34.4c0,2.4,0.9,4.7,2.6,6.3
	c1.7,1.7,4,2.6,6.3,2.6h265.5c2.4,0,4.7-0.9,6.3-2.6c1.7-1.7,2.6-4,2.6-6.3v-34.4c0-2.4-0.9-4.7-2.6-6.3c-1.7-1.7-4-2.6-6.3-2.6H324
	z"/>
<path class="st4" d="M589.4,463.1H324c-3.2,0-6.2-1.3-8.5-3.5c-2.2-2.2-3.5-5.3-3.5-8.5v-34.4c0-3.2,1.3-6.2,3.5-8.5
	c2.2-2.2,5.3-3.5,8.5-3.5h265.5c3.2,0,6.2,1.3,8.5,3.5c2.2,2.2,3.5,5.3,3.5,8.5v34.4c0,3.2-1.3,6.2-3.5,8.5
	C595.6,461.9,592.6,463.1,589.4,463.1z M324,407.7c-2.4,0-4.7,0.9-6.3,2.6c-1.7,1.7-2.6,4-2.6,6.3v34.4c0,2.4,0.9,4.7,2.6,6.3
	c1.7,1.7,4,2.6,6.3,2.6h265.5c2.4,0,4.7-0.9,6.3-2.6c1.7-1.7,2.6-4,2.6-6.3v-34.4c0-2.4-0.9-4.7-2.6-6.3c-1.7-1.7-4-2.6-6.3-2.6H324
	z"/>
<path class="st4" d="M529.1,367.2H384.3c-1,0-2-0.4-2.7-1.1c-0.7-0.7-1.1-1.7-1.1-2.7v-2.8c0-1,0.4-2,1.1-2.7
	c0.7-0.7,1.7-1.1,2.7-1.1h144.8c1,0,2,0.4,2.7,1.1c0.7,0.7,1.1,1.7,1.1,2.7v2.8c0,1-0.4,2-1.1,2.7
	C531.1,366.8,530.1,367.2,529.1,367.2z M384.3,359.7c-0.2,0-0.5,0.1-0.6,0.3c-0.2,0.2-0.3,0.4-0.3,0.6v2.8c0,0.2,0.1,0.5,0.3,0.6
	c0.2,0.2,0.4,0.3,0.6,0.3h144.8c0.2,0,0.5-0.1,0.6-0.3c0.2-0.2,0.3-0.4,0.3-0.6v-2.8c0-0.2-0.1-0.5-0.3-0.6
	c-0.2-0.2-0.4-0.3-0.6-0.3H384.3z"/>
<path class="st4" d="M529.1,439.2H384.3c-1,0-2-0.4-2.7-1.1c-0.7-0.7-1.1-1.7-1.1-2.7v-2.8c0-1,0.4-2,1.1-2.7
	c0.7-0.7,1.7-1.1,2.7-1.1h144.8c1,0,2,0.4,2.7,1.1c0.7,0.7,1.1,1.7,1.1,2.7v2.8c0,1-0.4,2-1.1,2.7
	C531.1,438.8,530.1,439.2,529.1,439.2z M384.3,431.6c-0.2,0-0.5,0.1-0.6,0.3c-0.2,0.2-0.3,0.4-0.3,0.6v2.8c0,0.2,0.1,0.5,0.3,0.6
	c0.2,0.2,0.4,0.3,0.6,0.3h144.8c0.2,0,0.5-0.1,0.6-0.3c0.2-0.2,0.3-0.4,0.3-0.6v-2.8c0-0.2-0.1-0.5-0.3-0.6
	c-0.2-0.2-0.4-0.3-0.6-0.3H384.3z"/>
<path class="st6" d="M371.6,560.8c160,0,289.7-7.6,289.7-16.9c0-9.3-129.7-16.9-289.7-16.9c-160,0-289.7,7.6-289.7,16.9
	C81.9,553.2,211.6,560.8,371.6,560.8z"/>
<path d="M565.6,172.6l-0.6,8.8l1.5,0.1l0.6-8.8L565.6,172.6z"/>
<path d="M567.8,136.8l-1.9,28.9l1.5,0.1l1.9-28.9L567.8,136.8z"/>
<path d="M550.1,94.9H374.5c-4.5,0.1-8.8,1.8-12.1,4.9c-3.3,3.1-5.3,7.3-5.7,11.8L334,462c-0.2,2.1,0.1,4.3,0.8,6.3
	c0.7,2,1.8,3.9,3.3,5.5c1.5,1.6,3.3,2.8,5.2,3.7c2,0.8,4.1,1.3,6.3,1.3h175.6c4.5-0.1,8.8-1.8,12.1-4.9c3.3-3.1,5.3-7.3,5.7-11.8
	l22.7-350.4c0.2-2.1-0.1-4.3-0.8-6.3c-0.7-2-1.8-3.9-3.3-5.5c-1.5-1.6-3.3-2.8-5.2-3.7S552.3,94.8,550.1,94.9z"/>
<path class="st7" d="M544.5,94.9H374.5c-4.5,0.1-8.8,1.8-12.1,4.9c-3.3,3.1-5.3,7.3-5.7,11.8L334,462c-0.2,2.1,0.1,4.3,0.8,6.3
	c0.7,2,1.8,3.9,3.3,5.5c1.5,1.6,3.3,2.8,5.2,3.7c2,0.8,4.1,1.3,6.3,1.3h170.1c4.5-0.1,8.8-1.8,12.1-4.9c3.3-3.1,5.3-7.3,5.7-11.8
	l22.7-350.4c0.2-2.1-0.1-4.3-0.8-6.3c-0.7-2-1.8-3.9-3.3-5.5c-1.5-1.6-3.3-2.8-5.2-3.7S546.7,94.8,544.5,94.9z"/>
<path class="st4" d="M530.2,452.8H343.1c-0.7,0-1.4-0.1-2-0.4c-0.6-0.3-1.2-0.7-1.7-1.2c-0.5-0.5-0.8-1.1-1.1-1.8
	c-0.2-0.7-0.3-1.4-0.3-2.1l20.5-317.1c0.1-1.3,0.7-2.5,1.6-3.4c0.9-0.9,2.2-1.4,3.5-1.4h187.1c0.7,0,1.4,0.1,2,0.4
	c0.6,0.3,1.2,0.7,1.7,1.2c0.5,0.5,0.8,1.1,1.1,1.8c0.2,0.7,0.3,1.4,0.3,2.1l-20.5,317.1c-0.1,1.3-0.7,2.5-1.6,3.4
	C532.7,452.3,531.5,452.8,530.2,452.8z"/>
<path class="st4" d="M488.6,115.1h-68c-0.4,0-0.7-0.1-1-0.2c-0.3-0.1-0.6-0.3-0.8-0.6c-0.2-0.3-0.4-0.6-0.5-0.9
	c-0.1-0.3-0.2-0.7-0.1-1c0.1-0.7,0.4-1.4,0.9-1.9c0.5-0.5,1.2-0.8,2-0.8h68c0.4,0,0.7,0.1,1,0.2c0.3,0.1,0.6,0.3,0.8,0.6
	c0.2,0.3,0.4,0.6,0.5,0.9s0.2,0.7,0.1,1c-0.1,0.7-0.4,1.4-0.9,1.9C490,114.8,489.4,115.1,488.6,115.1z"/>
<path class="st4" d="M435.5,466.1c-0.1,1.8-0.9,3.5-2.2,4.7c-1.3,1.2-3,1.9-4.8,2c-0.9,0-1.7-0.2-2.5-0.5c-0.8-0.3-1.5-0.8-2.1-1.5
	c-0.6-0.6-1.1-1.4-1.3-2.2c-0.3-0.8-0.4-1.7-0.4-2.5c0.1-1.8,0.9-3.5,2.2-4.7c1.3-1.2,3-1.9,4.8-1.9c0.9,0,1.7,0.2,2.5,0.5
	c0.8,0.3,1.5,0.8,2.1,1.5c0.6,0.6,1.1,1.4,1.3,2.2S435.6,465.3,435.5,466.1z"/>
<path class="st8" d="M509.8,213.3H350.1L339.9,370h169.9c4.4,0,8.7-1.8,11.8-4.9s4.9-7.4,4.9-11.8V230.1c0-4.4-1.8-8.7-4.9-11.9
	C518.5,215.1,514.3,213.3,509.8,213.3z"/>
<path d="M494.9,199.4H299.1c-9.2,0-16.7,7.5-16.7,16.7v123.3c0,9.2,7.5,16.7,16.7,16.7h195.8c9.2,0,16.7-7.5,16.7-16.7V216.1
	C511.7,206.9,504.2,199.4,494.9,199.4z"/>
<path d="M277.1,197.6c-0.4,0-0.8-0.2-1-0.4l-2.7-2.7c-0.3-0.3-0.4-0.7-0.4-1.1s0.2-0.8,0.4-1.1c0.3-0.3,0.7-0.4,1.1-0.4
	c0.4,0,0.8,0.2,1.1,0.4l2.7,2.7c0.3,0.3,0.4,0.7,0.4,1.1c0,0.4-0.2,0.8-0.4,1.1c-0.1,0.1-0.3,0.2-0.5,0.3
	C277.4,197.6,277.3,197.6,277.1,197.6z"/>
<path d="M273,207h-3.8c-0.4,0-0.8-0.2-1.1-0.4c-0.3-0.3-0.4-0.7-0.4-1.1c0-0.4,0.2-0.8,0.4-1.1c0.3-0.3,0.7-0.4,1.1-0.4h3.8
	c0.4,0,0.8,0.2,1.1,0.4c0.3,0.3,0.4,0.7,0.4,1.1c0,0.4-0.2,0.8-0.4,1.1C273.8,206.8,273.4,207,273,207z"/>
<path d="M286.6,193.6c-0.4,0-0.7-0.1-1-0.4c-0.3-0.3-0.4-0.6-0.5-1l-0.3-3.8c0-0.2,0-0.4,0.1-0.6s0.2-0.4,0.3-0.5
	c0.1-0.1,0.3-0.3,0.5-0.4c0.2-0.1,0.4-0.1,0.6-0.2c0.4,0,0.8,0.1,1.1,0.4c0.3,0.3,0.5,0.6,0.5,1l0.3,3.8c0,0.2,0,0.4-0.1,0.6
	c-0.1,0.2-0.2,0.4-0.3,0.5c-0.1,0.1-0.3,0.3-0.5,0.4c-0.2,0.1-0.4,0.1-0.6,0.2H286.6z"/>
<path d="M413.8,340.1l60.1,60.1v-60.1H413.8z"/>
<path class="st4" d="M430.2,313.7l-3-12.7c-0.8-3.3-0.8-6.8,0-10.1l4.2-18.1c1.7-7.7,0.8-15.8-2.6-22.9c-3.4-7.1-9.1-12.9-16.1-16.4
	c0.1-0.3,0.2-0.7,0.3-1c0.2-1.1,0.3-2.2,0.1-3.3c-0.2-1.1-0.6-2.2-1.2-3.1c-0.6-0.9-1.4-1.8-2.3-2.4c-0.9-0.6-2-1.1-3.1-1.4
	c-1.1-0.2-2.2-0.3-3.3-0.1c-1.1,0.2-2.2,0.6-3.1,1.2c-0.9,0.6-1.8,1.4-2.4,2.3c-0.6,0.9-1.1,2-1.3,3.1c-0.1,0.3-0.1,0.7-0.1,1.1
	c-7.9,0.2-15.5,3-21.6,8s-10.4,11.9-12.1,19.6l-4.1,18.1c-0.7,3.3-2.2,6.4-4.3,9.1l-8.1,10.2c-0.8,1-1.3,2.2-1.5,3.5
	s-0.1,2.6,0.3,3.8c0.4,1.2,1.2,2.3,2.1,3.1c1,0.8,2.1,1.4,3.4,1.7l71,15.9c1.2,0.3,2.5,0.2,3.7-0.1c1.2-0.4,2.3-1,3.2-1.9
	c0.9-0.9,1.5-2,1.9-3.2C430.5,316.3,430.5,315,430.2,313.7z"/>
<path class="st4" d="M376.6,317.6c-0.5-0.1-1.1-0.1-1.6,0c-0.5,0.1-1,0.4-1.4,0.8c-0.4,0.4-0.7,0.9-0.9,1.4
	c-0.2,0.5-0.2,1.1-0.1,1.6c0.4,2.4,1.5,4.6,3.2,6.4c1.7,1.8,3.8,3,6.2,3.5c2.4,0.5,4.9,0.3,7.1-0.5c2.3-0.9,4.2-2.4,5.6-4.4
	c0.3-0.5,0.5-1,0.6-1.5c0.1-0.5,0-1.1-0.2-1.6s-0.5-1-0.9-1.3c-0.4-0.4-0.9-0.6-1.5-0.7L376.6,317.6z"/>
<path class="st4" d="M322.1,292.5c-0.4,0-0.7-0.1-1.1-0.3c-0.3-0.2-0.6-0.4-0.8-0.7c-7.1-10.6-9.6-23.5-7.1-36
	c2.5-12.5,9.8-23.4,20.4-30.5c0.5-0.3,1.1-0.4,1.7-0.3c0.6,0.1,1.1,0.5,1.4,1c0.3,0.5,0.4,1.1,0.3,1.7c-0.1,0.6-0.5,1.1-1,1.4
	c-9.6,6.4-16.2,16.4-18.4,27.7c-2.2,11.3,0.1,23,6.5,32.6c0.3,0.5,0.5,1.1,0.3,1.7c-0.1,0.6-0.5,1.1-1,1.4
	C323,292.4,322.6,292.5,322.1,292.5z"/>
<path class="st4" d="M331.6,286.1c-0.4,0-0.7-0.1-1.1-0.3c-0.3-0.2-0.6-0.4-0.8-0.7c-5.4-8.1-7.3-17.9-5.4-27.4
	c1.9-9.5,7.5-17.9,15.5-23.2c0.2-0.2,0.5-0.3,0.8-0.3c0.3-0.1,0.6-0.1,0.9,0s0.6,0.2,0.8,0.3c0.2,0.2,0.5,0.4,0.6,0.6
	c0.2,0.2,0.3,0.5,0.3,0.8c0.1,0.3,0.1,0.6,0,0.9c-0.1,0.3-0.2,0.6-0.3,0.8c-0.2,0.2-0.4,0.5-0.6,0.6c-7.1,4.7-12,12-13.6,20.4
	c-1.7,8.3,0.1,17,4.8,24c0.3,0.5,0.4,1.1,0.3,1.7c-0.1,0.6-0.5,1.1-1,1.4C332.5,286,332.1,286.1,331.6,286.1z"/>
<path class="st4" d="M341.1,279.8c-0.4,0-0.7-0.1-1.1-0.3c-0.3-0.2-0.6-0.4-0.8-0.7c-1.8-2.7-3.1-5.8-3.7-9.1
	c-0.6-3.2-0.6-6.6,0-9.8c0.6-3.2,1.9-6.3,3.8-9c1.8-2.7,4.2-5.1,6.9-6.9c0.5-0.3,1.1-0.4,1.7-0.3c0.6,0.1,1.1,0.5,1.4,0.9
	c0.3,0.5,0.4,1.1,0.3,1.6c-0.1,0.6-0.4,1.1-0.9,1.4c-2.3,1.5-4.2,3.4-5.7,5.7c-1.5,2.3-2.6,4.8-3.1,7.4c-0.5,2.7-0.5,5.4,0,8
	c0.5,2.7,1.6,5.2,3.1,7.4c0.3,0.5,0.4,1.1,0.3,1.7c-0.1,0.6-0.5,1.1-0.9,1.4C342,279.7,341.6,279.8,341.1,279.8z"/>
<path class="st4" d="M451.4,324c-0.5,0-1-0.2-1.4-0.5c-0.4-0.3-0.7-0.7-0.8-1.2c-0.1-0.5-0.1-1,0.1-1.5c0.2-0.5,0.6-0.8,1-1.1
	c10.2-5.3,18-14.4,21.5-25.4c3.5-11,2.5-22.9-2.8-33.1c-0.2-0.3-0.3-0.6-0.3-0.9c0-0.3,0-0.6,0.1-0.9s0.2-0.6,0.4-0.8
	c0.2-0.2,0.4-0.4,0.7-0.6c0.3-0.1,0.6-0.2,0.9-0.2c0.3,0,0.6,0,0.9,0.1c0.3,0.1,0.6,0.3,0.8,0.5c0.2,0.2,0.4,0.5,0.5,0.8
	c2.9,5.6,4.6,11.7,5.2,18c0.5,6.3-0.2,12.6-2.1,18.6c-1.9,6-5,11.6-9.1,16.4c-4.1,4.8-9,8.8-14.6,11.6
	C452,323.9,451.7,324,451.4,324z"/>
<path class="st4" d="M446.1,313.9c-0.5,0-1-0.2-1.4-0.5c-0.4-0.3-0.7-0.7-0.8-1.2c-0.1-0.5-0.1-1,0.1-1.5c0.2-0.5,0.6-0.8,1-1.1
	c3.7-1.9,7.1-4.6,9.8-7.8c2.7-3.2,4.8-6.9,6-10.9c1.3-4,1.8-8.2,1.4-12.4c-0.4-4.2-1.5-8.3-3.5-12c-0.3-0.5-0.3-1.1-0.1-1.7
	c0.2-0.6,0.6-1,1.1-1.3c0.5-0.3,1.1-0.3,1.7-0.1c0.6,0.2,1,0.6,1.3,1.1c2.2,4.3,3.5,8.9,3.9,13.7c0.4,4.8-0.1,9.6-1.6,14.2
	c-1.5,4.6-3.8,8.8-6.9,12.5c-3.1,3.7-6.9,6.7-11.1,8.9C446.8,313.8,446.5,313.9,446.1,313.9z"/>
<path class="st4" d="M440.9,303.7c-0.5,0-1-0.2-1.4-0.5c-0.4-0.3-0.7-0.7-0.8-1.2c-0.1-0.5-0.1-1,0.1-1.5c0.2-0.5,0.6-0.8,1-1.1
	c2.4-1.2,4.5-2.9,6.3-5c1.7-2.1,3.1-4.5,3.9-7c0.8-2.6,1.1-5.3,0.9-8c-0.2-2.7-1-5.3-2.2-7.7c-0.3-0.5-0.3-1.1-0.1-1.7
	c0.2-0.6,0.6-1,1.1-1.3c0.5-0.3,1.1-0.3,1.7-0.1c0.6,0.2,1,0.6,1.3,1.1c3,5.9,3.6,12.8,1.6,19.1c-2,6.3-6.5,11.6-12.4,14.7
	C441.6,303.6,441.2,303.7,440.9,303.7z"/>
<path d="M583.5,501c-11.1-26.1-15.5-56.8-2.9-55.5c13,1.3,11.5,47.5,13.6,52.6C590.1,501.6,583.5,501,583.5,501z"/>
<path class="st9" d="M587.1,451.5c-2.7,10-5.6,25.3-7.8,38.4c1.3,3.7,2.7,7.5,4.2,11.1c0,0,6.6,0.6,10.7-2.9
	C592.5,494.1,593.1,464.4,587.1,451.5z"/>
<path d="M587.1,496.2c-3.5-55.4,6-106.8,30.8-104.5c21.3,2-9.8,95.3-9.2,106.1C599,501.6,587.1,496.2,587.1,496.2z"/>
<path d="M603.3,495.8c3.9-39.9,24.9-86.4,34-70.8c11.5,19.7-17.9,66.7-18.7,74.4C611.1,501,603.3,495.8,603.3,495.8z"/>
<path d="M599.3,406.5c-2.5-0.4-3.9-2-3.8-4.2c0.2-2.5,2.2-5,4.2-5c0.9,0,2.5,0.5,2.9,3.9l-1.5,0.2c-0.2-1.6-0.7-2.6-1.3-2.6
	c-1,0-2.6,1.9-2.7,3.6c-0.1,1.5,0.7,2.3,2.5,2.6L599.3,406.5z"/>
<path d="M626.2,416.5c-1.1-0.1-2.1-0.5-3-1.2l0.8-1.2c1.4,0.9,2.5,1.1,2.9,0.6c0.6-0.8,0.2-3.2-1.1-4.4c-1-1-2.3-0.9-3.6,0.3l-1-1.1
	c0.3-0.4,0.8-0.7,1.3-0.9c0.5-0.2,1-0.4,1.5-0.4c0.5,0,1.1,0.1,1.5,0.3c0.5,0.2,0.9,0.5,1.3,0.8c1.8,1.7,2.4,4.9,1.2,6.4
	c-0.2,0.3-0.5,0.5-0.8,0.6C626.9,416.5,626.5,416.5,626.2,416.5z"/>
<path d="M589.5,439.1c-0.9,0.1-1.8-0.2-2.5-0.8s-1.2-1.3-1.4-2.2c-0.6-2.4,0.6-5.4,2.4-6.1c0.9-0.3,2.5-0.3,3.9,2.9l-1.4,0.6
	c-0.7-1.5-1.5-2.3-2.1-2.1c-1,0.3-1.9,2.6-1.5,4.3c0.3,1.5,1.5,2,3.2,1.7l0.2,1.5C590.1,439,589.8,439.1,589.5,439.1z"/>
<path d="M573.6,470c-0.7,0-1.4-0.2-2.1-0.6c-0.6-0.4-1.1-1-1.4-1.6c-1-2.3-0.4-5.5,1.2-6.4c0.8-0.4,2.4-0.8,4.4,2.1l-1.2,0.9
	c-1-1.4-1.9-2-2.4-1.6c-0.9,0.5-1.4,2.9-0.6,4.5c0.6,1.3,1.8,1.7,3.5,1.1l0.5,1.4C574.9,469.9,574.3,470,573.6,470z"/>
<path class="st4" d="M600.1,424.9c-0.2,0-0.3,0-0.4-0.1c-0.9-0.5-1.6-1.3-2-2.3c-0.4-1-0.4-2.1,0-3.1c0.4-1,1.2-1.8,2.1-2.4
	c0.9-0.5,2-0.8,3.1-0.6c0.9,0.2,3.1,1,3.2,5c0,0.2-0.1,0.4-0.2,0.5c-0.1,0.1-0.3,0.2-0.5,0.2c-0.2,0-0.4-0.1-0.5-0.2
	c-0.1-0.1-0.2-0.3-0.2-0.5c-0.1-2.1-0.8-3.3-2-3.6c-0.7-0.1-1.5,0.1-2.1,0.5c-0.6,0.4-1.1,1-1.4,1.6c-0.5,1.3,0,2.6,1.5,3.6
	c0.1,0.1,0.2,0.2,0.3,0.4c0.1,0.1,0.1,0.3,0,0.5c0,0.2-0.1,0.3-0.3,0.4C600.4,424.8,600.3,424.9,600.1,424.9L600.1,424.9z"/>
<path class="st4" d="M617.8,465.3c-0.2,0-0.3-0.1-0.5-0.2c-0.1-0.1-0.2-0.3-0.3-0.4c0-0.1,0-0.2,0-0.3c0-0.1,0.1-0.2,0.1-0.3
	c0.1-0.1,0.1-0.2,0.2-0.2c0.1-0.1,0.2-0.1,0.3-0.1c2-0.4,3.2-1.3,3.2-2.6c-0.1-0.7-0.4-1.4-0.8-2c-0.5-0.6-1.1-1-1.9-1.2
	c-1.3-0.3-2.5,0.4-3.3,2c0,0.1-0.1,0.2-0.2,0.2c-0.1,0.1-0.2,0.1-0.3,0.1c-0.1,0-0.2,0-0.3,0c-0.1,0-0.2,0-0.3-0.1
	c-0.1,0-0.2-0.1-0.2-0.2c-0.1-0.1-0.1-0.2-0.1-0.3c0-0.1,0-0.2,0-0.3c0-0.1,0-0.2,0.1-0.3c0.4-1,1.1-1.8,2-2.3c0.9-0.5,2-0.7,3-0.5
	c1.1,0.3,2,0.9,2.7,1.7c0.7,0.8,1.1,1.9,1.2,3c0,0.9-0.5,3.2-4.4,4L617.8,465.3z"/>
<path d="M638.8,452.7c-0.9,0-2-0.5-3.3-2.4l1.2-0.8c0.9,1.4,1.8,2,2.4,1.7c0.9-0.5,1.5-2.8,0.7-4.5c-0.6-1.3-1.7-1.7-3.4-1.2
	l-0.5-1.4c2.4-0.8,4.4,0,5.3,2c1,2.3,0.3,5.5-1.4,6.4C639.5,452.6,639.2,452.7,638.8,452.7z"/>
<path class="st9" d="M634.4,510.5c0-8-2.9-15.7-8.1-21.7c0.5-0.1,1-0.3,1.3-0.7c0.3-0.4,0.5-0.9,0.5-1.4c0-0.6-0.2-1.1-0.7-1.6
	c-0.4-0.4-1-0.6-1.6-0.6h-50c-0.5,0-1.1,0.2-1.5,0.6c-0.4,0.4-0.6,0.9-0.7,1.4c0,0.5,0.1,1.1,0.5,1.5c0.3,0.4,0.8,0.7,1.4,0.8
	c-3.3,3.8-5.6,8.3-6.9,13.1c-1.3,4.8-1.5,9.9-0.6,14.8c0.9,4.9,3,9.6,6,13.6s6.8,7.3,11.3,9.7c-0.5,0.3-0.9,0.7-1.1,1.1
	c-0.2,0.5-0.3,1.1-0.1,1.6c0.1,0.5,0.4,1,0.9,1.3c0.4,0.3,1,0.5,1.5,0.5h29c0.6,0,1.3-0.3,1.7-0.7c0.5-0.5,0.7-1.1,0.7-1.7
	c0-0.4-0.1-0.9-0.4-1.3s-0.6-0.7-0.9-0.9c5.4-2.8,9.9-7.1,13-12.3C632.7,522.5,634.4,516.6,634.4,510.5z"/>
</svg>
