<svg width="12" height="13" viewBox="0 0 12 13" fill="none" xmlns="http://www.w3.org/2000/svg">
<path d="M8.83006 11.835C8.56506 11.835 8.22506 11.75 7.80006 11.5L6.30506 10.615C6.15006 10.525 5.85006 10.525 5.70006 10.615L4.20006 11.5C3.31506 12.025 2.79506 11.815 2.56006 11.645C2.33006 11.475 1.97006 11.04 2.20506 10.04L2.56006 8.505C2.60006 8.345 2.52006 8.07 2.40006 7.95L1.16006 6.71C0.540059 6.09 0.590059 5.56 0.675059 5.3C0.760059 5.04 1.03006 4.58 1.89006 4.435L3.48506 4.17C3.63506 4.145 3.85006 3.985 3.91506 3.85L4.80006 2.085C5.20006 1.28 5.72506 1.16 6.00006 1.16C6.27506 1.16 6.80006 1.28 7.20006 2.085L8.08006 3.845C8.15006 3.98 8.36506 4.14 8.51506 4.165L10.1101 4.43C10.9751 4.575 11.2451 5.035 11.3251 5.295C11.4051 5.555 11.4551 6.085 10.8401 6.705L9.60006 7.95C9.48006 8.07 9.40506 8.34 9.44006 8.505L9.79506 10.04C10.0251 11.04 9.67006 11.475 9.44006 11.645C9.31506 11.735 9.11506 11.835 8.83006 11.835Z" fill="#ECB009"/>
</svg>
