<svg width="28" height="28" viewBox="0 0 28 28" fill="none" xmlns="http://www.w3.org/2000/svg">
<g id="star">
<path id="Vector" d="M23.834 13.685C24.1308 13.4073 24.3414 13.0501 24.4407 12.656C24.54 12.2619 24.5238 11.8476 24.394 11.4625C24.2716 11.0768 24.0421 10.7338 23.7323 10.4736C23.4225 10.2133 23.045 10.0465 22.644 9.99247L18.234 9.34497C18.1666 9.33671 18.1023 9.31152 18.0473 9.27174C17.9922 9.23197 17.9481 9.17889 17.919 9.11747L15.9415 5.10997C15.7616 4.74868 15.4845 4.44472 15.1414 4.23225C14.7982 4.01978 14.4026 3.90723 13.999 3.90723C13.5954 3.90723 13.1998 4.01978 12.8567 4.23225C12.5135 4.44472 12.2364 4.74868 12.0565 5.10997L10.079 9.11747C10.05 9.17889 10.0059 9.23197 9.9508 9.27174C9.89572 9.31152 9.83147 9.33671 9.76403 9.34497L5.35403 9.99247C4.95302 10.0465 4.5756 10.2133 4.26577 10.4736C3.95594 10.7338 3.72645 11.0768 3.60403 11.4625C3.47425 11.8476 3.45804 12.2619 3.55734 12.656C3.65664 13.0501 3.86725 13.4073 4.16403 13.685L7.34903 16.7825C7.39472 16.8348 7.42917 16.896 7.45025 16.9623C7.47132 17.0285 7.47856 17.0983 7.47153 17.1675L6.71903 21.56C6.64854 21.9575 6.69129 22.3669 6.8424 22.7413C6.99351 23.1158 7.24689 23.4401 7.57359 23.6774C7.90029 23.9147 8.28714 24.0553 8.68995 24.0831C9.09276 24.111 9.49528 24.025 9.85153 23.835L13.8065 21.77C13.8651 21.7362 13.9315 21.7184 13.999 21.7184C14.0666 21.7184 14.133 21.7362 14.1915 21.77L18.1465 23.835C18.4515 24.0054 18.7947 24.0958 19.144 24.0975C19.4598 24.0969 19.7716 24.0275 20.0578 23.894C20.344 23.7605 20.5975 23.5662 20.8008 23.3245C21.0041 23.0829 21.1522 22.7998 21.2348 22.4951C21.3174 22.1903 21.3325 21.8712 21.279 21.56L20.5265 17.1675C20.5187 17.101 20.5255 17.0336 20.5467 16.97C20.5679 16.9065 20.6028 16.8484 20.649 16.8L23.834 13.685ZM19.424 15.54C19.1735 15.7871 18.9868 16.0915 18.8801 16.4268C18.7734 16.7622 18.7499 17.1185 18.8115 17.465L19.564 21.8575C19.5769 21.9343 19.5673 22.0132 19.5362 22.0847C19.5052 22.1561 19.454 22.217 19.389 22.26C19.3247 22.3044 19.2484 22.3281 19.1703 22.3281C19.0921 22.3281 19.0158 22.3044 18.9515 22.26L15.014 20.2125C14.7 20.0512 14.352 19.9672 13.999 19.9672C13.646 19.9672 13.2981 20.0512 12.984 20.2125L9.04653 22.295C8.98223 22.3394 8.90593 22.3631 8.82778 22.3631C8.74964 22.3631 8.67334 22.3394 8.60903 22.295C8.54404 22.252 8.49291 22.1911 8.46184 22.1197C8.43078 22.0482 8.42112 21.9693 8.43403 21.8925L9.18653 17.5C9.24819 17.1535 9.22465 16.7972 9.11794 16.4618C9.01124 16.1265 8.82457 15.8221 8.57403 15.575L5.37153 12.425C5.31605 12.3719 5.27552 12.3051 5.25401 12.2314C5.23251 12.1577 5.23079 12.0796 5.24903 12.005C5.27218 11.9267 5.3176 11.857 5.37976 11.8041C5.44191 11.7513 5.51811 11.7177 5.59903 11.7075L10.009 11.0775C10.3564 11.0256 10.6859 10.8902 10.9694 10.683C11.2529 10.4757 11.4818 10.2027 11.6365 9.88747L13.6315 5.89747C13.6632 5.8265 13.7148 5.76622 13.78 5.72393C13.8452 5.68164 13.9213 5.65913 13.999 5.65913C14.0768 5.65913 14.1528 5.68164 14.218 5.72393C14.2833 5.76622 14.3348 5.8265 14.3665 5.89747L16.344 9.88747C16.4988 10.2027 16.7277 10.4757 17.0112 10.683C17.2947 10.8902 17.6242 11.0256 17.9715 11.0775L22.3815 11.7075C22.4625 11.7177 22.5387 11.7513 22.6008 11.8041C22.663 11.857 22.7084 11.9267 22.7315 12.005C22.752 12.0781 22.753 12.1552 22.7346 12.2289C22.7162 12.3025 22.679 12.3701 22.6265 12.425L19.424 15.54Z" fill="#5B5B5B"/>
</g>
</svg>
