<svg width="54" height="61" viewBox="0 0 54 61" fill="none" xmlns="http://www.w3.org/2000/svg">
<g clip-path="url(#clip0_53_22095)">
<path d="M28.9932 21.1325C28.9932 21.1325 25.8036 20.0131 23.793 20.4277C21.7823 20.8445 20.789 21.5733 20.789 21.5733C20.789 21.5733 19.0425 21.6519 18.0557 22.1712C17.0689 22.6927 17.285 28.711 17.5667 29.2281C17.8505 29.7431 21.7474 31.6481 22.6665 33.0097C23.5856 34.3713 22.863 36.0537 22.8106 36.8087C22.7582 37.5637 22.8411 38.0263 23.3935 38.0874C23.9458 38.1463 24.5418 37.7557 24.8627 37.6008C25.1858 37.4437 25.8691 37.5812 26.1704 37.7186C26.4739 37.8561 26.142 38.6548 26.2883 39.1828C26.4346 39.7087 26.7402 40.2848 26.9105 40.7801C27.0808 41.2755 28.9692 40.0535 28.9932 40.1953C29.0172 40.3372 28.1592 41.0136 28.2902 41.7228C28.4212 42.4342 28.8229 42.3861 29.0718 42.3774C29.3185 42.3687 29.9472 41.6661 30.0105 42.0305C30.0738 42.3949 30.2005 42.6807 29.8053 43.475C29.4102 44.2693 30.4472 44.4504 31.2855 44.2562C31.6501 44.1711 31.2571 45.1269 31.8051 46.1437C32.353 47.1606 34.1345 48.4502 34.8244 49.4911C35.5142 50.5297 35.1627 50.2308 34.486 50.2308C33.8092 50.2308 31.3706 50.2832 29.8053 50.7261C28.2378 51.1691 26.9891 51.8194 26.9891 51.8194C26.9891 51.8194 24.4959 54.9288 24.2492 55.494C24.0025 56.0614 23.996 56.5283 22.9612 56.489C21.9264 56.4498 17.5077 56.4454 17.0645 49.6984C16.6214 42.9513 14.5561 47.4224 14.2352 49.9253C13.9121 52.4282 14.2024 42.8619 12.6371 41.1271C11.0718 39.3923 7.24479 36.3483 9.27511 31.3513C11.3054 26.3565 10.8753 24.3118 9.89949 22.5225C8.92363 20.7332 8.51756 19.3825 10.3798 17.5015C12.242 15.6206 18.8351 11.4309 28.4649 11.2236C32.1194 11.3677 32.6347 14.0604 33.4315 16.5196C34.2284 18.9788 34.2567 20.1571 36.6626 21.3835C39.0684 22.6098 43.2644 23.6485 45.3252 25.2763C47.3861 26.9042 47.862 27.5457 47.2922 30.5025C46.7224 33.4592 45.1506 36.5796 45.3318 39.137C45.513 41.6944 45.8055 42.6305 46.9539 43.7761C48.1022 44.9217 49.1173 45.62 49.8727 47.0406C50.6281 48.4611 51.3616 49.1921 51.486 50.4119C51.6105 51.6317 50.5276 54.7848 50.4971 54.1586C50.4665 53.5323 46.5434 54.8568 44.1638 54.8481C41.7864 54.8394 41.6663 55.1492 41.0397 55.4089C40.4132 55.6686 38.7955 54.7041 39.6731 53.6632C40.5507 52.6224 48.3467 50.1304 47.5215 47.6821C46.6941 45.2338 45.7182 42.9993 43.3822 41.917C41.0463 40.8347 40.1403 40.0797 39.2648 40.6012C38.3894 41.1227 34.3768 43.5863 33.1062 43.3855C33.652 42.3447 37.824 34.487 38.265 34.1815C38.7038 33.876 39.1317 34.7466 40.1556 34.5917C41.1773 34.4346 41.8802 33.5487 42.4544 31.8968C43.0264 30.245 42.8867 28.2636 42.2798 27.5632C41.6729 26.8627 40.5944 27.3428 40.339 27.7596C40.0835 28.1763 38.4309 29.6754 38.4178 30.317C38.4047 30.9585 38.2977 34.751 37.1341 37.0247C35.9705 39.2985 36.0775 39.4425 35.8133 39.1348C35.5492 38.8272 36.3897 30.581 35.3068 28.0825C34.4336 26.8343 28.9932 21.1369 28.9932 21.1369V21.1325Z" fill="#BD9AF1"/>
<path d="M23.4109 14.7934C22.9742 14.8567 25.7032 14.4312 26.8733 15.4982C28.0435 16.5652 32.6586 22.6358 34.6889 24.4863C36.7193 26.3367 38.9461 27.0786 39.7844 26.8822C40.6249 26.6858 38.1645 28.8963 36.6603 28.3464C35.1561 27.7987 31.6653 24.3248 29.8467 22.099C28.0304 19.8733 23.9086 14.7192 23.4087 14.7912L23.4109 14.7934Z" fill="#D3BCF6"/>
<path d="M26.3909 41.8383C26.8668 41.8623 27.1943 42.1613 27.1069 42.3228C27.0196 42.4842 26.6332 42.6566 26.249 42.5104C25.8669 42.3642 25.7272 41.8056 26.3887 41.8362L26.3909 41.8383Z" fill="#D3BCF6"/>
<path d="M26.5568 40.8019C26.4586 40.7801 26.0962 40.3153 25.784 39.9858C25.4718 39.6563 25.474 40.7124 25.6836 41.0201C25.8932 41.3278 26.5568 40.7997 26.5568 40.7997V40.8019Z" fill="#D3BCF6"/>
<path d="M15.4992 18.8717C15.4992 18.8717 14.6761 18.7343 14.3639 20.1657C14.0518 21.5972 13.6086 24.1742 13.1414 25.5533C12.6742 26.9324 10.8251 32.0843 11.6569 34.7116C12.4908 37.341 15.0145 37.7796 16.8636 36.6886C16.8636 36.6886 15.1411 37.2363 14.1544 34.7116C13.1676 32.1869 13.8444 29.169 14.7285 27.011C15.6127 24.8507 15.4992 18.8717 15.4992 18.8717Z" fill="#D3BCF6"/>
<path d="M22.1468 33.2693C22.1468 33.2693 20.9265 31.9709 20.5313 31.9251C20.1362 31.8793 19.3044 33.4024 19.8786 33.7057C20.4549 34.0112 22.1447 33.2671 22.1447 33.2671L22.1468 33.2693Z" fill="#D3BCF6"/>
<path d="M22.0203 35.7001C21.5007 35.9467 21.2693 36.4595 21.4112 36.861C21.5531 37.2625 22.5246 38.8947 22.8106 38.6067C23.0966 38.3187 22.9132 35.842 22.8935 35.7001C22.8739 35.5583 22.3936 35.5234 22.0203 35.7001Z" fill="#D3BCF6"/>
<path d="M26.2598 26.6792C25.1726 27.3142 24.7164 28.1848 24.9128 28.4772C25.1071 28.7674 26.4323 29.745 26.9322 29.8999C27.4322 30.0549 30.1698 25.4507 29.6109 25.4114C29.0521 25.3721 27.1964 26.1336 26.2598 26.6792Z" fill="#BD9AF1"/>
<path d="M30.1043 53.1873C30.53 53.2506 32.9555 54.0209 34.5012 53.9598C35.4683 53.9227 36.5206 53.6914 37.182 53.8376C37.5772 53.9248 37.7671 54.2522 37.8763 54.5358C38.1623 55.2777 37.706 55.8822 36.8022 55.6269C36.0861 55.4239 34.0907 54.9526 32.1979 54.6558C30.2877 54.3547 30.1523 54.3263 29.648 54.2653C29.1437 54.2042 29.5192 53.1 30.1043 53.1895V53.1873Z" fill="#BD9AF1"/>
<path d="M19.7781 19.4939C19.8457 18.8458 19.9811 18.2195 20.1819 17.5933C20.3959 16.9757 20.6579 16.3516 21.1032 15.7887C21.3281 15.5094 21.601 15.2431 21.9481 15.038C22.2909 14.8329 22.7209 14.7107 23.1401 14.7194C23.354 14.7194 23.544 14.75 23.7579 14.8002C23.9697 14.8569 24.1574 14.9333 24.3255 15.0162C24.6617 15.1864 24.9543 15.3762 25.225 15.5857C26.2947 16.4149 27.1571 17.3598 27.9976 18.3199C28.8359 19.2778 29.6109 20.2772 30.3925 21.2635L32.7001 24.229C33.4794 25.1913 34.2392 26.1994 35.0862 27.009C35.501 27.3974 35.9376 27.7182 36.4376 27.8557C36.9288 28.004 37.468 27.9713 37.9942 27.788C39.0508 27.4083 40.0026 26.5377 40.7536 25.5928L40.7624 25.5819C40.8257 25.5034 40.9392 25.4903 41.0178 25.5535C41.0877 25.6103 41.1051 25.7063 41.0636 25.7827C40.7515 26.3587 40.3803 26.8846 39.9328 27.369C39.4874 27.8513 38.9613 28.2855 38.3282 28.5888C38.0116 28.7394 37.6689 28.8551 37.3043 28.9118C36.9397 28.9642 36.562 28.9511 36.1974 28.8791C35.4639 28.7416 34.8133 28.3466 34.2894 27.9146C33.772 27.4803 33.3201 27.0199 32.8791 26.5529C32.4381 26.0882 32.0167 25.6103 31.6063 25.128C30.7876 24.1614 29.9777 23.1969 29.1961 22.2171C28.4124 21.2395 27.6112 20.2816 26.8165 19.3324C26.4192 18.8589 26.0131 18.3919 25.6005 17.9446C25.1944 17.4907 24.7774 17.0477 24.343 16.668C24.1247 16.4826 23.9107 16.2971 23.6968 16.164C23.592 16.0942 23.4894 16.044 23.4021 16.0069C23.3126 15.9763 23.1925 15.9458 23.0921 15.937C22.8847 15.9174 22.6795 15.937 22.4677 16.0309C22.2581 16.1203 22.0485 16.2709 21.8564 16.4607C21.47 16.8426 21.136 17.3445 20.8609 17.8791C20.5793 18.4137 20.3348 18.9876 20.1339 19.5659V19.5724C20.099 19.6684 19.9942 19.7186 19.8981 19.6859C19.8174 19.6575 19.7672 19.5768 19.7759 19.4939H19.7781Z" fill="#7B35E3"/>
<path d="M18.9508 36.5208C18.4137 36.8044 17.8417 36.9703 17.2283 37.0095C16.6192 37.0554 15.9795 36.9375 15.4054 36.6604C14.829 36.3855 14.3378 35.9534 13.9558 35.4646C13.7615 35.2224 13.5934 34.9627 13.4296 34.6943C13.2768 34.4216 13.1458 34.1379 13.0388 33.8433C12.6 32.665 12.5695 31.3994 12.7157 30.221C12.8642 29.034 13.1851 27.9015 13.5759 26.817C13.768 26.2736 13.9732 25.739 14.1806 25.2131L14.34 24.8225C14.388 24.6982 14.4339 24.5912 14.471 24.469C14.5518 24.2312 14.6172 23.9846 14.6718 23.7293C14.888 22.7037 14.9447 21.5996 15.0495 20.4605C15.1041 19.8866 15.1609 19.3062 15.3661 18.6799C15.4752 18.3723 15.6237 18.0209 15.9686 17.7416C16.3266 17.4623 16.748 17.4187 17.0951 17.4623C17.7937 17.5649 18.3089 17.8922 18.7892 18.2304C19.2673 18.5774 19.6887 18.9658 20.0838 19.3957C20.1515 19.4699 20.1471 19.5855 20.0729 19.6532C20.0074 19.7142 19.9092 19.7164 19.8393 19.6641L19.8328 19.6597C19.3961 19.328 18.9246 19.0247 18.4508 18.7694C17.9771 18.5272 17.4662 18.3068 17.0318 18.309C16.5843 18.3286 16.4751 18.4835 16.3441 18.9702C16.2393 19.4306 16.2262 19.9826 16.2066 20.5304C16.1826 21.6367 16.2022 22.7954 15.9948 23.9846C15.9446 24.2814 15.8791 24.5825 15.7896 24.8815C15.7503 25.0298 15.6914 25.1869 15.6433 25.3266L15.4971 25.7237C15.2984 26.2474 15.1063 26.7668 14.9316 27.2883C14.7548 27.8076 14.5976 28.3313 14.4622 28.8529C14.3182 29.3722 14.2046 29.8959 14.1239 30.4196C14.0496 30.9433 13.9951 31.4627 13.9994 31.9776C14.0103 32.4904 14.0627 32.9989 14.1828 33.4855C14.4273 34.4521 14.9818 35.3948 15.8092 35.9207C16.6345 36.4553 17.7828 36.512 18.7958 36.1934L18.8132 36.1869C18.9093 36.1563 19.0097 36.2109 19.0403 36.3047C19.0665 36.3898 19.0272 36.4793 18.953 36.5186L18.9508 36.5208Z" fill="#7B35E3"/>
<path d="M20.1187 36.6169C21.2976 38.6855 22.5944 40.728 24.1837 42.4496C24.9783 43.3116 25.8494 44.0666 26.8711 44.3677C27.8863 44.7059 28.9997 44.5488 30.0258 44.1517C31.0518 43.7458 32.0386 43.1043 32.8944 42.3689C33.6629 41.6597 34.3178 40.6581 34.9072 39.6587C35.4967 38.6462 36.0272 37.5857 36.5271 36.51C37.0249 35.432 37.5663 34.3759 38.3872 33.4179H38.3893C38.457 33.335 38.5793 33.3241 38.6601 33.3939C38.7059 33.4332 38.7299 33.4921 38.7277 33.5489C38.671 34.8276 38.2649 35.9797 37.7453 37.0817C37.2257 38.1814 36.6712 39.2703 36.0447 40.3308C35.405 41.3869 34.7413 42.4365 33.7174 43.3399C32.7328 44.1451 31.6631 44.815 30.4427 45.2689C29.8293 45.4806 29.1831 45.6268 28.5172 45.6617C27.8513 45.7031 27.168 45.6006 26.5393 45.3758C25.9084 45.1532 25.3211 44.815 24.8343 44.3851C24.3343 43.9705 23.9195 43.5123 23.5178 43.0388C22.7275 42.0874 22.0617 41.0618 21.4482 40.0144C20.8347 38.9648 20.278 37.8934 19.7956 36.7784C19.7563 36.6867 19.7978 36.5798 19.8894 36.5383C19.9746 36.5012 20.0728 36.5361 20.1187 36.6147V36.6212V36.6169Z" fill="#7B35E3"/>
<path d="M43.0155 25.9113C43.4892 26.2321 43.8276 26.7056 43.9914 27.2664C44.0721 27.5457 44.1136 27.836 44.0983 28.1305C44.0831 28.4164 44.0416 28.6913 43.9848 28.9532C43.749 29.9962 43.3539 30.9345 43.0701 31.8619C42.9959 32.091 42.9304 32.318 42.878 32.5384C42.8168 32.7937 42.7448 33.0773 42.6378 33.3436C42.4282 33.876 42.092 34.4346 41.5135 34.7881C40.9415 35.1482 40.2058 35.2049 39.6142 34.9387C39.3238 34.8121 39.088 34.6288 38.8894 34.4259C38.6885 34.2208 38.5335 33.9982 38.4069 33.7407C38.3611 33.6491 38.4004 33.54 38.492 33.4941C38.5554 33.4636 38.6296 33.4723 38.682 33.5116L38.6994 33.5247C39.0815 33.804 39.5116 34.0397 39.8914 34.1051C40.2604 34.1662 40.6228 34.0615 40.8869 33.8564C41.1555 33.6447 41.3738 33.3043 41.5375 32.9071C41.6227 32.7064 41.6772 32.5013 41.7406 32.2678C41.8082 31.9972 41.889 31.7419 41.9763 31.4931C42.1575 30.9978 42.3606 30.533 42.5527 30.0682C42.7513 29.61 42.95 29.1561 43.1028 28.7066C43.2644 28.2527 43.3648 27.8403 43.3146 27.4083C43.2687 26.9849 43.081 26.5332 42.7906 26.1972L42.7732 26.1776C42.7077 26.1012 42.7164 25.9877 42.7928 25.9223C42.8561 25.8677 42.9456 25.8655 43.0133 25.9092L43.0155 25.9113Z" fill="#7B35E3"/>
<path d="M49.3356 55.7059C50.0451 54.6585 50.5931 53.4998 50.7896 52.2996C50.9817 51.0973 50.7612 49.8841 50.2154 48.8083C49.6806 47.7238 48.8968 46.7571 48.0388 45.8363C47.1831 44.9089 46.2509 44.036 45.3798 42.9908C44.9541 42.4606 44.5174 41.8954 44.2467 41.1295L44.1529 40.8393C44.1289 40.7367 44.1114 40.6298 44.0939 40.5251C44.0721 40.4159 44.0612 40.3134 44.0612 40.2261L44.0524 39.949C44.0262 39.5737 44.0677 39.2223 44.1005 38.8667C44.1332 38.511 44.2118 38.1815 44.2708 37.8367C44.3537 37.5094 44.4301 37.1755 44.5218 36.857C44.7052 36.2154 44.906 35.5913 45.1069 34.9803C45.5086 33.7562 45.9125 32.5626 46.1548 31.3864C46.395 30.2146 46.4757 29.0603 46.2028 28.0587L46.0697 27.6987C46.0238 27.5852 45.9911 27.439 45.9343 27.3626C45.8841 27.271 45.8382 27.1772 45.764 27.0899L45.6658 26.9546L45.5435 26.8237C45.2182 26.4745 44.7685 26.1559 44.2729 25.8701C43.2752 25.2984 42.1029 24.8554 40.9175 24.4146C39.7255 23.9695 38.4985 23.5331 37.2629 22.9941C36.036 22.4398 34.7632 21.8179 33.6323 20.7116C33.0756 20.1574 32.5757 19.4351 32.3115 18.5993C32.257 18.3899 32.1893 18.1804 32.1544 17.9665C32.126 17.7614 32.0954 17.5236 32.0801 17.3425L32.019 16.3932C31.9382 15.1625 31.8072 13.9406 31.4121 13.2488C31.22 12.8997 30.9536 12.675 30.5497 12.4677C30.1437 12.2691 29.6132 12.1425 29.0499 12.0727C27.9125 11.9243 26.6572 11.981 25.4128 12.0858C24.1641 12.2036 22.9022 12.3847 21.6535 12.6313C21.0291 12.7513 20.4003 12.8757 19.7803 13.0219C19.1756 13.1877 18.5556 13.3187 17.9662 13.5303L17.0776 13.8358L16.2109 14.1959C15.9184 14.3093 15.6367 14.4446 15.3595 14.5865C15.0844 14.7305 14.7941 14.8505 14.5277 15.012C13.434 15.6033 12.4363 16.3518 11.5652 17.1963C11.3469 17.4057 11.1591 17.6436 10.9539 17.864C10.7814 18.1062 10.5828 18.3331 10.4343 18.5819C10.1069 19.0663 9.87108 19.5987 9.75319 20.0919C9.72481 20.2163 9.69643 20.3385 9.70298 20.4432L9.69425 20.6069C9.70516 20.6483 9.71389 20.6898 9.72044 20.7313L9.72699 20.7945C9.73354 20.8207 9.74664 20.8556 9.75756 20.8862L9.81868 21.0738C9.87108 21.196 9.91693 21.3204 9.98242 21.4426C10.216 21.9314 10.5828 22.4071 10.9605 22.9832C11.3403 23.5483 11.7136 24.2728 11.849 25.0714C11.8708 25.1696 11.8752 25.27 11.8883 25.3682C11.8992 25.4708 11.9145 25.5537 11.9101 25.6977L11.9058 25.8919L11.8883 26.0512C11.8774 26.1603 11.8621 26.2607 11.8425 26.3502C11.7748 26.7277 11.6853 27.0528 11.5958 27.3779C11.2355 28.6588 10.8338 29.8481 10.5107 31.0526C10.2007 32.2527 9.93221 33.4507 9.86453 34.6116C9.80122 35.7681 9.93876 36.8853 10.4343 37.7363C10.4889 37.8476 10.5653 37.9436 10.6374 38.044C10.7029 38.1487 10.7902 38.236 10.8731 38.3277C10.9495 38.4237 11.0456 38.5044 11.1417 38.5874L11.2858 38.7161L11.4822 38.8819C12.0127 39.314 12.5258 39.781 12.9951 40.3047C13.2287 40.5687 13.458 40.8349 13.661 41.1317C13.8793 41.411 14.0583 41.7296 14.2417 42.0394C14.5823 42.6788 14.8661 43.364 15.0167 44.0841C15.3355 45.5286 15.1368 46.9819 14.8486 48.2562C14.5692 49.5371 14.2374 50.7569 13.9885 51.9985C13.7483 53.2358 13.5278 54.4817 13.4929 55.7234C13.4645 56.9497 13.5606 58.2393 14.2897 59.2213L14.2985 59.2322C14.3574 59.3129 14.3421 59.4264 14.2614 59.4875C14.1893 59.542 14.0889 59.5333 14.0278 59.4722C13.53 58.9921 13.2069 58.3659 12.9886 57.7265C12.7834 57.0806 12.6786 56.4151 12.6196 55.7517C12.5192 54.4228 12.5978 53.1048 12.7485 51.8065C12.8925 50.5081 13.124 49.2185 13.3183 47.9769C13.5169 46.7397 13.554 45.5722 13.2746 44.503C13.1371 43.9662 12.8969 43.4665 12.6153 42.9843C12.4581 42.7508 12.314 42.5108 12.1241 42.2926C11.9538 42.0656 11.7551 41.854 11.5521 41.6445C11.1526 41.2233 10.7029 40.8327 10.2269 40.4661L9.8296 40.1432C9.67896 40.0188 9.52833 39.8922 9.39516 39.7439C9.25762 39.5998 9.1179 39.4602 9.00438 39.2965C8.8843 39.1394 8.75986 38.9823 8.66599 38.8099C8.24901 38.1357 7.99358 37.3894 7.85823 36.6562C7.72942 35.9208 7.71196 35.1964 7.74907 34.4937C7.82548 33.0863 8.13549 31.7639 8.51317 30.4918C8.70092 29.8546 8.90613 29.2305 9.11571 28.6174C9.32966 28.0064 9.55234 27.4019 9.74664 26.8171C9.8427 26.5269 9.93439 26.2345 9.99334 25.9814C10.0108 25.9137 10.0217 25.8548 10.0304 25.8068L10.0457 25.7261C10.0457 25.7108 10.0457 25.6955 10.0479 25.6803C10.0566 25.6628 10.0479 25.5864 10.0479 25.5275C10.0435 25.4664 10.0479 25.4053 10.037 25.3464C9.9846 24.8685 9.80122 24.4059 9.49995 23.8844C9.20959 23.365 8.81008 22.7955 8.52409 22.1082C8.44768 21.9401 8.39091 21.759 8.3276 21.5823L8.25338 21.3073C8.24246 21.2593 8.22936 21.2179 8.21845 21.1677L8.19443 20.9909C8.18133 20.8731 8.16823 20.7553 8.16169 20.6374C8.16823 20.5305 8.17915 20.4258 8.18788 20.321C8.20098 20.1028 8.25119 19.9152 8.30577 19.7275C8.52627 18.9856 8.87775 18.3484 9.29692 17.7898C9.49558 17.4996 9.73573 17.2508 9.95404 16.9824C10.1964 16.7424 10.4321 16.4914 10.681 16.2623C11.6787 15.3415 12.7943 14.5887 13.9666 13.9668C15.1368 13.347 16.3506 12.8124 17.6016 12.4087C17.9094 12.2909 18.2238 12.1949 18.5403 12.1054L19.4834 11.8196L21.3566 11.3024C22.6119 10.9751 23.8694 10.6347 25.1639 10.3685C26.4585 10.1044 27.775 9.87533 29.2071 9.89278C29.9232 9.91679 30.6786 9.99752 31.4645 10.2856C32.2439 10.5649 33.0451 11.1715 33.5188 11.9243C34.0122 12.6728 34.2218 13.4583 34.3549 14.1697C34.4859 14.8898 34.5362 15.5684 34.5754 16.2274L34.6213 17.2028L34.654 17.5345C34.6671 17.6392 34.7043 17.7352 34.7217 17.8378C34.8374 18.2328 35.071 18.6103 35.416 18.9681C36.1124 19.686 37.1603 20.2774 38.2628 20.7858C39.374 21.2964 40.5638 21.7416 41.7689 22.2216C42.974 22.7148 44.2074 23.2101 45.4235 23.9498C46.0282 24.323 46.6351 24.7616 47.1721 25.3682L47.3708 25.5973L47.5498 25.8548C47.6743 26.0207 47.7747 26.2149 47.8707 26.4091C47.9821 26.6076 48.0192 26.7822 48.0869 26.9677L48.2659 27.5176C48.6283 29.0254 48.4318 30.5005 48.1022 31.8207C47.7681 33.1496 47.29 34.3781 46.8403 35.5761C46.3971 36.7697 45.943 37.9502 45.7531 39.0892C45.7116 39.3707 45.6614 39.6566 45.6701 39.925C45.6723 40.0515 45.6483 40.2196 45.6701 40.3112L45.6876 40.4727L45.7335 40.6429C45.8579 41.1055 46.1788 41.6096 46.5325 42.0918C47.9995 44.0339 50.0583 45.8625 51.1214 48.4002C51.6563 49.6571 51.8004 51.1082 51.4795 52.4284C51.1542 53.7507 50.449 54.9073 49.6325 55.9176C49.5692 55.9961 49.4557 56.007 49.3771 55.9437C49.3029 55.8848 49.2898 55.7757 49.3422 55.6994L49.3356 55.7059Z" fill="#7B35E3"/>
<path d="M31.281 44.6621C31.6718 45.2469 32.1041 45.8361 32.5473 46.3947C32.9992 46.9577 33.4598 47.4836 33.9859 47.9767C34.5667 48.5266 34.9924 49.1965 35.2937 49.9035C35.5796 50.6149 35.7849 51.3699 35.6866 52.1707C35.6735 52.2711 35.584 52.3409 35.4836 52.3278C35.3897 52.3169 35.322 52.2362 35.3242 52.1445V52.1271C35.3395 51.4593 35.0884 50.7611 34.7631 50.1545C34.4269 49.5457 33.9859 48.9979 33.4533 48.5877C32.8595 48.136 32.2918 47.6123 31.7701 47.0799C31.2439 46.5409 30.7484 45.9932 30.2615 45.404C30.0388 45.1356 30.0781 44.7363 30.3467 44.5159C30.6152 44.2955 31.0147 44.3326 31.2352 44.601C31.2483 44.6185 31.2614 44.6338 31.2723 44.6512L31.2767 44.6599L31.281 44.6621Z" fill="#7B35E3"/>
<path d="M32.7197 47.307C32.4512 47.7761 32.1477 48.2104 31.8006 48.6271C31.46 49.0417 31.0605 49.4432 30.6086 49.7749C29.755 50.399 28.9298 50.9838 28.122 51.6013C27.323 52.2211 26.5567 52.8669 25.8625 53.5521C25.1704 54.246 24.5722 54.9727 24.2404 55.9197L24.2339 55.9415C24.2011 56.0375 24.0963 56.0877 24.0003 56.055C23.9326 56.031 23.8867 55.9699 23.878 55.9023C23.8169 55.348 23.8846 54.737 24.116 54.222C24.3146 53.6809 24.6312 53.2139 24.9587 52.7644C25.6376 51.8828 26.4803 51.1889 27.3448 50.5627C28.2072 49.9342 29.135 49.3974 30.0344 48.9021C30.8728 48.4526 31.65 47.7587 32.4293 47.0844L32.4359 47.08C32.5123 47.0146 32.628 47.0211 32.6957 47.0997C32.7481 47.1608 32.7546 47.2459 32.7153 47.3113L32.7197 47.307Z" fill="#7B35E3"/>
<path d="M39.649 34.378C40.5419 35.5498 41.3541 36.7434 42.2055 37.9065C42.6203 38.4956 43.0569 39.0673 43.4892 39.6456C43.9193 40.2282 44.3755 40.7847 44.8078 41.3913L44.8122 41.3978C44.8711 41.4807 44.8515 41.5964 44.7685 41.6553C44.7052 41.7011 44.6244 41.699 44.5633 41.6597C43.928 41.2538 43.3364 40.7759 42.8124 40.2391C42.2775 39.7111 41.7951 39.1328 41.3519 38.5284C40.9153 37.9196 40.5092 37.2889 40.1686 36.6212C39.8237 35.9579 39.5224 35.2705 39.3238 34.5329C39.2976 34.4348 39.3543 34.3322 39.4547 34.306C39.529 34.2864 39.6054 34.3147 39.649 34.3715L39.6534 34.3758L39.649 34.378Z" fill="#7B35E3"/>
<path d="M16.604 36.9966C17.0057 37.9894 17.2283 39.0194 17.4008 40.0602C17.4794 40.5817 17.5405 41.1054 17.5864 41.6335C17.6213 42.1594 17.641 42.6896 17.6497 43.2177C17.6584 43.748 17.63 44.276 17.5973 44.8041L17.5056 46.3141C17.4401 47.3048 17.451 48.2911 17.4816 49.2621C17.5886 51.1845 17.9291 53.1288 18.9814 54.5384C19.0425 54.6323 19.1233 54.7021 19.191 54.7872C19.263 54.8679 19.3329 54.9552 19.4137 55.0207C19.4944 55.0883 19.5687 55.1669 19.6473 55.2389L19.9049 55.4287C20.2607 55.6731 20.6711 55.8499 21.1121 55.9852C21.9985 56.2383 23.0158 56.2623 24.0004 56.1248L24.0441 56.1183C24.1423 56.1052 24.2318 56.1728 24.2471 56.271C24.2602 56.3583 24.2056 56.4412 24.1227 56.4674C23.1032 56.7882 22.04 56.8885 20.9855 56.7183C20.4616 56.6245 19.9507 56.4499 19.4792 56.1946C19.001 55.9459 18.6015 55.5727 18.2435 55.1865C17.5427 54.3835 17.0821 53.4081 16.7983 52.4043C16.5057 51.4006 16.3616 50.3641 16.3005 49.3298C16.2416 48.2933 16.2656 47.2568 16.342 46.2268C16.4206 45.1925 16.5603 44.1822 16.6083 43.161C16.7066 41.1273 16.6323 39.0608 16.2481 37.0751C16.2285 36.9769 16.294 36.8809 16.3922 36.8634C16.4795 36.846 16.5625 36.894 16.5952 36.9725L16.604 36.9944V36.9966Z" fill="#7B35E3"/>
<path d="M21.4658 31.6417C22.0312 32.1392 22.5726 32.6499 23.0529 33.2521C23.1708 33.4049 23.2865 33.562 23.3825 33.7431C23.4852 33.9133 23.5659 34.1337 23.5834 34.3737C23.5921 34.808 23.507 35.1767 23.4415 35.5499L23.2275 36.6366C23.1599 36.9857 23.0987 37.3414 23.0966 37.6163C23.1075 37.756 23.114 37.7822 23.1621 37.8694C23.2144 37.9436 23.304 38.0331 23.424 38.1116C23.6642 38.2797 23.996 38.4084 24.3235 38.559L24.3431 38.5677C24.437 38.6113 24.4785 38.7226 24.4348 38.8165C24.4086 38.871 24.3606 38.9081 24.306 38.9212C23.8978 39.0129 23.4917 38.9954 23.0638 38.8383C22.8564 38.7532 22.6337 38.6266 22.4591 38.4084C22.2713 38.2055 22.1884 37.8563 22.1949 37.6294C22.2015 37.1624 22.3172 36.7937 22.4307 36.4271C22.553 36.0648 22.6883 35.7201 22.8128 35.3775C22.935 35.0393 23.0463 34.6858 23.066 34.3803C23.0704 34.1293 22.887 33.7998 22.6927 33.514C22.2866 32.9314 21.7648 32.4011 21.2256 31.9189L21.2212 31.9145C21.147 31.8468 21.1405 31.7334 21.206 31.657C21.2736 31.5828 21.3872 31.5763 21.4614 31.6417H21.4658Z" fill="#7B35E3"/>
<path d="M24.8146 41.3215C24.7687 41.3761 25.356 41.4721 25.9432 41.5092C26.5305 41.5485 26.9802 41.8038 27.2597 41.6881C27.5391 41.5725 28.1897 40.9244 28.6634 40.584C29.135 40.2436 29.9144 39.7286 30.0999 39.4188C30.2855 39.1089 29.9537 39.0151 29.6284 39.2944C29.3031 39.5737 28.6372 39.7133 27.8797 39.8137C27.1221 39.9141 26.9933 40.0734 26.7728 40.5491C26.5698 40.9899 26.0153 40.5164 25.6594 40.7106C25.3036 40.9048 25.2272 41.1819 24.9477 41.1601C24.6683 41.1383 24.8167 41.3215 24.8167 41.3215H24.8146Z" fill="#7B35E3"/>
<path d="M27.1201 43.1021C27.1201 43.1021 28.5523 43.6432 29.8054 41.9106L27.1201 43.1021Z" fill="#7B35E3"/>
<path d="M32.1958 28.9293C31.4601 29.4618 29.8991 30.6772 27.7138 30.6576C27.5326 30.6576 27.3645 30.7623 27.299 30.9303C27.0349 31.5893 27.1025 32.7742 26.6113 33.3568C26.751 33.4659 27.7728 32.4294 28.0347 32.1807C28.2967 31.9341 29.2879 32.4665 30.851 31.0241C31.7613 30.184 32.2089 29.5294 32.425 29.1279C32.5036 28.9817 32.329 28.8311 32.1958 28.9293Z" fill="#7B35E3"/>
<path d="M21.8761 33.1996C21.1643 33.3742 19.8632 33.4854 19.0969 33.3502C18.5883 33.4571 18.1298 34.8318 17.4749 35.2508C17.632 35.3075 18.6297 35.0347 19.0402 34.714C19.2563 34.5459 20.3217 34.607 21.0989 34.4434C21.8018 34.295 22.2232 33.9197 22.3585 33.7626C22.5397 33.5531 22.3716 33.2912 22.2254 33.1254C22.138 33.0272 22.0049 33.169 21.8782 33.2018L21.8761 33.1996Z" fill="#7B35E3"/>
<path d="M24.4325 28.4426C24.2754 27.8338 24.8648 26.2518 26.4126 25.6539C27.9605 25.056 30.9099 24.4777 31.0955 24.6436C31.281 24.8094 27.6701 26.4176 26.4126 27.1792C25.153 27.9429 24.4827 28.6412 24.4325 28.4404V28.4426Z" fill="#7B35E3"/>
<path d="M20.8936 29.8087C20.9941 29.8218 21.0486 29.6996 20.9722 29.6319C20.564 29.2741 19.5772 28.6369 18.7694 28.6129C17.7281 28.5824 15.5122 29.7236 15.4991 29.9331C15.4882 30.088 16.6038 29.7781 18.3983 29.717C19.6427 29.6734 20.4919 29.7563 20.8936 29.8087Z" fill="#7B35E3"/>
<path d="M19.99 19.5026C20.4332 19.1403 20.9179 18.837 21.4287 18.5839C21.9352 18.3221 22.4788 18.13 23.0268 17.9751C23.5769 17.8158 24.1467 17.7307 24.7187 17.7002C25.2907 17.6631 25.8627 17.7242 26.4215 17.8245C26.4543 17.8311 26.4761 17.8616 26.4696 17.8944C26.4652 17.9249 26.4368 17.9445 26.4084 17.9445H26.4041C25.843 17.9249 25.2885 17.8987 24.7362 17.9664C24.4589 17.9795 24.186 18.034 23.9131 18.0711C23.6424 18.1322 23.3695 18.1802 23.1032 18.2566C22.5661 18.3941 22.0444 18.5883 21.5335 18.8087C21.027 19.0356 20.5271 19.2931 20.0642 19.6008H20.0621C20.0337 19.6204 19.9966 19.6139 19.9791 19.5855C19.9616 19.5593 19.9682 19.5244 19.9922 19.5047L19.99 19.5026Z" fill="#7B35E3"/>
<path d="M19.9461 19.6706C19.5925 19.6532 19.2322 19.6684 18.8829 19.7012C18.5315 19.7426 18.1843 19.7972 17.8525 19.9041C17.525 20.0176 17.2085 20.1572 16.929 20.3558C16.6474 20.5544 16.4225 20.8119 16.2151 21.1021V21.1064C16.1933 21.1326 16.154 21.1392 16.1278 21.1195C16.1038 21.1021 16.0973 21.0737 16.106 21.0475C16.2457 20.7028 16.4706 20.3842 16.7653 20.142C17.0666 19.9107 17.4093 19.7383 17.7695 19.6335C18.1298 19.5288 18.4987 19.4721 18.8677 19.4633C19.2366 19.4524 19.6034 19.4742 19.9658 19.5506C19.9985 19.5572 20.0203 19.5899 20.0116 19.6226C20.0051 19.6532 19.9789 19.6728 19.9483 19.6706H19.9461Z" fill="#7B35E3"/>
<path d="M43.3995 17.3464C42.9956 17.2482 42.5764 17.2286 42.1594 17.2068C41.7315 17.185 41.2513 17.185 40.9478 17.4839C40.891 17.5406 40.8408 17.6127 40.8408 17.6912C40.8408 17.8221 40.9631 17.9116 41.0701 17.9858C41.6246 18.3655 42.083 18.8674 42.5699 19.3321C43.0567 19.7969 43.5916 20.2377 44.2291 20.4494C44.6941 20.6043 46.4231 20.6676 46.0913 19.8013C45.8096 19.0637 45.2595 18.3808 44.6242 17.9203C44.2574 17.6541 43.8405 17.4534 43.3995 17.3464Z" fill="#7B35E3"/>
<path d="M44.2118 12.4543C44.2554 11.8652 44.3668 11.2651 44.6877 10.7698C44.7073 10.7392 44.7292 10.7087 44.7619 10.6934C44.8427 10.6585 44.9213 10.737 44.9737 10.8069C45.1723 11.0796 45.3732 11.3546 45.574 11.6273C45.7814 11.911 45.9888 12.1968 46.1416 12.5111C46.5259 13.3032 46.5324 14.2327 46.3381 15.0903C46.2246 15.5944 46.0434 16.0788 45.8382 16.5523C45.6919 16.8862 45.4823 17.4382 45.1003 16.9604C44.8187 16.6069 44.6811 16.0286 44.5545 15.6009C44.4104 15.1187 44.3078 14.6233 44.2489 14.1236C44.1834 13.5694 44.1703 13.0086 44.2118 12.4522V12.4543Z" fill="#7B35E3"/>
<path d="M38.6446 13.0019C38.5311 13.0019 38.4132 13.0019 38.3084 13.0456C38.2037 13.0892 38.112 13.1852 38.1076 13.2987C38.1032 13.4144 38.184 13.5147 38.2604 13.602C38.5202 13.8966 38.7822 14.1934 39.042 14.4879C39.4044 14.8982 39.7668 15.3106 40.1859 15.6597C40.3802 15.8212 40.5898 15.9718 40.8256 16.0634C41.0548 16.1551 41.3037 16.1878 41.5504 16.2205C42.3363 16.3231 43.1747 16.4038 43.8864 16.0525C44.4452 15.7776 43.9409 15.4132 43.668 15.1382C43.3493 14.8174 42.9978 14.5294 42.6245 14.2741C41.8713 13.7613 41.0221 13.3882 40.1335 13.1809C39.6467 13.0674 39.1468 13.0063 38.6468 12.9998L38.6446 13.0019Z" fill="#7B35E3"/>
<path d="M41.4108 10.1324C41.3671 9.30539 41.4326 8.40637 41.9631 7.77138C41.998 7.72992 42.0417 7.68628 42.0963 7.68628C42.1399 7.68628 42.1771 7.71246 42.212 7.74083C42.474 7.95686 42.618 8.27981 42.7534 8.59185C42.963 9.07409 43.1747 9.55852 43.2926 10.0691C43.4105 10.5797 43.4324 11.1253 43.2664 11.625C43.1289 12.0352 42.8735 12.3909 42.6202 12.74C42.5591 12.8251 42.4871 12.9168 42.3845 12.932C42.2404 12.9539 42.0832 12.5458 42.0111 12.4323C41.8671 12.2054 41.7579 11.9588 41.6749 11.7035C41.5068 11.1973 41.4413 10.6627 41.413 10.1346L41.4108 10.1324Z" fill="#7B35E3"/>
<path d="M39.1292 10.9638C38.2014 10.6801 37.2015 10.7762 36.2497 10.5972C35.8414 10.5209 35.4441 10.3943 35.0664 10.2197C35.1341 10.5514 35.3393 10.8438 35.5947 11.0664C35.8501 11.289 36.1558 11.4461 36.4658 11.5814C37.0356 11.8301 37.6316 12.0156 38.2429 12.1312C38.6271 12.2033 39.0244 12.2491 39.4087 12.1792C39.6139 12.1422 40.4107 11.889 40.3714 11.5835C40.3409 11.3479 39.3301 11.0249 39.1292 10.9616V10.9638Z" fill="#7B35E3"/>
<path d="M39.8018 10.3988C39.219 10.1915 38.7954 9.66994 38.5313 9.11132C38.0772 8.1512 38.0095 7.01214 38.361 6.01274C38.4177 5.85127 38.5247 5.66361 38.6972 5.66579C38.8085 5.66579 38.9002 5.74871 38.9723 5.83163C39.2058 6.10657 39.3325 6.45571 39.529 6.75684C39.684 6.99469 39.8804 7.20417 40.0354 7.44202C40.4764 8.11847 40.531 9.0284 40.173 9.75286C40.0988 9.90124 40.0092 10.0453 39.9678 10.2067C39.9263 10.3682 39.9459 10.558 40.066 10.6715" fill="#7B35E3"/>
<path d="M35.3655 6.98581C35.1581 6.68905 34.9486 6.39228 34.7892 6.06933C34.2827 5.04811 34.2958 3.85887 34.3198 2.71763C34.322 2.56488 34.3329 2.39468 34.4464 2.2943C34.608 2.1481 34.8722 2.23757 35.0381 2.37941C35.4813 2.76127 35.5817 3.39844 35.8284 3.92869C36.027 4.35638 36.3327 4.72952 36.5292 5.15722C36.8479 5.8533 36.8675 6.6825 36.6732 7.41787C36.6034 7.68408 36.4375 8.0594 36.11 7.87393C35.8065 7.69936 35.562 7.26294 35.3677 6.98363L35.3655 6.98581Z" fill="#7B35E3"/>
<path d="M35.6057 8.35628C34.1037 7.76929 32.4467 7.58382 30.853 7.82166C30.3749 7.89367 29.888 8.00714 29.4863 8.2799C30.2963 8.48066 31.104 8.68141 31.914 8.88216C32.6388 9.0611 33.3723 9.24221 34.1189 9.25312C34.5861 9.25967 35.0599 9.19639 35.4987 9.03055C35.6493 8.97381 36.0226 8.85816 36.1056 8.70978C36.2191 8.50684 35.7738 8.42392 35.6057 8.35846V8.35628Z" fill="#7B35E3"/>
<path d="M31.5996 5.04593C31.139 4.28875 30.9403 3.3919 30.9206 2.50597C30.9163 2.29431 30.9228 2.07392 31.0254 1.88844C31.128 1.70296 31.3529 1.56985 31.5538 1.63532C31.6433 1.66587 31.7175 1.73133 31.7808 1.80116C32.1257 2.18084 32.2393 2.71982 32.5536 3.12569C32.7152 3.33299 32.9226 3.49883 33.0798 3.71049C33.3243 4.04217 33.4182 4.46113 33.44 4.87355C33.4618 5.26851 33.4116 5.66128 33.4116 6.05843C33.4116 6.42065 33.4618 6.59959 33.0558 6.40101C32.451 6.10643 31.9489 5.61982 31.5996 5.04593Z" fill="#7B35E3"/>
<path d="M26.6417 5.61331C26.478 5.6635 26.3143 5.72024 26.1789 5.82279C26.0436 5.92535 25.9388 6.08246 25.941 6.25267C26.4605 6.36395 27.0063 6.19157 27.5325 6.26358C27.8643 6.3094 28.1765 6.44906 28.4952 6.5538C28.8271 6.6629 29.172 6.73273 29.5213 6.7611C29.8968 6.79165 30.2898 6.77419 30.626 6.59962C30.8661 6.47524 31.2001 6.1632 31.1565 5.85989C31.1128 5.5544 30.7308 5.49112 30.4862 5.44093C29.6632 5.27072 28.814 5.23581 27.98 5.33401C27.5281 5.38856 27.0784 5.48021 26.6439 5.61331H26.6417Z" fill="#7B35E3"/>
<path d="M29.2878 4.76448C28.4975 4.57682 27.7159 4.32588 27.0064 3.93092C26.2969 3.53596 25.6572 2.9948 25.2228 2.30744C25.1398 2.17433 25.0634 2.00195 25.1486 1.86884C25.2009 1.78811 25.2992 1.75101 25.3952 1.7401C25.7642 1.69864 26.0808 1.96922 26.406 2.14815C27.2509 2.61294 28.3359 2.48201 29.1655 2.97517C29.7113 3.29812 30.0824 3.86546 30.2746 4.4699C30.3422 4.68375 30.3924 4.91068 30.5147 5.09834C30.2571 5.18344 29.9536 5.11798 29.755 4.93251" fill="#7B35E3"/>
<path d="M27.7748 4.06396C29.9164 4.61167 31.9839 5.42559 33.9661 6.41845C35.9506 7.40694 37.8368 8.60491 39.5768 9.99708C40.4457 10.6975 41.26 11.4635 42.035 12.2686C42.7947 13.0891 43.4955 13.9663 44.1177 14.8959C44.7377 15.8276 45.2551 16.827 45.6852 17.8548C46.0978 18.8913 46.3947 19.9693 46.5716 21.0603C46.5759 21.093 46.5541 21.1236 46.5214 21.1301C46.4908 21.1345 46.4646 21.117 46.4537 21.0909C46.1 20.05 45.7114 19.0331 45.2115 18.073C44.7072 17.1151 44.1417 16.1942 43.5021 15.3301C42.2162 13.5997 40.6815 12.0679 39.0092 10.6997C37.3304 9.33591 35.5184 8.13357 33.6278 7.05344C31.7328 5.98639 29.7745 5.00445 27.7398 4.18398H27.7377C27.7071 4.17089 27.6918 4.13597 27.7049 4.10324C27.7158 4.07488 27.7464 4.0596 27.7769 4.06615L27.7748 4.06396Z" fill="#7B35E3"/>
<path d="M2.76492 25.3003C2.65795 23.9976 2.71471 22.6992 2.86971 21.4096C3.02253 20.12 3.28887 18.8435 3.64472 17.5931C3.98966 16.3406 4.43502 15.1121 4.99172 13.9381C5.51349 12.7467 6.19463 11.6316 6.92379 10.5646C6.96964 10.4969 7.06133 10.4795 7.12901 10.5253C7.19014 10.5668 7.20979 10.6497 7.17704 10.713L7.17267 10.7195C6.58759 11.8586 6.00688 12.9889 5.55279 14.176C5.30173 14.7586 5.12271 15.3717 4.89784 15.9631C4.71664 16.5719 4.51361 17.172 4.35861 17.7873C4.02896 19.0115 3.75825 20.2531 3.54866 21.5056C3.33472 22.756 3.16225 24.0237 3.05964 25.2894V25.2959C3.0531 25.3766 2.98105 25.4377 2.90027 25.4312C2.82823 25.4247 2.77147 25.3679 2.76492 25.2959V25.3003Z" fill="#7B35E3"/>
<path d="M3.05313 24.3511C3.26489 23.6332 3.40461 22.8935 3.64476 22.1843C3.8849 21.4751 4.24294 20.7834 4.80837 20.2946C4.8826 20.2313 4.96337 20.168 5.05725 20.1418C5.15112 20.1157 5.26464 20.1309 5.33014 20.2029C5.38253 20.2597 5.39563 20.3404 5.40436 20.4168C5.4262 20.6394 5.40437 20.8641 5.37817 21.0889C5.32577 21.5711 5.27556 22.0555 5.22316 22.5378C5.19697 22.7844 5.16859 23.0331 5.07471 23.2622C4.92408 23.6267 4.61189 23.9016 4.28005 24.1133C3.94603 24.3249 3.58145 24.482 3.24743 24.6915C3.15355 24.7504 3.05095 24.8748 2.95052 24.901C2.92432 24.7242 3.00292 24.5213 3.05313 24.3511Z" fill="#7B35E3"/>
<path d="M7.30572 12.0026C7.5939 11.7473 7.88425 11.4963 8.21172 11.2934C8.59595 11.0533 9.01948 10.8853 9.44083 10.7217C9.47576 10.7086 9.51505 10.6933 9.55217 10.702C9.60238 10.7151 9.63294 10.7631 9.65259 10.8133C9.74428 11.0403 9.67879 11.3043 9.55435 11.516C9.42991 11.7276 9.2509 11.9 9.08934 12.0833C8.6156 12.6288 8.2794 13.3184 7.6703 13.709C7.28826 13.9534 6.82761 14.0581 6.37352 14.0821C6.20324 14.0908 5.64435 14.237 5.58323 14.0254C5.52647 13.829 5.89978 13.4471 6.01331 13.3053C6.39535 12.8274 6.84508 12.4084 7.30354 12.0026H7.30572Z" fill="#7B35E3"/>
<path d="M5.74487 12.537C5.92389 11.7122 5.79945 10.8481 5.95882 10.0211C6.14002 9.08276 6.70327 8.22301 7.4892 7.67749C7.84505 8.86019 7.66385 10.1934 7.00454 11.2387C6.72729 11.6795 6.37144 12.0657 6.01995 12.4476" fill="#7B35E3"/>
<path d="M2.82386 23.175C2.76709 21.9159 2.39159 20.6721 1.7432 19.5898C1.65369 19.4392 1.54454 19.2821 1.37862 19.2275C1.31749 19.6967 1.2651 20.1637 1.21707 20.635C1.18432 20.9558 1.15594 21.2787 1.16904 21.6017C1.21052 22.7254 1.77376 23.8209 2.66448 24.5082C2.69723 24.5344 2.7409 24.5606 2.78019 24.5431C2.81731 24.5279 2.82822 24.4798 2.83477 24.4406C2.87188 24.194 2.91118 23.9474 2.94829 23.703" fill="#7B35E3"/>
<path d="M3.86514 19.2994C3.8957 19.055 3.98958 18.8237 4.09655 18.6033C4.70565 17.3399 5.75792 16.2947 7.02632 15.6968C7.13766 16.0415 7.07872 16.4147 7.01759 16.7725C6.95864 17.1108 6.90188 17.4468 6.84294 17.785C6.81456 17.9509 6.78399 18.1211 6.69449 18.2607C6.59406 18.4157 6.43251 18.5182 6.27532 18.6142C5.57235 19.0507 4.86938 19.4871 4.16641 19.9235C4.06162 19.989 3.95465 20.0544 3.84549 20.1112C3.74943 20.1592 3.62063 20.1984 3.53985 20.1243C3.50274 20.0893 3.48528 20.0391 3.47218 19.9911C3.41978 19.7969 3.40013 19.594 3.4176 19.3933" fill="#7B35E3"/>
<path d="M3.55514 18.3067C3.61408 17.4033 3.38922 16.4846 2.91985 15.7122C2.78449 15.4874 2.61857 15.267 2.38279 15.1492C2.15138 15.5179 2.1099 15.9762 2.14265 16.4104C2.17539 16.8447 2.27582 17.2724 2.3042 17.7066C2.34131 18.2936 2.25617 18.922 2.5509 19.4326C2.68407 19.6617 2.97442 19.8625 3.20147 19.725" fill="#7B35E3"/>
<path d="M4.12073 16.1899C3.71903 15.3978 3.56621 14.4814 3.69065 13.6042C3.81509 12.7248 4.21679 11.8869 4.8237 11.2388C4.91321 11.625 4.90229 12.0265 4.95687 12.4193C4.99398 12.6942 5.06384 12.9648 5.08131 13.2419C5.11624 13.8311 4.91539 14.405 4.71454 14.9592" fill="#7B35E3"/>
<path d="M4.86514 15.8104C5.07472 15.3761 5.54191 15.1383 5.97854 14.9332C6.39333 14.7368 6.81686 14.5382 7.27313 14.4836C7.34081 14.5884 7.25349 14.7215 7.16616 14.811C6.70334 15.2932 6.151 15.7296 5.49606 15.8715C5.22317 15.9304 4.9219 15.9435 4.69922 16.1137" fill="#7B35E3"/>
<path d="M36.7695 42.4805C38.1186 40.7981 38.9002 38.7687 39.5137 36.7241C39.6905 36.1371 39.8521 35.5479 40.0136 34.9566C40.066 34.7667 39.7713 34.686 39.7189 34.8758C39.1644 36.9008 38.5902 38.9542 37.5445 40.7915C37.2519 41.3065 36.9223 41.8018 36.5511 42.2644C36.4289 42.4172 36.645 42.6332 36.7673 42.4805H36.7695Z" fill="#7B35E3"/>
<path d="M20.6578 12.3784C19.8151 13.9451 19.7366 15.7563 19.6798 17.4932C19.6732 17.6896 19.9789 17.6896 19.9854 17.4932C20.04 15.8108 20.1055 14.0477 20.922 12.5311C21.0159 12.3588 20.7517 12.2038 20.6578 12.3762V12.3784Z" fill="#7B35E3"/>
<path d="M25.1312 13.5523C25.522 13.5195 25.8625 13.7159 26.1594 13.9559C26.476 14.2112 26.7685 14.5058 27.0545 14.796C27.644 15.3961 28.1941 16.0355 28.729 16.6857C29.8468 18.0452 30.9427 19.4243 32.0496 20.7924C32.6958 21.5911 33.3398 22.3919 33.986 23.1906C34.1104 23.3433 34.3244 23.1273 34.2021 22.9745C33.0363 21.53 31.8705 20.0854 30.7069 18.6431C29.6066 17.2793 28.5391 15.874 27.3121 14.6193C26.9912 14.292 26.6638 13.9603 26.3014 13.6788C25.9651 13.4191 25.5722 13.2118 25.1356 13.2489C24.9413 13.2642 24.9391 13.5719 25.1356 13.5544L25.1312 13.5523Z" fill="#7B35E3"/>
<path d="M35.1997 24.4016C35.8677 25.1697 36.6559 25.8265 37.5291 26.3502C37.6972 26.4528 37.8522 26.1866 37.6841 26.0862C36.8327 25.5756 36.0686 24.934 35.4158 24.1856C35.287 24.0372 35.0709 24.2532 35.1997 24.4016Z" fill="#7B35E3"/>
<path d="M34.9159 21.4841C35.9463 22.6515 36.9986 23.8364 38.3172 24.6896C38.9351 25.0889 39.6096 25.414 40.3213 25.6061C41.0549 25.8046 41.8037 25.8177 42.5569 25.809C43.4105 25.8003 44.3034 25.7763 45.098 26.1363C45.2749 26.2171 45.4321 25.953 45.253 25.8723C43.8471 25.2329 42.2905 25.6846 40.8191 25.4053C39.3237 25.1216 38.0334 24.2313 36.9462 23.2014C36.3044 22.5926 35.7171 21.9292 35.132 21.2659C35.001 21.1175 34.7849 21.3357 34.9159 21.4819V21.4841Z" fill="#7B35E3"/>
<path d="M19.9265 16.1685C19.3043 15.6099 18.5053 15.3262 17.6801 15.252C16.8592 15.1778 15.8746 15.252 15.2087 15.7845C15.0559 15.9067 15.2721 16.1227 15.4249 16.0005C15.7436 15.7452 16.154 15.6404 16.5514 15.5859C16.9247 15.5335 17.3046 15.5248 17.6779 15.5575C18.418 15.623 19.1515 15.8827 19.7082 16.3845C19.8545 16.5155 20.0706 16.2994 19.9243 16.1685H19.9265Z" fill="#7B35E3"/>
<path d="M13.5016 18.6168C13.2898 19.014 13.2309 19.4548 13.1806 19.8955C13.1217 20.4083 13.0737 20.9233 13.0344 21.4383C12.9558 22.4311 12.9187 23.4305 12.827 24.4212C12.7855 24.8751 12.7222 25.3268 12.5912 25.7654C12.458 26.2149 12.2419 26.6186 11.9712 27.0004C11.7289 27.343 11.4582 27.666 11.2333 28.0195C11.0783 28.2617 10.9451 28.5192 10.8207 28.7767C10.6569 29.1149 10.5063 29.4619 10.3862 29.8197C10.2924 30.1012 10.1941 30.4198 10.2247 30.7187C10.2443 30.9129 10.5522 30.9151 10.5303 30.7187C10.5041 30.4678 10.5827 30.2081 10.6569 29.9703C10.7574 29.6561 10.884 29.3506 11.0259 29.0516C11.1525 28.7832 11.2879 28.517 11.4429 28.2617C11.6415 27.9322 11.886 27.6333 12.1131 27.3234C12.3751 26.9677 12.6065 26.5989 12.768 26.1865C12.9318 25.7697 13.0213 25.3311 13.0802 24.8882C13.2068 23.939 13.2265 22.9745 13.2942 22.0187C13.3335 21.4557 13.3793 20.8906 13.4383 20.3276C13.4907 19.8061 13.5147 19.2387 13.7635 18.7652C13.8552 18.5906 13.5911 18.4379 13.4994 18.6103L13.5016 18.6168Z" fill="#7B35E3"/>
<path d="M11.1197 34.3848C11.3926 35.4475 12.0759 36.3247 12.9907 36.9226C13.8705 37.4987 14.9358 37.4354 15.9335 37.3045C16.4662 37.2346 16.9945 37.1408 17.5141 37.0099C17.704 36.9619 17.6233 36.6673 17.4333 36.7153C16.5972 36.9226 15.7196 37.0775 14.8572 37.0862C14.3377 37.0928 13.8246 37.0426 13.3618 36.7895C12.9273 36.5538 12.5431 36.2112 12.2156 35.8446C11.8183 35.4017 11.5607 34.8758 11.4144 34.3041C11.3664 34.1142 11.0695 34.195 11.1197 34.3848Z" fill="#7B35E3"/>
<path d="M11.0805 31.0986C11.0324 31.5502 10.9822 31.9998 10.9604 32.4536C10.956 32.5365 11.0346 32.6064 11.1132 32.6064C11.1983 32.6064 11.2617 32.5365 11.266 32.4536C11.2879 31.9998 11.3359 31.5502 11.3861 31.0986C11.3948 31.0156 11.3097 30.9458 11.2333 30.9458C11.1438 30.9458 11.0892 31.0156 11.0805 31.0986Z" fill="#7B35E3"/>
<path d="M20.4243 31.1967C19.8108 31.0396 19.1799 30.961 18.549 30.9632C18.3525 30.9632 18.3525 31.2687 18.549 31.2687C19.1559 31.2665 19.7562 31.3407 20.3435 31.4912C20.5334 31.5393 20.6164 31.2447 20.4243 31.1967Z" fill="#7B35E3"/>
<path d="M27.0414 27.9869C27.382 27.677 27.8667 27.5461 28.3011 27.4261C28.7901 27.2908 29.2922 27.2035 29.7965 27.1642C29.9908 27.1489 29.993 26.8434 29.7965 26.8587C29.2464 26.9024 28.6984 26.9962 28.1679 27.1467C27.6964 27.2799 27.1964 27.4348 26.8253 27.7708C26.679 27.9039 26.8952 28.12 27.0414 27.9869Z" fill="#7B35E3"/>
<path d="M22.1729 17.9384C22.5463 17.2554 23.1401 16.7186 23.854 16.4109C23.9151 16.3847 23.9282 16.2953 23.8976 16.2429C23.8627 16.1796 23.7906 16.1731 23.7295 16.1993C22.9807 16.5222 22.352 17.1005 21.959 17.814C21.8826 17.9515 22.0943 18.0759 22.1708 17.9384H22.1729Z" fill="#7B35E3"/>
<path d="M22.7362 18.3092C22.972 18.0059 23.2514 17.7353 23.5615 17.5171C23.616 17.48 23.64 17.4102 23.6051 17.3491C23.5746 17.2967 23.4916 17.2662 23.437 17.3054C23.1074 17.5389 22.8105 17.816 22.5638 18.1368C22.5223 18.1892 22.5135 18.259 22.5638 18.3092C22.6052 18.3507 22.6969 18.3616 22.7362 18.3092Z" fill="#7B35E3"/>
<path d="M18.3481 19.4724C17.608 19.1909 16.7784 18.9051 15.9991 19.2215C15.855 19.2804 15.9183 19.516 16.0646 19.4571C16.8025 19.156 17.5797 19.4419 18.2826 19.7081C18.4311 19.7648 18.4944 19.527 18.3481 19.4724Z" fill="#7B35E3"/>
<path d="M16.0428 19.9917C16.0886 19.9808 16.1366 19.9721 16.1847 19.9633C16.2152 19.959 16.1694 19.9633 16.1956 19.9633C16.2087 19.9633 16.2218 19.9612 16.2349 19.959C16.2589 19.9568 16.2829 19.9546 16.3069 19.9524C16.403 19.9459 16.499 19.9502 16.5951 19.959C16.6584 19.9655 16.7195 19.8979 16.7173 19.8368C16.7152 19.7648 16.6628 19.7211 16.5951 19.7146C16.3899 19.6928 16.1803 19.708 15.9773 19.756C15.914 19.7713 15.8725 19.8455 15.8921 19.9066C15.914 19.9721 15.9751 20.007 16.0428 19.9917Z" fill="#7B35E3"/>
<path d="M24.2884 17.0939C24.3103 17.083 24.3321 17.0721 24.3539 17.0633C24.3605 17.0612 24.367 17.0568 24.3736 17.0546C24.3605 17.0612 24.3605 17.0612 24.3736 17.0546C24.3823 17.0503 24.3932 17.0481 24.402 17.0437C24.4478 17.0263 24.4937 17.0132 24.5395 17.0001C24.5635 16.9935 24.5853 16.9892 24.6094 16.9848C24.6203 16.9848 24.629 16.9804 24.6399 16.9782C24.6465 16.9782 24.6901 16.9695 24.6574 16.9761C24.7032 16.9673 24.7534 16.9673 24.8015 16.9652C24.8648 16.9652 24.9259 16.9106 24.9237 16.843C24.9215 16.7775 24.8692 16.7186 24.8015 16.7208C24.5788 16.7251 24.3627 16.7797 24.164 16.8822C24.1072 16.9128 24.0854 16.9957 24.1203 17.0503C24.1575 17.1092 24.2273 17.1266 24.2884 17.0939Z" fill="#7B35E3"/>
<path d="M17.2478 31.4694C17.1561 31.5807 17.0666 31.692 16.9749 31.8033C16.953 31.8295 16.9399 31.8557 16.9399 31.8906C16.9399 31.9211 16.953 31.9561 16.9749 31.9779C16.9989 31.9997 17.0294 32.015 17.0622 32.0128C17.0928 32.0128 17.1277 32.0019 17.1495 31.9779C17.2412 31.8666 17.3307 31.7553 17.4224 31.644C17.4442 31.6178 17.4573 31.5916 17.4573 31.5567C17.4573 31.5262 17.4442 31.4913 17.4224 31.4694C17.3984 31.4476 17.3678 31.4324 17.3351 31.4345C17.3045 31.4345 17.2696 31.4454 17.2478 31.4694Z" fill="#7B35E3"/>
<path d="M27.2619 28.6196C27.2335 28.8181 27.1833 29.0145 27.1134 29.2022C27.0916 29.2633 27.1374 29.3397 27.1986 29.3527C27.2684 29.368 27.3252 29.3309 27.3492 29.2676C27.4191 29.08 27.4693 28.8836 27.4977 28.685C27.502 28.6501 27.5042 28.6217 27.4846 28.5912C27.4693 28.565 27.4409 28.541 27.4125 28.5345C27.3536 28.5214 27.2728 28.5519 27.2619 28.6196Z" fill="#7B35E3"/>
<path d="M33.1477 28.5936C33.0669 29.4271 32.7307 30.228 32.1915 30.8717C32.0911 30.9917 32.2635 31.1663 32.364 31.0441C32.9469 30.348 33.3027 29.497 33.3922 28.5936C33.4075 28.4365 33.163 28.4386 33.1477 28.5936Z" fill="#7B35E3"/>
<path d="M33.5427 29.595C33.4816 29.8285 33.4052 30.0576 33.3113 30.2802C33.2873 30.3391 33.3375 30.4177 33.3965 30.4308C33.4685 30.446 33.5209 30.4089 33.5471 30.3456C33.641 30.1231 33.7174 29.894 33.7785 29.6605C33.7938 29.5994 33.7589 29.5252 33.6934 29.5099C33.6301 29.4946 33.5602 29.5295 33.5427 29.595Z" fill="#7B35E3"/>
<path d="M43.4389 27.4391C44.9671 28.2334 46.1875 29.5819 46.8053 31.1923C46.8752 31.3734 47.1721 31.2949 47.1 31.1116C46.4516 29.4292 45.1942 28.0086 43.5917 27.1772C43.4171 27.0856 43.2621 27.3496 43.4367 27.4413L43.4389 27.4391Z" fill="#7B35E3"/>
<path d="M43.2753 29.5994C44.6681 31.1378 45.5785 33.0995 45.8492 35.1572C45.8754 35.3492 46.181 35.3514 46.1548 35.1572C45.9365 33.4923 45.3296 31.8862 44.3756 30.5006C44.107 30.11 43.8101 29.7369 43.4914 29.3834C43.3582 29.2372 43.1443 29.4532 43.2753 29.5994Z" fill="#7B35E3"/>
<path d="M42.4915 31.9692C42.7622 32.3729 42.8583 32.8966 42.9543 33.3679C43.0547 33.8633 43.1268 34.3652 43.2097 34.8627C43.356 35.753 43.5481 36.6476 43.9804 37.4485C44.2074 37.8718 44.5043 38.2558 44.8733 38.5657C45.0239 38.6923 45.2401 38.4762 45.0894 38.3497C43.6355 37.1255 43.6071 35.0591 43.2621 33.3418C43.1595 32.829 43.0526 32.2573 42.7557 31.8165C42.6465 31.655 42.3823 31.8078 42.4915 31.9714V31.9692Z" fill="#7B35E3"/>
<path d="M41.2666 34.3236C41.2426 35.0699 41.1989 35.8205 41.2077 36.569C41.2142 37.2454 41.2994 37.9219 41.605 38.5328C41.6923 38.7096 41.9565 38.5547 41.8692 38.3779C41.5723 37.7844 41.5133 37.1167 41.5133 36.4642C41.5133 35.7507 41.5504 35.0371 41.5723 34.3258C41.5788 34.1294 41.2732 34.1294 41.2666 34.3258V34.3236Z" fill="#7B35E3"/>
<path d="M21.0465 38.9103C21.6469 41.3892 20.9003 43.9357 20.4462 46.3731C20.2104 47.6387 20.0096 48.9109 19.8458 50.1874C19.6864 51.4181 19.4965 52.6881 19.717 53.9231C19.9113 55.0098 20.5008 56.0878 21.5072 56.6115C21.6818 56.7031 21.8368 56.4391 21.6622 56.3475C20.7758 55.8848 20.2497 54.9618 20.0445 54.0082C19.7869 52.8037 19.9812 51.5403 20.134 50.3336C20.2934 49.0745 20.4898 47.8198 20.7213 46.5717C20.9483 45.3453 21.2321 44.1277 21.4111 42.8948C21.6076 41.5441 21.6666 40.1672 21.3435 38.8318C21.2976 38.6397 21.0029 38.7205 21.0487 38.9125L21.0465 38.9103Z" fill="#7B35E3"/>
<path d="M24.0549 42.8273C24.3715 43.7853 24.2187 44.824 23.9829 45.7819C23.7384 46.7748 23.3716 47.7327 23.042 48.6994C22.4394 50.469 21.9395 52.4504 22.649 54.2659C22.9787 55.1082 23.5397 55.8588 24.3344 56.3105C24.5047 56.4087 24.6597 56.1447 24.4894 56.0465C22.9808 55.1889 22.4918 53.3407 22.6315 51.7172C22.8062 49.7053 23.7668 47.8789 24.258 45.9434C24.5199 44.9091 24.6924 43.7809 24.3497 42.7444C24.2885 42.5589 23.9938 42.6375 24.0549 42.8252V42.8273Z" fill="#7B35E3"/>
<path d="M27.2159 45.0988C27.4102 45.5745 27.3098 46.0698 27.133 46.5346C26.943 47.0365 26.6811 47.5144 26.4453 47.9944L25.7205 49.4739C25.4934 49.9387 25.2577 50.4078 25.1179 50.9075C24.9564 51.4858 24.9127 52.0968 24.987 52.6925C25.011 52.8845 25.3166 52.8867 25.2926 52.6925C25.2249 52.1491 25.2533 51.6014 25.3908 51.0712C25.524 50.554 25.7642 50.0783 25.9977 49.6026C26.2488 49.092 26.4977 48.5814 26.7487 48.0708C26.9802 47.5995 27.2312 47.1325 27.419 46.6415C27.6176 46.1244 27.7268 45.5483 27.5107 45.0181C27.4364 44.8391 27.1417 44.9177 27.2159 45.0988Z" fill="#7B35E3"/>
<path d="M30.8357 45.4742C30.9558 46.3645 30.4143 47.1741 29.9144 47.8549C29.6612 48.1975 29.3992 48.5357 29.183 48.9045C29.0062 49.2056 28.7246 49.6486 28.9451 49.9912C29.0521 50.157 29.3162 50.0021 29.2092 49.8362C29.1023 49.6682 29.242 49.4391 29.3206 49.2842C29.4166 49.0987 29.5258 48.9219 29.6415 48.7495C29.8795 48.3939 30.148 48.06 30.3925 47.7109C30.8684 47.0301 31.2461 46.2423 31.1304 45.3913C31.1042 45.1971 30.8095 45.28 30.8357 45.472V45.4742Z" fill="#7B35E3"/>
<path d="M49.0561 27.5569C49.3246 29.9114 49.0561 32.3073 48.268 34.5439C48.2025 34.7294 48.4972 34.8102 48.5627 34.6247C49.1783 32.8725 49.4862 31.0133 49.4643 29.1564C49.4578 28.6217 49.4229 28.0871 49.3617 27.5569C49.3399 27.3627 49.0343 27.3605 49.0561 27.5569Z" fill="#7B35E3"/>
<path d="M47.6066 36.3705C47.3839 36.9356 47.2289 37.527 47.1459 38.1292C47.135 38.21 47.1656 38.2929 47.2529 38.3169C47.3249 38.3365 47.4297 38.2929 47.4406 38.21C47.5236 37.6077 47.6786 37.0164 47.9013 36.4512C47.9319 36.3748 47.8685 36.2832 47.7943 36.2635C47.707 36.2395 47.6371 36.2941 47.6066 36.3705Z" fill="#7B35E3"/>
<path d="M7.07439 20.74C7.15298 21.5648 7.36038 22.3678 7.6944 23.1272C8.01095 23.8473 8.48688 24.5106 8.59822 25.3071C8.62441 25.5013 8.91914 25.4184 8.89294 25.2264C8.78597 24.4605 8.34934 23.8102 8.02624 23.1228C7.67475 22.3744 7.45862 21.5626 7.38003 20.74C7.36256 20.5458 7.05474 20.5436 7.07439 20.74Z" fill="#7B35E3"/>
<path d="M8.19436 27.4174C8.11795 27.7621 8.04373 28.1091 7.96732 28.4539C7.94985 28.5346 7.99133 28.6197 8.07429 28.6415C8.1507 28.6633 8.24458 28.6153 8.26204 28.5346C8.33845 28.1898 8.41268 27.8429 8.48909 27.4981C8.50655 27.4174 8.46507 27.3323 8.38211 27.3104C8.3057 27.2886 8.21183 27.3366 8.19436 27.4174Z" fill="#7B35E3"/>
<path d="M19.4921 36.6301C19.5576 36.6366 19.6231 36.6432 19.6886 36.6497C19.7191 36.6541 19.7497 36.6562 19.7781 36.6606C19.8152 36.665 19.765 36.6606 19.7977 36.6628C19.8152 36.665 19.8327 36.6672 19.8501 36.6693C19.9767 36.689 20.1056 36.7108 20.23 36.737C20.3086 36.7523 20.3981 36.7152 20.4177 36.6301C20.4352 36.5537 20.3937 36.4599 20.3108 36.4424C20.0401 36.3878 19.765 36.3486 19.4899 36.3224C19.4091 36.3158 19.3327 36.3988 19.3371 36.4751C19.3415 36.5646 19.4048 36.6213 19.4899 36.6279L19.4921 36.6301Z" fill="#7B35E3"/>
<path d="M40.2058 32.7962C40.2189 32.7918 40.2276 32.7918 40.1883 32.7918C40.1796 32.7918 40.1709 32.7918 40.1621 32.7918C40.1425 32.7809 40.1381 32.7809 40.149 32.7852C40.1621 32.794 40.1403 32.7787 40.1403 32.7765C40.1425 32.7765 40.1578 32.7918 40.1425 32.7765C40.1294 32.7656 40.1425 32.7765 40.1425 32.7787C40.1468 32.7852 40.149 32.7918 40.1534 32.7983C40.1534 32.7983 40.1621 32.8158 40.1556 32.8027C40.149 32.7874 40.1599 32.8136 40.1599 32.818C40.1621 32.8267 40.1643 32.8354 40.1665 32.8442C40.173 32.8594 40.1665 32.8442 40.1665 32.8376C40.1665 32.8442 40.1665 32.8507 40.1665 32.8572C40.1665 32.8725 40.1665 32.8442 40.1665 32.842C40.1665 32.8529 40.1556 32.8638 40.1709 32.8354C40.1665 32.842 40.1687 32.8529 40.1709 32.8354C40.173 32.8245 40.1774 32.8289 40.1709 32.8354C40.1818 32.8267 40.1905 32.8223 40.2036 32.8158C40.1796 32.8245 40.208 32.8158 40.2145 32.8158C40.2145 32.8158 40.2451 32.8245 40.2298 32.818C40.197 32.8049 40.2429 32.8311 40.2232 32.8158C40.256 32.8398 40.2232 32.8114 40.2232 32.8114C40.2276 32.8114 40.2363 32.8354 40.232 32.818C40.2232 32.7896 40.2232 32.818 40.232 32.818C40.232 32.818 40.2211 32.7831 40.2232 32.7831C40.2232 32.7831 40.2254 32.8223 40.2232 32.7874C40.2232 32.7809 40.2232 32.7743 40.2232 32.77C40.2232 32.7569 40.2232 32.746 40.2232 32.7329V32.7154C40.2211 32.735 40.2211 32.7372 40.2232 32.7263C40.2276 32.7132 40.2232 32.7176 40.2145 32.7394C40.197 32.77 40.2036 32.7591 40.2123 32.7503C40.2058 32.7569 40.1992 32.7591 40.1927 32.7634C40.173 32.7765 40.2189 32.7591 40.2189 32.7591C40.2189 32.7591 40.1883 32.7591 40.2058 32.7612C40.2102 32.7612 40.2167 32.7612 40.2211 32.7612H40.2429C40.2429 32.7612 40.2101 32.7547 40.2342 32.7612C40.2473 32.7634 40.2582 32.7678 40.2713 32.7721C40.2866 32.7765 40.2604 32.7678 40.2604 32.7678C40.2604 32.77 40.2713 32.7743 40.2756 32.7743C40.2822 32.7787 40.3062 32.7874 40.3084 32.794C40.3084 32.794 40.2866 32.7743 40.2975 32.7874C40.3018 32.7918 40.3084 32.7961 40.3128 32.8027C40.3171 32.8071 40.3193 32.8114 40.3237 32.8136C40.3433 32.8354 40.3193 32.8092 40.3193 32.8071C40.3193 32.8092 40.3346 32.8311 40.3346 32.8354C40.3455 32.8572 40.3302 32.8289 40.3324 32.8289C40.3324 32.8289 40.3368 32.842 40.3368 32.8442C40.3433 32.8791 40.3368 32.8223 40.3368 32.8485C40.3368 32.8594 40.3368 32.8725 40.3368 32.8834C40.3368 32.9009 40.3368 32.8682 40.339 32.8682C40.339 32.8682 40.3346 32.89 40.3346 32.8878C40.3346 32.89 40.328 32.9162 40.3259 32.9162C40.3237 32.9162 40.3411 32.8878 40.3302 32.9031C40.3259 32.9096 40.3215 32.9183 40.3171 32.9249C40.304 32.9489 40.3346 32.9074 40.3171 32.9249C40.3128 32.9293 40.3106 32.9314 40.3062 32.9358L40.3018 32.9402C40.3018 32.9336 40.3149 32.9336 40.3018 32.9402C40.2975 32.9423 40.2931 32.9445 40.2887 32.9489L40.2756 32.9554C40.2953 32.9467 40.2997 32.9445 40.2866 32.9489C40.2822 32.9489 40.2778 32.9511 40.2735 32.9533C40.2669 32.9533 40.2604 32.9554 40.2538 32.9576C40.2582 32.9576 40.2778 32.9576 40.2604 32.9576C40.2451 32.9576 40.2276 32.9576 40.2123 32.9576C40.2014 32.9576 40.1709 32.9533 40.1971 32.9576C40.1796 32.9554 40.1621 32.9511 40.1447 32.9467C40.1294 32.9423 40.1163 32.938 40.101 32.9336C40.0857 32.9293 40.1054 32.9358 40.1075 32.938C40.101 32.9358 40.0966 32.9314 40.0901 32.9293C40.0835 32.9271 40.0792 32.9227 40.0748 32.9205C40.0792 32.9227 40.0944 32.9402 40.0748 32.9205C40.0704 32.9162 40.0661 32.9118 40.0639 32.9074C40.0508 32.8943 40.0748 32.9271 40.0682 32.9118C40.0617 32.9009 40.053 32.89 40.0486 32.8769C40.0486 32.8769 40.0573 32.9031 40.053 32.8878C40.053 32.8813 40.0486 32.8769 40.0486 32.8703C40.0442 32.8572 40.042 32.8442 40.0399 32.8311C40.0355 32.8136 40.042 32.842 40.0399 32.842C40.0399 32.842 40.0399 32.8202 40.0399 32.818C40.0399 32.8049 40.0399 32.7896 40.0399 32.7765C40.0399 32.77 40.0399 32.7634 40.0399 32.7591C40.0399 32.7394 40.0333 32.7503 40.0399 32.7634C40.0333 32.746 40.0551 32.7001 40.0595 32.6827C40.0682 32.6565 40.0486 32.7001 40.0639 32.6761C40.0704 32.663 40.0792 32.6521 40.0857 32.6412C40.0944 32.6259 40.0813 32.6478 40.0792 32.6478C40.0835 32.6434 40.0879 32.639 40.0901 32.6347C40.0944 32.6303 40.0988 32.6259 40.1032 32.6216C40.1272 32.5954 40.0879 32.6303 40.1032 32.6194C40.1141 32.6129 40.1228 32.6063 40.1337 32.5998C40.1403 32.5954 40.149 32.5932 40.1556 32.5888C40.1709 32.5801 40.1468 32.5932 40.1468 32.5932C40.1643 32.5779 40.2058 32.5758 40.2276 32.5692C40.256 32.5627 40.2036 32.5692 40.2342 32.5692C40.2473 32.5692 40.2625 32.5692 40.2756 32.567C40.2909 32.567 40.304 32.567 40.3193 32.567C40.3237 32.567 40.3433 32.567 40.3237 32.567C40.304 32.567 40.3302 32.567 40.3346 32.567C40.3499 32.5692 40.3673 32.5736 40.3826 32.5779C40.3892 32.5779 40.3935 32.5823 40.4001 32.5845C40.4219 32.591 40.4001 32.5823 40.3979 32.5845C40.4044 32.5823 40.4328 32.6041 40.4394 32.6085C40.4416 32.6085 40.459 32.6216 40.4437 32.6107C40.4263 32.5976 40.4525 32.6194 40.4547 32.6216C40.459 32.6259 40.4634 32.6303 40.4678 32.6347C40.4699 32.6369 40.4852 32.6587 40.4743 32.6412C40.4634 32.6259 40.4743 32.6412 40.4743 32.6456C40.4787 32.6543 40.4852 32.663 40.4896 32.6718C40.4896 32.674 40.4983 32.6849 40.4983 32.687C40.4983 32.6805 40.4896 32.663 40.4961 32.6849C40.5005 32.7001 40.5049 32.7154 40.5092 32.7307C40.5092 32.7351 40.5136 32.7547 40.5092 32.7351C40.5071 32.711 40.5092 32.746 40.5092 32.7503C40.5092 32.7634 40.5092 32.7787 40.5092 32.7918C40.5092 32.8136 40.5158 32.7656 40.5092 32.7874C40.5092 32.7961 40.5071 32.8027 40.5049 32.8114C40.5005 32.8267 40.494 32.842 40.4918 32.8594C40.4874 32.8747 40.494 32.8529 40.4961 32.8507C40.4918 32.8572 40.4896 32.866 40.4852 32.8725C40.4787 32.8878 40.4699 32.9009 40.4612 32.9162C40.4568 32.9205 40.4547 32.9271 40.4503 32.9314C40.4503 32.9336 40.4328 32.9554 40.4437 32.9402C40.4568 32.9249 40.4394 32.9445 40.435 32.9489C40.4285 32.9576 40.4219 32.9642 40.4132 32.9707C40.3564 33.0274 40.3521 33.13 40.4132 33.1867C40.4743 33.2413 40.5704 33.2478 40.6293 33.1867C40.7712 33.0427 40.8433 32.8463 40.804 32.6456C40.7668 32.4557 40.6097 32.3095 40.4241 32.2703C40.2363 32.231 40.0224 32.2703 39.8849 32.4099C39.7517 32.5452 39.7124 32.7569 39.7561 32.9358C39.7801 33.0362 39.8412 33.1256 39.9307 33.1824C40.0159 33.2347 40.1316 33.2566 40.2298 33.2588C40.4241 33.2631 40.5987 33.1366 40.6359 32.9424C40.6752 32.7372 40.5595 32.5539 40.3695 32.4797C40.2887 32.4492 40.1905 32.4427 40.1075 32.4688C39.9809 32.5103 39.922 32.6172 39.922 32.746C39.922 32.8703 39.9613 32.9947 40.0682 33.0667C40.173 33.1366 40.3149 33.13 40.4044 33.0384C40.5071 32.9314 40.4896 32.7809 40.435 32.6565C40.3848 32.5452 40.2604 32.4383 40.1294 32.4863C40.0551 32.5147 39.9962 32.591 40.0224 32.6739C40.0464 32.746 40.1316 32.8114 40.2101 32.7809L40.2058 32.7962Z" fill="#7B35E3"/>
<path d="M41.0637 31.3668C41.0637 31.3668 41.0811 31.3625 41.0921 31.3603C41.079 31.3603 41.0659 31.3646 41.0506 31.3668C41.0659 31.3668 41.0811 31.3668 41.0964 31.3668C41.0833 31.3668 41.0702 31.3625 41.0549 31.3625C41.0724 31.3646 41.0877 31.369 41.103 31.3755C41.0899 31.3712 41.079 31.3646 41.0659 31.3603C41.079 31.3668 41.0921 31.3734 41.1052 31.3821C41.0942 31.3734 41.0855 31.3668 41.0746 31.3581C41.0833 31.3646 41.0921 31.3734 41.1008 31.3821C41.0921 31.3712 41.0855 31.3625 41.0768 31.3515C41.0833 31.3603 41.0899 31.3712 41.0942 31.3821C41.0899 31.369 41.0833 31.3581 41.079 31.345C41.0833 31.3537 41.0855 31.3625 41.0855 31.3712C41.0855 31.3581 41.0811 31.345 41.0811 31.3297C41.0811 31.3406 41.0811 31.3515 41.0811 31.3625C41.0811 31.3494 41.0855 31.3363 41.0877 31.321C41.0877 31.3297 41.0833 31.3406 41.079 31.3494C41.0833 31.3363 41.0899 31.3254 41.0942 31.3123C41.0899 31.321 41.0855 31.3297 41.079 31.3363C41.0877 31.3254 41.0942 31.3166 41.103 31.3057C41.0942 31.3166 41.0877 31.3254 41.0768 31.3319C41.0877 31.3232 41.0964 31.3166 41.1073 31.3079C41.0964 31.3166 41.0833 31.3232 41.0702 31.3297C41.0833 31.3254 41.0942 31.3188 41.1073 31.3145C41.0942 31.3188 41.0811 31.3232 41.0659 31.3254C41.079 31.3254 41.0921 31.321 41.1073 31.321C41.0942 31.321 41.0811 31.321 41.0702 31.321C41.0833 31.321 41.0964 31.3254 41.1117 31.3275C41.0986 31.3275 41.0855 31.3232 41.0746 31.3166C41.0877 31.321 41.0986 31.3275 41.1117 31.3319C41.0986 31.3254 41.0877 31.3188 41.0768 31.3101C41.0877 31.3188 41.0964 31.3254 41.1073 31.3341C41.0942 31.3232 41.0811 31.3123 41.0702 31.297C41.079 31.3079 41.0855 31.3166 41.0942 31.3275C41.0833 31.3123 41.0724 31.297 41.0659 31.2795C41.0702 31.2926 41.0768 31.3035 41.0811 31.3166C41.0724 31.297 41.068 31.2774 41.0637 31.2577C41.0637 31.2708 41.068 31.2839 41.068 31.2992C41.0659 31.2795 41.0659 31.2621 41.068 31.2424C41.068 31.2555 41.0637 31.2686 41.0637 31.2839C41.0659 31.2664 41.0702 31.249 41.0768 31.2337C41.0724 31.2468 41.0659 31.2577 41.0615 31.2708C41.0659 31.2599 41.0724 31.2512 41.079 31.2424C41.0702 31.2534 41.0637 31.2621 41.0549 31.273C41.0615 31.2664 41.068 31.2599 41.0746 31.2534C41.0637 31.2621 41.0549 31.2686 41.044 31.2774C41.0506 31.2708 41.0593 31.2664 41.068 31.2643C41.0549 31.2686 41.044 31.2752 41.0309 31.2795C41.0397 31.2752 41.0484 31.273 41.0571 31.273C41.044 31.273 41.0309 31.2774 41.0157 31.2774C41.0266 31.2774 41.0353 31.2774 41.0462 31.2774C41.0331 31.2774 41.02 31.273 41.0047 31.2708C41.0178 31.2708 41.0287 31.2752 41.0397 31.2795C41.0266 31.2752 41.0157 31.2686 41.0026 31.2643C41.0157 31.2708 41.0266 31.2774 41.0397 31.2861C41.0287 31.2774 41.02 31.2708 41.0091 31.2621C41.02 31.2708 41.0309 31.2795 41.0397 31.2904C41.0309 31.2795 41.0244 31.2708 41.0157 31.2599C41.0244 31.273 41.0331 31.2861 41.0397 31.3014C41.0353 31.2883 41.0288 31.2774 41.0244 31.2643C41.0331 31.2883 41.0397 31.3123 41.044 31.3385C41.044 31.3254 41.0397 31.3123 41.0397 31.297C41.044 31.3254 41.044 31.3559 41.044 31.3843C41.044 31.4236 41.0615 31.465 41.0899 31.4934C41.1161 31.5196 41.1597 31.5392 41.199 31.5392C41.2842 31.5348 41.3497 31.4716 41.3519 31.3865C41.3519 31.3581 41.3519 31.3275 41.3475 31.2992C41.3453 31.273 41.3409 31.2468 41.3344 31.2206C41.3278 31.1944 41.3169 31.1704 41.306 31.1464C41.2689 31.0679 41.1969 31.0111 41.1161 30.9828C41.0702 30.9675 41.0178 30.9675 40.9698 30.9784C40.9261 30.9893 40.8781 31.0155 40.8475 31.0504C40.8148 31.0875 40.7908 31.129 40.7777 31.177C40.769 31.2119 40.7624 31.2512 40.7668 31.2883C40.769 31.3254 40.7755 31.3625 40.7886 31.3974C40.8083 31.4476 40.8279 31.4825 40.8628 31.5239C40.9174 31.5894 41.0004 31.6265 41.0855 31.6309C41.103 31.6309 41.1183 31.6309 41.1357 31.6265C41.1532 31.6243 41.1707 31.6221 41.1881 31.6156C41.234 31.5981 41.2689 31.5785 41.306 31.5458C41.3628 31.4956 41.4021 31.4083 41.3933 31.3319C41.389 31.2839 41.3759 31.2381 41.3475 31.1988C41.3191 31.1595 41.2864 31.1246 41.2405 31.1028C41.1947 31.0788 41.151 31.0679 41.1008 31.0613C41.0877 31.0613 41.0768 31.0613 41.0637 31.0613C41.0397 31.0635 41.0135 31.0657 40.9895 31.0744C40.9523 31.0875 40.9174 31.1093 40.8978 31.1442C40.8781 31.177 40.8694 31.225 40.8825 31.2621C40.8934 31.2992 40.9174 31.3341 40.9523 31.3537C40.9873 31.3734 41.0309 31.3821 41.0702 31.369L41.0637 31.3668Z" fill="#7B35E3"/>
<path d="M42.0548 27.2296C41.7317 27.0026 41.3082 26.9721 40.9458 27.1248C40.5441 27.295 40.3062 27.6332 40.1271 28.0151C40.0354 28.2137 39.9525 28.4166 39.8826 28.6239C39.8084 28.8443 39.7473 29.0603 39.6359 29.2655C39.4525 29.6015 39.0465 29.9223 39.1294 30.3456C39.1797 30.5943 39.3849 30.662 39.5617 30.8038C39.7473 30.9544 39.8586 31.1813 39.9656 31.3908C40.0551 31.5654 40.3193 31.4126 40.2297 31.2359C40.1315 31.0417 40.0267 30.8475 39.8804 30.6838C39.8084 30.6053 39.7254 30.5376 39.6337 30.4809C39.5311 30.4154 39.4285 30.3718 39.4242 30.2365C39.4176 30.0095 39.6468 29.8132 39.7647 29.6386C39.8979 29.4422 40.0049 29.2284 40.0835 29.0036C40.2385 28.5541 40.3629 28.0195 40.6991 27.6616C41.0135 27.3256 41.5091 27.2143 41.8998 27.4892C42.0614 27.6027 42.2142 27.3387 42.0548 27.2252V27.2296Z" fill="#7B35E3"/>
<path d="M40.0179 29.3464C39.924 29.3049 39.8957 29.3005 39.9284 29.3311C39.935 29.3376 39.9415 29.3464 39.9459 29.3529C39.9568 29.366 39.9655 29.3791 39.9764 29.39C40.0005 29.4184 40.0245 29.4489 40.0485 29.4773C40.055 29.4838 40.0616 29.4926 40.066 29.4991C40.0572 29.486 40.0572 29.4882 40.0681 29.5035C40.0769 29.5144 40.0856 29.5275 40.0921 29.5384C40.0965 29.5449 40.1183 29.5929 40.1074 29.5667C40.114 29.582 40.1183 29.5995 40.1227 29.6148C40.1314 29.6497 40.138 29.6846 40.1445 29.7195C40.1489 29.737 40.1511 29.7566 40.1533 29.774C40.1533 29.785 40.1555 29.7959 40.1576 29.8046C40.1598 29.8221 40.1598 29.8264 40.1576 29.8155C40.1576 29.8068 40.1576 29.809 40.1576 29.8264C40.1576 29.8373 40.1598 29.8482 40.162 29.8591C40.162 29.8766 40.1664 29.8962 40.1686 29.9137C40.1729 29.953 40.1751 29.9923 40.1773 30.0337C40.1817 30.1145 40.245 30.1908 40.3301 30.1865C40.4087 30.1821 40.4873 30.1188 40.4829 30.0337C40.4786 29.9312 40.4676 29.8308 40.4524 29.7304C40.4393 29.6366 40.4262 29.5384 40.3891 29.4511C40.3498 29.3594 40.2843 29.2853 40.2231 29.2089C40.1489 29.1172 40.0725 29.0125 39.935 29.0474C39.8586 29.067 39.804 29.1565 39.828 29.2351C39.8542 29.3136 39.9328 29.3638 40.0157 29.342L40.0179 29.3464Z" fill="#7B35E3"/>
<path d="M42.1224 27.9366C42.1421 28.2661 42.07 28.5956 41.832 28.84C41.6028 29.0756 41.2884 29.1935 40.9784 29.2808C40.7885 29.3331 40.8693 29.6299 41.0592 29.5753C41.426 29.4706 41.7993 29.3222 42.0635 29.0364C42.3429 28.7374 42.4499 28.3359 42.4259 27.9344C42.4149 27.738 42.1093 27.738 42.1202 27.9344L42.1224 27.9366Z" fill="#7B35E3"/>
<path d="M38.4963 29.3442C39.1403 28.8598 39.3259 28.0655 39.7232 27.4043C39.8258 27.2363 39.5595 27.0814 39.4591 27.2494C39.0967 27.8495 38.9264 28.6394 38.3413 29.0802C38.2758 29.1304 38.2409 29.2111 38.2867 29.2897C38.3238 29.3551 38.4286 29.3944 38.4963 29.3442Z" fill="#7B35E3"/>
<path d="M39.542 40.8808C39.2931 41.3543 39.0158 41.8104 38.7255 42.2599C38.6185 42.4257 38.8826 42.5785 38.9896 42.4148C39.28 41.9653 39.5572 41.5092 39.8061 41.0357C39.8978 40.8611 39.6336 40.7062 39.542 40.8808Z" fill="#7B35E3"/>
<path d="M40.5856 36.689C40.6446 37.612 40.4874 38.5263 40.1905 39.3992C40.1272 39.5868 40.4219 39.6654 40.4852 39.4799C40.7887 38.5831 40.9524 37.6361 40.8913 36.6868C40.8782 36.4905 40.5725 36.4905 40.5856 36.6868V36.689Z" fill="#7B35E3"/>
<path d="M41.8889 38.9519C41.9806 40.1782 41.437 41.3151 40.913 42.3887C40.8279 42.5655 41.0899 42.7204 41.1772 42.5436C41.723 41.4242 42.2884 40.2328 42.1945 38.9541C42.1792 38.7599 41.8736 38.7577 41.8889 38.9541V38.9519Z" fill="#7B35E3"/>
<path d="M43.4083 40.3615C43.5262 41.2082 43.1528 42.0199 42.8079 42.7684C42.725 42.9451 42.9891 43.1022 43.0721 42.9233C43.4585 42.0876 43.8362 41.2213 43.703 40.2808C43.6921 40.1979 43.5873 40.1542 43.5152 40.1739C43.4279 40.1979 43.3974 40.2808 43.4083 40.3615Z" fill="#7B35E3"/>
</g>
<defs>
<clipPath id="clip0_53_22095">
<rect width="54" height="61" fill="white"/>
</clipPath>
</defs>
</svg>
