<svg width="20" height="20" viewBox="0 0 20 20" fill="none" xmlns="http://www.w3.org/2000/svg">
<path d="M15.6938 5.83317L15.0872 16.7582C15.0637 17.1837 14.8782 17.5841 14.5687 17.877C14.2591 18.1699 13.8492 18.3332 13.423 18.3332H6.57634C6.15018 18.3332 5.7402 18.1699 5.43068 17.877C5.12116 17.5841 4.93561 17.1837 4.91217 16.7582L4.30551 5.83317H4.16634C3.94533 5.83317 3.73337 5.74537 3.57709 5.58909C3.42081 5.43281 3.33301 5.22085 3.33301 4.99984V2.49984C3.33301 2.27882 3.42081 2.06686 3.57709 1.91058C3.73337 1.7543 3.94533 1.6665 4.16634 1.6665H15.833C16.054 1.6665 16.266 1.7543 16.4223 1.91058C16.5785 2.06686 16.6663 2.27882 16.6663 2.49984V4.99984C16.6663 5.22085 16.5785 5.43281 16.4223 5.58909C16.266 5.74537 16.054 5.83317 15.833 5.83317H15.6938ZM14.0247 5.83317H5.97467L6.57634 16.6665H13.423L14.0247 5.83317ZM4.99967 3.33317V4.1665H14.9997V3.33317H4.99967ZM8.33301 7.49984C8.55402 7.49984 8.76598 7.58764 8.92226 7.74392C9.07854 7.9002 9.16634 8.11216 9.16634 8.33317V14.1665C9.16634 14.3875 9.07854 14.5995 8.92226 14.7558C8.76598 14.912 8.55402 14.9998 8.33301 14.9998C8.11199 14.9998 7.90003 14.912 7.74375 14.7558C7.58747 14.5995 7.49967 14.3875 7.49967 14.1665V8.33317C7.49967 8.11216 7.58747 7.9002 7.74375 7.74392C7.90003 7.58764 8.11199 7.49984 8.33301 7.49984ZM11.6663 7.49984C11.8874 7.49984 12.0993 7.58764 12.2556 7.74392C12.4119 7.9002 12.4997 8.11216 12.4997 8.33317V14.1665C12.4997 14.3875 12.4119 14.5995 12.2556 14.7558C12.0993 14.912 11.8874 14.9998 11.6663 14.9998C11.4453 14.9998 11.2334 14.912 11.0771 14.7558C10.9208 14.5995 10.833 14.3875 10.833 14.1665V8.33317C10.833 8.11216 10.9208 7.9002 11.0771 7.74392C11.2334 7.58764 11.4453 7.49984 11.6663 7.49984Z" fill="#E4626F"/>
</svg>
