<svg width="210" height="305" viewBox="0 0 210 305" fill="none" xmlns="http://www.w3.org/2000/svg">
<g clip-path="url(#clip0_2251_1096)">
<path d="M38.1998 272C37.4998 272 36.7998 272.1 36.2998 272.3C35.7998 272.5 35.3998 272.8 35.0998 273.4C34.7998 274 34.6998 275 34.6998 276.3V290.1C34.6998 292.2 34.8998 293.9 35.3998 295.3C35.8998 296.6 36.4998 297.7 37.1998 298.5C37.8998 299.3 38.7998 299.8 39.6998 300.2C40.5998 300.6 41.5998 300.7 42.5998 300.7C44.3998 300.8 45.9998 300.4 47.2998 299.7C48.5998 299 49.5998 297.7 50.2998 296.2C50.9998 294.6 51.2998 292.6 51.2998 290.1V277C51.2998 276.1 51.2998 275.2 51.3998 274.4C51.3998 273.6 51.4998 272.9 51.4998 272.5C50.9998 272.5 50.2998 272.6 49.4998 272.6C48.6998 272.6 48.0998 272.6 47.6998 272.7V268.9H59.2998V272.2C58.5998 272.2 57.8998 272.3 57.3998 272.5C56.8998 272.7 56.4998 273 56.1998 273.6C55.8998 274.2 55.7998 275.2 55.7998 276.5V289C55.7998 291.9 55.3998 294.3 54.7998 296.3C54.0998 298.3 53.0998 299.9 51.7998 301.1C50.4998 302.3 48.9998 303.2 47.2998 303.8C45.5998 304.4 43.7998 304.6 41.7998 304.6C38.9998 304.6 36.6998 304.2 34.7998 303.4C32.8998 302.6 31.4998 301.5 30.3998 300.1C29.2998 298.7 28.4998 297 28.0998 295.1C27.6998 293.2 27.3998 291.2 27.3998 289.1V277C27.3998 276.1 27.3998 275.2 27.4998 274.4C27.5998 273.6 27.5998 272.9 27.5998 272.5C27.0998 272.5 26.3998 272.6 25.5998 272.6C24.7998 272.6 24.1998 272.6 23.7998 272.7V268.9H38.1998V272Z" fill="#7B35E3"/>
<path d="M62.9994 303.7V300.4C63.7994 300.4 64.3994 300.3 64.8994 300.1C65.3994 299.9 65.7994 299.5 66.0994 298.9C66.3994 298.3 66.4994 297.3 66.4994 296V276.9C66.4994 276 66.4994 275.1 66.5994 274.3C66.5994 273.5 66.6994 272.8 66.6994 272.4C66.1994 272.4 65.4994 272.5 64.6994 272.5C63.8994 272.5 63.2994 272.5 62.8994 272.6V268.8H77.2994V272.1C76.5994 272.1 75.8994 272.2 75.3994 272.4C74.8994 272.6 74.4994 272.9 74.1994 273.5C73.8994 274.1 73.7994 275.1 73.7994 276.4V295.5C73.7994 296.4 73.7994 297.3 73.7994 298C73.7994 298.8 73.6994 299.4 73.6994 299.9H80.3994C82.3994 299.9 83.8994 299.2 84.9994 297.9C86.0994 296.6 86.6994 294.5 86.6994 291.7H89.9994L89.6994 303.7H62.9994Z" fill="#7B35E3"/>
<path d="M110.2 291.7C110.2 290.3 110 289.3 109.5 288.7C109 288.1 108.5 287.7 107.7 287.5C106.9 287.4 106.1 287.3 105.2 287.3H103.9V295.5C103.9 296.4 103.9 297.3 103.9 298C103.9 298.8 103.8 299.4 103.7 299.9H110.4C111.4 299.9 112.4 299.7 113.3 299.2C114.2 298.7 115 298 115.6 297C116.2 295.9 116.5 294.5 116.5 292.7H119.7L119.5 303.7H93.1V300.4C93.9 300.4 94.5 300.3 95 300.1C95.5 299.9 95.9 299.5 96.2 298.9C96.5 298.3 96.6 297.3 96.6 296V276.9C96.6 276 96.6 275.1 96.7 274.3C96.7 273.5 96.8 272.8 96.8 272.4C96.3 272.4 95.6 272.5 94.8 272.5C94 272.5 93.4 272.5 93 272.6V268.8H118L118.3 278.5H115C115 276.7 114.7 275.3 114 274.3C113.4 273.4 112.6 272.7 111.7 272.4C110.8 272.1 109.8 271.9 108.9 272H107.1C106.4 272 105.8 272.1 105.3 272.3C104.8 272.5 104.4 272.9 104.2 273.5C103.9 274.1 103.8 275.1 103.8 276.4V283.9H109.7L109.5 279.5H113.3V291.7H110.2Z" fill="#7B35E3"/>
<path d="M123.7 303.7V300.4C124.7 300.2 125.6 299.6 126.6 298.8C127.6 297.9 128.7 296.7 129.9 295.1L135.7 287.3C134.4 285.6 133 283.9 131.7 282.2C130.4 280.5 129 278.8 127.7 277.1C127.2 276.4 126.7 275.6 126.2 274.8C125.8 273.9 125.4 273.2 125.2 272.4C124.7 272.4 124.2 272.5 123.8 272.5C123.4 272.5 123 272.5 122.7 272.6V268.8H137.9V272.1H137.3C136.3 272.1 135.5 272.3 135.1 272.6C134.7 272.9 134.6 273.3 134.7 273.8C134.8 274.3 135.1 274.9 135.6 275.5C136.4 276.4 137.1 277.4 137.8 278.3C138.5 279.2 139.3 280.2 140 281.1L143.8 275.9C144.5 274.9 145.1 274.2 145.5 273.8C145.9 273.4 146.3 272.9 146.8 272.5C146.3 272.5 145.6 272.6 144.8 272.6C144 272.6 143.4 272.6 143 272.7V268.9H154.3V272.2C153.5 272.3 152.8 272.6 152 273C151.2 273.4 150.5 274 149.7 274.8C148.9 275.6 148.1 276.6 147.2 277.8L142.4 284.3C143.5 285.6 144.5 287 145.5 288.3C146.5 289.6 147.6 291 148.6 292.3C149.7 293.6 150.7 295 151.7 296.3C152.3 297 152.8 297.7 153.3 298.3C153.8 298.9 154.1 299.5 154.3 300.1C154.9 300 155.3 300 155.5 300C155.7 300 156 300 156.3 300V303.8H141.3V300.5C142.5 300.5 143.3 300.3 143.7 300C144.1 299.7 144.2 299.3 144 298.8C143.8 298.3 143.5 297.7 143 297.1C142.2 296 141.3 295 140.5 293.9C139.7 292.8 138.8 291.7 137.9 290.7C137.2 291.7 136.4 292.7 135.7 293.7C135 294.7 134.2 295.7 133.5 296.7C132.8 297.6 132.3 298.3 131.9 298.8C131.5 299.3 131.1 299.7 130.8 300.1C131.4 300.1 132 300 132.8 300C133.5 300 134.1 300 134.4 300V303.8L123.7 303.7Z" fill="#7B35E3"/>
<path d="M176.4 291.7C176.4 290.3 176.2 289.3 175.7 288.7C175.2 288.1 174.7 287.7 173.9 287.5C173.1 287.4 172.3 287.3 171.4 287.3H170.1V295.5C170.1 296.4 170.1 297.3 170.1 298C170.1 298.8 170 299.4 169.9 299.9H176.6C177.6 299.9 178.6 299.7 179.5 299.2C180.4 298.7 181.2 298 181.8 297C182.4 295.9 182.7 294.5 182.7 292.7H185.9L185.7 303.7H159.3V300.4C160.1 300.4 160.7 300.3 161.2 300.1C161.7 299.9 162.1 299.5 162.4 298.9C162.7 298.3 162.8 297.3 162.8 296V276.9C162.8 276 162.8 275.1 162.9 274.3C162.9 273.5 163 272.8 163 272.4C162.5 272.4 161.8 272.5 161 272.5C160.2 272.5 159.6 272.5 159.2 272.6V268.8H184.2L184.5 278.5H181.2C181.2 276.7 180.9 275.3 180.2 274.3C179.6 273.4 178.8 272.7 177.9 272.4C177 272.1 176 271.9 175.1 272H173.3C172.6 272 172 272.1 171.5 272.3C171 272.5 170.6 272.9 170.4 273.5C170.1 274.1 170 275.1 170 276.4V283.9H175.9L175.7 279.5H179.5V291.7H176.4Z" fill="#7B35E3"/>
<mask id="mask0_2251_1096" style="mask-type:luminance" maskUnits="userSpaceOnUse" x="-1" y="2" width="211" height="242">
<path d="M209.8 2.7002H-0.200195V243.2H209.8V2.7002Z" fill="white"/>
</mask>
<g mask="url(#mask0_2251_1096)">
<path d="M179.1 31.0001C138.1 -6.6999 71.6001 -6.6999 30.6001 31.0001C10.1001 49.9001 -0.199865 74.7001 -0.0998648 99.4001V243.2H209.9V99.4001C209.9 74.7001 199.6 49.9001 179.1 31.0001Z" fill="#E9DDFA"/>
<path d="M117.1 88.3999C117.1 88.3999 104.5 83.9999 96.5001 85.5999C88.6001 87.1999 84.6001 90.1999 84.6001 90.1999C84.6001 90.1999 77.7001 90.4999 73.8001 92.5999C69.9001 94.6999 70.8001 118.4 71.9001 120.5C73.0001 122.5 88.4001 130.1 92.1001 135.4C95.8001 140.8 92.9001 147.4 92.7001 150.4C92.5001 153.4 92.8001 155.2 95.0001 155.5C97.2001 155.7 99.6001 154.2 100.8 153.6C102.1 153 104.8 153.5 106 154C107.2 154.6 105.9 157.7 106.4 159.8C107 161.9 108.2 164.1 108.9 166.1C109.6 168.1 117 163.2 117.1 163.8C117.2 164.4 113.8 167.1 114.3 169.8C114.8 172.6 116.4 172.4 117.4 172.4C118.4 172.3 120.9 169.6 121.1 171.1C121.3 172.6 121.8 173.7 120.3 176.8C118.7 179.9 122.8 180.7 126.1 179.9C127.6 179.6 126 183.3 128.2 187.4C130.4 191.4 137.4 196.5 140.1 200.6C142.9 204.7 141.4 203.5 138.8 203.5C136.2 203.5 126.5 203.7 120.3 205.5C114.1 207.3 109.2 209.8 109.2 209.8C109.2 209.8 99.4001 222.1 98.4001 224.3C97.4001 226.5 97.4001 228.4 93.3001 228.2C89.2001 228 71.8001 228 70.0001 201.4C68.3001 174.8 60.1001 192.4 58.8001 202.3C57.5001 212.2 58.7001 174.4 52.5001 167.5C46.3001 160.6 31.2001 148.6 39.2001 128.9C47.2001 109.2 45.5001 101.1 41.7001 93.9999C37.8001 86.8999 36.3001 81.5999 43.6001 74.1999C51.0001 66.7999 77.0001 50.1999 115 49.3999C129.4 49.9999 131.5 60.5999 134.6 70.2999C137.7 79.9999 137.9 84.6999 147.4 89.4999C156.9 94.2999 173.5 98.3999 181.6 104.9C189.7 111.3 191.6 113.9 189.4 125.5C187.2 137.2 180.9 149.5 181.6 159.6C182.3 169.7 183.5 173.4 188 177.9C192.6 182.5 196.5 185.2 199.5 190.8C202.5 196.4 205.4 199.3 205.8 204.1C206.3 208.9 202 221.3 201.9 218.9C201.8 216.4 186.3 221.7 176.9 221.6C167.5 221.5 167 222.8 164.5 223.8C162 224.8 155.6 221 159.1 216.9C162.6 212.8 193.4 203 190.1 193.3C186.8 183.6 183 174.8 173.8 170.5C164.6 166.2 161 163.3 157.6 165.3C154.1 167.4 138.3 177.1 133.3 176.3C135.4 172.2 152 141.1 153.7 140C155.4 138.9 157.1 142.2 161.2 141.6C165.2 141 168 137.5 170.3 131C172.5 124.5 172 116.7 169.6 113.9C167.2 111.1 163 113.1 162 114.7C161 116.3 154.5 122.3 154.4 124.8C154.3 127.3 154 142.3 149.3 151.3C144.7 160.3 145.1 160.9 144.1 159.6C143.1 158.3 146.4 125.8 142.1 115.9C138.6 111 117.1 88.3999 117.1 88.3999Z" fill="#BD9AF1"/>
<path d="M95.1002 63.4002C93.4002 63.6002 104.1 62.0001 108.8 66.2001C113.4 70.4001 131.7 94.4001 139.6 101.7C147.6 109 156.4 111.9 159.7 111.1C163 110.3 153.3 119.1 147.3 116.9C141.3 114.7 127.6 101 120.4 92.2001C113.3 83.5001 97.0002 63.1002 95.1002 63.4002Z" fill="#D3BCF6"/>
<path d="M106.9 170.2C108.8 170.3 110 171.5 109.7 172.1C109.4 172.7 107.8 173.4 106.3 172.8C104.8 172.3 104.2 170.1 106.9 170.2Z" fill="#D3BCF6"/>
<path d="M107.501 166.1C107.101 166 105.701 164.2 104.501 162.9C103.301 161.6 103.301 165.8 104.101 167C104.901 168.2 107.501 166.1 107.501 166.1Z" fill="#D3BCF6"/>
<path d="M63.7999 79.5001C63.7999 79.5001 60.4999 78.9001 59.2999 84.6001C58.0999 90.3001 56.2999 100.4 54.4999 105.9C52.5999 111.3 45.2999 131.7 48.6999 142.1C51.9999 152.5 61.9999 154.2 69.2999 149.9C69.2999 149.9 62.4999 152.1 58.5999 142.1C54.6999 132.2 57.3999 120.2 60.7999 111.7C64.2999 103.1 63.7999 79.5001 63.7999 79.5001Z" fill="#D3BCF6"/>
<path d="M90.1002 136.3C90.1002 136.3 85.3002 131.2 83.7002 131C82.1002 130.8 78.9002 136.8 81.1002 138C83.4002 139.3 90.1002 136.3 90.1002 136.3Z" fill="#D3BCF6"/>
<path d="M89.6001 146C87.5001 147 86.6001 149 87.2001 150.6C87.8001 152.2 91.6001 158.6 92.7001 157.5C93.8001 156.4 93.1001 146.6 93.0001 146C93.0001 145.4 91.1001 145.3 89.6001 146Z" fill="#D3BCF6"/>
<path d="M106.4 110.3C102.1 112.8 100.3 116.3 101.1 117.4C101.9 118.5 107.1 122.4 109.1 123C111.1 123.6 121.9 105.4 119.7 105.2C117.4 105.2 110.1 108.2 106.4 110.3Z" fill="#BD9AF1"/>
<path d="M121.5 215.1C123.2 215.3 132.7 218.4 138.9 218.1C142.7 217.9 146.9 217 149.5 217.6C151.1 217.9 151.8 219.2 152.3 220.4C153.4 223.3 151.6 225.7 148 224.7C145.2 223.9 137.3 222.1 129.8 220.9C122.3 219.7 121.7 219.6 119.7 219.4C117.8 219 119.2 214.7 121.5 215.1Z" fill="#BD9AF1"/>
<path d="M80.7002 82.0002C81.0002 79.4002 81.5002 76.9002 82.3002 74.5002C83.1002 72.1002 84.2002 69.6002 86.0002 67.4002C86.9002 66.3002 88.0002 65.3002 89.3002 64.4002C90.6002 63.6002 92.3002 63.1002 94.0002 63.2002C94.8002 63.2002 95.6002 63.3002 96.4002 63.5002C97.2002 63.7002 98.0002 64.0002 98.6002 64.3002C99.9002 65.0002 101.1 65.7002 102.1 66.5002C106.3 69.8002 109.7 73.5002 113.1 77.3002C116.5 81.1002 119.4 85.1002 122.5 88.9002L131.6 100.6C134.7 104.4 137.7 108.4 141 111.6C142.6 113.1 144.4 114.4 146.3 115C148.3 115.6 150.3 115.4 152.4 114.7C156.6 113.2 160.3 109.8 163.3 106L163.4 105.9C163.6 105.6 164.1 105.6 164.4 105.8C164.7 106 164.7 106.4 164.6 106.7C163.4 109 161.9 111 160.1 113C158.4 114.9 156.3 116.6 153.8 117.8C152.6 118.4 151.2 118.9 149.8 119.1C148.4 119.3 146.9 119.3 145.4 119C142.5 118.4 140 116.9 137.9 115.2C135.9 113.5 134.1 111.7 132.3 109.8C130.6 107.9 128.9 106.1 127.3 104.2C124 100.4 120.9 96.6002 117.8 92.7002C114.7 88.8002 111.6 85.1002 108.4 81.3002C106.8 79.4002 105.3 77.6002 103.6 75.8002C101.9 74.0002 100.3 72.3002 98.7002 70.7002C97.9002 70.0002 97.0002 69.2002 96.2002 68.7002C95.8002 68.4002 95.4002 68.3002 95.0002 68.1002C94.7002 68.0002 94.2002 67.9002 93.8002 67.8002C93.0002 67.7002 92.2002 67.8002 91.3002 68.2002C90.5002 68.5002 89.7002 69.2002 88.9002 69.9002C87.4002 71.4002 86.0002 73.4002 85.0002 75.5002C83.9002 77.6002 82.9002 79.9002 82.1002 82.2002C82.0002 82.6002 81.5002 82.8002 81.1002 82.6002C80.9002 82.6002 80.7002 82.3002 80.7002 82.0002Z" fill="#7B35E3"/>
<path d="M77.5003 149.2C75.4003 150.3 73.1003 151 70.7003 151.1C68.3003 151.3 65.8003 150.8 63.5003 149.7C61.2003 148.6 59.3003 146.9 57.8003 145C57.0003 144 56.4003 143 55.7003 142C55.1003 140.9 54.6003 139.8 54.2003 138.6C52.5003 133.9 52.3003 128.9 52.9003 124.3C53.5003 119.6 54.8003 115.1 56.3003 110.9C57.1003 108.8 57.9003 106.6 58.7003 104.6L59.3003 103.1C59.5003 102.6 59.7003 102.2 59.8003 101.7C60.1003 100.7 60.4003 99.8003 60.6003 98.8003C61.4003 94.8003 61.7003 90.4003 62.1003 85.9003C62.3003 83.7003 62.5003 81.3003 63.3003 78.9003C63.7003 77.7003 64.3003 76.3003 65.7003 75.2003C67.1003 74.1003 68.8003 73.9003 70.1003 74.1003C72.9003 74.5003 74.9003 75.8003 76.8003 77.1003C78.7003 78.4003 80.3003 80.0003 81.9003 81.7003C82.2003 82.0003 82.1003 82.4003 81.8003 82.7003C81.5003 82.9003 81.1003 82.9003 80.9003 82.8003C79.2003 81.5003 77.3003 80.3003 75.5003 79.3003C73.6003 78.3003 71.6003 77.4003 69.9003 77.5003C68.2003 77.6003 67.7003 78.2003 67.2003 80.1003C66.8003 81.9003 66.8003 84.1003 66.6003 86.3003C66.5003 90.7003 66.6003 95.2003 65.8003 100C65.6003 101.2 65.4003 102.4 65.0003 103.5C64.8003 104.1 64.6003 104.7 64.4003 105.2L63.8003 106.8C63.0003 108.9 62.3003 110.9 61.6003 113C60.9003 115 60.3003 117.1 59.7003 119.2C59.1003 121.3 58.7003 123.3 58.4003 125.4C58.1003 127.5 57.9003 129.5 57.9003 131.6C58.0003 133.6 58.1003 135.6 58.6003 137.6C59.6003 141.4 61.7003 145.1 65.0003 147.2C68.3003 149.3 72.8003 149.6 76.8003 148.3H76.9003C77.3003 148.2 77.7003 148.4 77.8003 148.7C77.9003 148.7 77.8003 149 77.5003 149.2Z" fill="#7B35E3"/>
<path d="M82.1005 149.6C86.8005 157.7 91.9005 165.8 98.2005 172.6C101.301 176 104.801 179 108.801 180.2C112.801 181.5 117.201 180.9 121.301 179.4C125.301 177.8 129.201 175.2 132.601 172.4C135.601 169.6 138.201 165.7 140.601 161.7C142.901 157.7 145.001 153.5 147.001 149.3C149.001 145 151.101 140.9 154.401 137.1C154.701 136.8 155.101 136.7 155.501 137C155.701 137.2 155.801 137.4 155.801 137.6C155.601 142.7 153.901 147.2 151.901 151.5C149.801 155.8 147.701 160.2 145.201 164.3C142.701 168.5 140.001 172.6 136.001 176.2C132.101 179.4 127.901 182 123.101 183.8C120.701 184.6 118.101 185.2 115.501 185.4C112.901 185.6 110.201 185.2 107.701 184.3C105.201 183.4 102.901 182.1 101.001 180.4C99.0005 178.8 97.4005 177 95.8005 175.1C92.7005 171.3 90.1005 167.3 87.7005 163.1C85.3005 158.9 83.1005 154.7 81.2005 150.3C81.0005 150 81.2005 149.5 81.6005 149.3C81.5005 149.2 81.9005 149.3 82.1005 149.6Z" fill="#7B35E3"/>
<path d="M172.5 107.3C174.4 108.6 175.7 110.4 176.4 112.6C176.7 113.7 176.9 114.8 176.8 116C176.7 117.1 176.6 118.2 176.4 119.3C175.4 123.4 173.9 127.1 172.8 130.8C172.5 131.7 172.2 132.6 172 133.5C171.8 134.5 171.5 135.6 171 136.7C170.2 138.8 168.9 141 166.6 142.4C164.4 143.8 161.4 144 159.1 143C158 142.5 157 141.8 156.2 141C155.4 140.2 154.8 139.3 154.3 138.3C154.1 138 154.3 137.5 154.6 137.3C154.8 137.2 155.2 137.2 155.3 137.4L155.4 137.5C156.9 138.6 158.6 139.5 160.1 139.8C161.6 140 163 139.6 164 138.8C165.1 138 165.9 136.6 166.6 135C166.9 134.2 167.2 133.4 167.4 132.5C167.7 131.4 168 130.4 168.4 129.5C169.1 127.5 169.9 125.7 170.7 123.9C171.5 122.1 172.3 120.3 172.9 118.5C173.5 116.7 173.9 115.1 173.7 113.4C173.5 111.7 172.8 109.9 171.6 108.6L171.5 108.5C171.2 108.2 171.3 107.8 171.6 107.5C171.9 107.1 172.2 107.1 172.5 107.3Z" fill="#7B35E3"/>
<path d="M197.5 225C200.3 220.8 202.4 216.3 203.2 211.6C204 206.8 203.1 202 201 197.8C198.9 193.5 195.8 189.7 192.4 186.1C189 182.5 185.3 179 181.9 174.9C180.2 172.8 178.5 170.6 177.4 167.5L177 166.4C176.9 166 176.8 165.6 176.8 165.2C176.7 164.8 176.7 164.4 176.7 164L176.6 162.9C176.5 161.4 176.7 160 176.8 158.6C176.9 157.2 177.2 155.9 177.5 154.6C177.8 153.3 178.1 152 178.5 150.7C179.2 148.2 180 145.7 180.8 143.3C182.4 138.5 184 133.7 185 129.1C186 124.5 186.3 119.9 185.2 116L184.7 114.6C184.5 114.2 184.4 113.6 184.1 113.3C183.8 113 183.7 112.6 183.4 112.2L183 111.6L182.5 111.1C181.2 109.7 179.5 108.5 177.5 107.3C173.6 105.1 168.9 103.3 164.2 101.6C159.5 99.8999 154.6 98.0999 149.8 95.9999C145 93.7999 139.9 91.2999 135.5 86.9999C133.3 84.7999 131.3 81.8999 130.3 78.6999C130.1 77.8999 129.8 77.0999 129.7 76.1999C129.6 75.3999 129.5 74.4999 129.4 73.6999L129.2 69.8999C128.9 64.9999 128.4 60.1999 126.8 57.4999C126 56.0999 125 55.2999 123.4 54.3999C121.8 53.5999 119.7 53.0999 117.5 52.7999C113 52.1999 108.1 52.4999 103.1 52.8999C97.9999 53.2999 92.9999 53.9999 88.0999 54.9999C85.5999 55.3999 83.1999 55.9999 80.6999 56.4999C78.2999 57.1999 75.8999 57.6999 73.4999 58.4999L69.9999 59.6999L66.5999 61.0999C65.3999 61.4999 64.3999 62.0999 63.1999 62.5999C62.0999 63.1999 60.9999 63.6999 59.8999 64.2999C55.5999 66.6999 51.5999 69.5999 48.1999 72.9999C47.3999 73.7999 46.5999 74.6999 45.7999 75.5999C45.0999 76.5999 44.2999 77.4999 43.6999 78.3999C42.3999 80.2999 41.4999 82.3999 40.9999 84.3999C40.8999 84.8999 40.7999 85.3999 40.7999 85.7999L40.6999 86.4999C40.7999 86.6999 40.7999 86.7999 40.7999 86.9999V87.1999C40.7999 87.2999 40.8999 87.3999 40.8999 87.4999L41.0999 88.1999C41.2999 88.6999 41.4999 89.1999 41.7999 89.6999C42.6999 91.5999 44.1999 93.4999 45.6999 95.7999C47.1999 98.0999 48.6999 100.9 49.1999 104.1C49.2999 104.5 49.2999 104.9 49.3999 105.3C49.4999 105.7 49.4999 106 49.4999 106.6V107.4L49.3999 108C49.2999 108.4 49.2999 108.8 49.1999 109.2C48.8999 110.7 48.5999 112 48.1999 113.2C46.7999 118.3 45.1999 123 43.8999 127.7C42.6999 132.4 41.5999 137.2 41.3999 141.7C41.1999 146.2 41.6999 150.7 43.5999 154.1C43.7999 154.5 44.0999 154.9 44.3999 155.3C44.6999 155.7 44.9999 156 45.3999 156.4C45.6999 156.8 46.0999 157.1 46.4999 157.4L47.0999 157.9L47.8999 158.6C49.9999 160.3 51.9999 162.1 53.8999 164.2C54.7999 165.3 55.7999 166.3 56.4999 167.5C57.2999 168.6 58.0999 169.9 58.7999 171.1C60.0999 173.6 61.2999 176.3 61.7999 179.2C62.9999 184.9 62.1999 190.7 61.0999 195.7C59.9999 200.8 58.6999 205.6 57.6999 210.5C56.6999 215.4 55.8999 220.3 55.6999 225.2C55.5999 230 55.9999 235.1 58.7999 239L58.8999 239.1C59.0999 239.4 59.0999 239.9 58.6999 240.1C58.3999 240.3 57.9999 240.3 57.7999 240C55.7999 238.1 54.4999 235.6 53.6999 233.1C52.8999 230.6 52.4999 227.9 52.1999 225.3C51.7999 220.1 52.0999 214.9 52.6999 209.7C53.2999 204.6 54.1999 199.5 54.8999 194.6C55.6999 189.7 55.8999 185.1 54.6999 180.9C54.0999 178.8 53.1999 176.8 52.0999 174.9C51.4999 174 50.8999 173 50.0999 172.1C49.3999 171.2 48.5999 170.4 47.8999 169.5C46.2999 167.8 44.4999 166.3 42.6999 164.8L41.0999 163.5C40.4999 163 39.8999 162.5 39.3999 161.9C38.8999 161.3 38.2999 160.8 37.8999 160.2C37.4999 159.6 36.8999 159 36.5999 158.3C34.9999 155.7 33.9999 152.7 33.3999 149.8C32.8999 146.9 32.7999 144 32.9999 141.3C33.2999 135.7 34.4999 130.5 35.9999 125.5C36.6999 123 37.5999 120.5 38.3999 118.1C39.1999 115.7 40.0999 113.3 40.8999 111C41.2999 109.9 41.5999 108.7 41.8999 107.7C41.9999 107.4 41.9999 107.2 42.0999 107L42.1999 106.7C42.1999 106.6 42.1999 106.6 42.1999 106.5C42.2999 106.4 42.1999 106.1 42.1999 105.9C42.1999 105.7 42.1999 105.4 42.0999 105.2C41.8999 103.3 41.0999 101.5 39.9999 99.3999C38.8999 97.2999 37.2999 95.0999 36.0999 92.3999C35.7999 91.6999 35.5999 90.9999 35.2999 90.2999L34.9999 89.1999C35.0999 88.9999 34.9999 88.7999 34.9999 88.5999L34.8999 87.8999C34.7999 87.4999 34.7999 86.8999 34.7999 86.4999C34.7999 86.0999 34.8999 85.6999 34.8999 85.2999C34.9999 84.4999 35.0999 83.6999 35.2999 82.8999C36.1999 79.9999 37.4999 77.4999 39.1999 75.2999C39.9999 74.1999 40.8999 73.1999 41.7999 72.0999C42.7999 71.0999 43.6999 70.0999 44.6999 69.1999C48.5999 65.4999 53.0999 62.5999 57.6999 60.1999C62.2999 57.6999 67.0999 55.5999 72.0999 53.9999C73.2999 53.5999 74.5999 53.1999 75.7999 52.7999L79.4999 51.6999L86.8999 49.6999C91.7999 48.3999 96.7999 47.0999 102 45.9999C107.1 44.8999 112.3 43.9999 118 44.0999C120.8 44.1999 123.8 44.4999 126.9 45.6999C130 46.7999 133.1 49.1999 135 52.1999C137 55.1999 137.8 58.2999 138.3 61.0999C138.8 63.9999 139 66.5999 139.2 69.1999L139.4 73.0999L139.5 74.3999C139.6 74.7999 139.7 75.1999 139.8 75.5999C140.2 77.1999 141.2 78.5999 142.6 79.9999C145.4 82.7999 149.5 85.1999 153.8 87.1999C158.2 89.1999 162.9 90.9999 167.6 92.8999C172.4 94.8999 177.2 96.7999 182 99.6999C184.4 101.2 186.8 102.9 188.9 105.3L189.7 106.2L190.4 107.2C190.9 107.9 191.3 108.6 191.7 109.4C192.1 110.2 192.3 110.9 192.5 111.6L193.2 113.8C194.6 119.8 193.9 125.6 192.5 130.8C191.2 136 189.3 140.9 187.5 145.6C185.8 150.3 184 155 183.2 159.5C183 160.6 182.9 161.7 182.9 162.8C182.9 163.3 182.8 164 182.9 164.3L183 164.9L183.2 165.6C183.7 167.5 184.9 169.4 186.3 171.3C192.1 179 200.2 186.2 204.4 196.2C206.5 201.1 207.1 206.9 205.8 212.1C204.5 217.3 201.8 221.9 198.5 225.9C198.3 226.2 197.8 226.2 197.5 226C197.4 225.7 197.3 225.3 197.5 225Z" fill="#7B35E3"/>
<path d="M126.2 181.3C127.7 183.6 129.5 186 131.2 188.2C133 190.4 134.8 192.5 136.9 194.4C139.2 196.6 140.9 199.2 142.1 202C143.2 204.8 144.1 207.8 143.7 210.9C143.6 211.3 143.3 211.6 142.9 211.5C142.5 211.4 142.3 211.2 142.3 210.8V210.7C142.4 208.1 141.3 205.3 140.1 202.9C138.8 200.5 137 198.3 134.9 196.7C132.5 194.9 130.3 192.8 128.3 190.7C126.2 188.6 124.3 186.4 122.3 184.1C121.4 183 121.6 181.5 122.6 180.6C123.7 179.8 125.2 179.9 126.1 180.9C126 181.2 126.1 181.2 126.2 181.3Z" fill="#7B35E3"/>
<path d="M131.9 191.8C130.8 193.7 129.7 195.4 128.2 197C126.9 198.6 125.3 200.2 123.5 201.6C120.1 204.1 116.9 206.4 113.7 208.8C110.6 211.3 107.5 213.8 104.8 216.5C102 219.3 99.7004 222.1 98.4004 225.8V225.9C98.3004 226.3 97.8004 226.5 97.5004 226.3C97.2004 226.2 97.1004 226 97.0004 225.7C96.8004 223.5 97.0004 221.1 98.0004 219.1C98.8004 217 100 215.1 101.3 213.4C104 209.9 107.3 207.2 110.7 204.7C114.1 202.2 117.8 200.1 121.3 198.1C124.6 196.3 127.7 193.6 130.7 190.9C131 190.6 131.5 190.7 131.7 191C132 191.2 132 191.6 131.9 191.8Z" fill="#7B35E3"/>
<path d="M159.2 140.7C162.7 145.3 165.9 150 169.3 154.6C170.9 156.9 172.7 159.2 174.4 161.5C176.1 163.8 177.9 166 179.6 168.4C179.8 168.7 179.8 169.2 179.4 169.4C179.2 169.6 178.8 169.6 178.6 169.4C176.1 167.8 173.8 165.9 171.7 163.8C169.6 161.7 167.7 159.4 165.9 157.1C164.2 154.7 162.6 152.2 161.2 149.6C159.9 147 158.7 144.3 157.9 141.3C157.8 140.9 158 140.5 158.4 140.4C158.8 140.4 159 140.5 159.2 140.7Z" fill="#7B35E3"/>
<path d="M68.2 151.1C69.8 155 70.7001 159.1 71.3001 163.2C71.6001 165.3 71.9 167.3 72 169.4C72.1 171.5 72.2 173.6 72.2 175.6C72.3 177.7 72.1 179.8 72 181.9L71.7 187.9C71.4 191.8 71.5 195.7 71.6 199.5C72 207.1 73.3 214.8 77.5 220.3C77.7 220.7 78.1001 221 78.3001 221.3C78.6001 221.6 78.9 222 79.2 222.2C79.5 222.5 79.8 222.8 80.1 223L81.1 223.7C82.5 224.7 84.1 225.4 85.9 225.9C89.4 226.9 93.4001 227 97.3001 226.5H97.5C97.9 226.4 98.2001 226.7 98.3001 227.1C98.4001 227.4 98.1001 227.8 97.8001 227.9C93.8001 229.2 89.6 229.6 85.4 228.9C83.3 228.5 81.3001 227.8 79.4001 226.8C77.5001 225.8 75.9 224.3 74.5 222.8C71.7 219.7 69.9001 215.8 68.8001 211.8C67.6001 207.8 67.1001 203.8 66.8001 199.7C66.6001 195.6 66.7 191.5 67 187.5C67.3 183.4 67.8 179.4 68.1 175.4C68.5 167.4 68.2 159.2 66.7 151.4C66.6 151 66.9001 150.6 67.3001 150.6C67.6001 150.5 68 150.7 68.1 151L68.2 151.1Z" fill="#7B35E3"/>
<path d="M87.4005 129.9C89.6005 131.9 91.8005 133.9 93.7005 136.2C94.1005 136.8 94.6005 137.4 95.0005 138.2C95.4005 138.9 95.7005 139.7 95.8005 140.7C95.9005 142.4 95.5005 143.8 95.2005 145.4L94.4005 149.7C94.1005 151.1 93.9005 152.5 93.9005 153.6C94.0005 154.2 94.0005 154.3 94.2005 154.6C94.4005 154.9 94.8005 155.3 95.2005 155.6C96.2005 156.3 97.4005 156.8 98.7005 157.3L98.8005 157.4C99.2005 157.6 99.4005 158 99.1005 158.4C99.0005 158.6 98.8005 158.7 98.6005 158.8C97.0005 159.1 95.4005 159.1 93.7005 158.5C92.9005 158.2 92.0005 157.7 91.3005 156.8C90.6005 156 90.2005 154.6 90.2005 153.7C90.2005 151.8 90.7005 150.4 91.2005 148.9C91.7005 147.5 92.2005 146.1 92.7005 144.7C93.2005 143.4 93.6005 141.9 93.7005 140.8C93.7005 139.8 93.0005 138.5 92.2005 137.4C90.6005 135.1 88.5005 133 86.4005 131.1C86.1005 130.8 86.1005 130.4 86.3005 130.1C86.6005 129.7 87.1005 129.7 87.4005 129.9Z" fill="#7B35E3"/>
<path d="M100.601 168.1C100.401 168.3 102.701 168.7 105.001 168.8C107.301 169 109.101 170 110.201 169.5C111.301 169.1 113.901 166.5 115.801 165.1C117.701 163.8 120.701 161.7 121.501 160.5C122.201 159.3 120.901 158.9 119.601 160C118.301 161.1 115.701 161.6 112.701 162C109.701 162.4 109.201 163 108.301 164.9C107.501 166.6 105.301 164.8 103.901 165.5C102.501 166.3 102.201 167.4 101.101 167.3C100.101 167.5 100.601 168.1 100.601 168.1Z" fill="#7B35E3"/>
<path d="M109.7 175.2C109.7 175.2 115.4 177.3 120.3 170.5L109.7 175.2Z" fill="#7B35E3"/>
<path d="M129.8 119.2C126.9 121.3 120.8 126.1 112.1 126C111.4 126 110.7 126.4 110.5 127.1C109.4 129.7 109.7 134.4 107.8 136.7C108.4 137.1 112.4 133 113.4 132C114.4 131 118.3 133.1 124.5 127.4C128.1 124.1 129.8 121.5 130.7 119.9C131 119.4 130.3 118.8 129.8 119.2Z" fill="#7B35E3"/>
<path d="M89.0006 136.1C86.2006 136.8 81.0006 137.2 78.0006 136.7C76.0006 137.1 74.2006 142.5 71.6006 144.2C72.2006 144.4 76.2006 143.4 77.8006 142.1C78.6006 141.4 82.9006 141.7 85.9006 141C88.7006 140.4 90.3006 138.9 90.9006 138.3C91.6006 137.5 91.0006 136.4 90.4006 135.8C90.1006 135.4 89.6006 136 89.0006 136.1Z" fill="#7B35E3"/>
<path d="M99.0999 117.3C98.4999 114.9 100.8 108.6 106.9 106.3C113 103.9 124.7 101.6 125.4 102.3C126.1 103 111.9 109.3 106.9 112.3C102 115.3 99.2999 118.1 99.0999 117.3Z" fill="#7B35E3"/>
<path d="M85.2001 122.7C85.6001 122.8 85.8001 122.3 85.5001 122C83.9001 120.6 80.0001 118.1 76.8001 118C72.7001 117.9 63.9001 122.4 63.9001 123.2C63.8001 123.8 68.3001 122.6 75.4001 122.4C80.2001 122.2 83.5001 122.5 85.2001 122.7Z" fill="#7B35E3"/>
<path d="M81.6004 82C83.3004 80.6 85.3004 79.4 87.3004 78.3C89.3004 77.3 91.5004 76.5 93.6004 75.9C95.8004 75.3 98.0004 74.9 100.3 74.8C102.5 74.6 104.8 74.9 107 75.3C107.1 75.3 107.2 75.5 107.2 75.6C107.2 75.7 107.1 75.8 107 75.8C104.8 75.7 102.6 75.6 100.4 75.9C99.3004 76 98.2004 76.2 97.1004 76.3C96.0004 76.5 95.0004 76.7 93.9004 77C91.8004 77.6 89.7004 78.3 87.7004 79.2C85.7004 80.1 83.7004 81.1 81.9004 82.3C81.8004 82.4 81.6004 82.4 81.6004 82.2C81.5004 82.2 81.5004 82.1 81.6004 82Z" fill="#7B35E3"/>
<path d="M81.3998 82.5999C79.9998 82.4999 78.5998 82.5999 77.1998 82.6999C75.7998 82.8999 74.3998 83.0999 73.1998 83.4999C71.8998 83.8999 70.6998 84.4999 69.4998 85.2999C68.2998 86.0999 67.4998 87.0999 66.6998 88.1999C66.5998 88.2999 66.4998 88.2999 66.3998 88.2999C66.2998 88.1999 66.2998 88.0999 66.2998 87.9999C66.8998 86.6999 67.7998 85.3999 68.8998 84.3999C70.0998 83.4999 71.3998 82.7999 72.8998 82.3999C74.2998 81.9999 75.7998 81.7999 77.1998 81.6999C78.6998 81.5999 80.0998 81.7999 81.4998 81.9999C81.5998 81.9999 81.6998 82.1999 81.6998 82.2999C81.5998 82.5999 81.4998 82.6999 81.3998 82.5999Z" fill="#7B35E3"/>
<path d="M174 73.5001C172.4 73.1001 170.7 73.1001 169.1 72.9001C167.4 72.8001 165.5 72.8001 164.3 74.0001C164.1 74.2001 163.9 74.5001 163.9 74.8001C163.9 75.3001 164.4 75.6001 164.8 76.0001C167 77.5001 168.8 79.5001 170.7 81.3001C172.6 83.1001 174.7 84.9001 177.3 85.7001C179.2 86.3001 186 86.5001 184.7 83.1001C183.6 80.2001 181.4 77.5001 178.9 75.7001C177.4 74.7001 175.8 73.9001 174 73.5001Z" fill="#7B35E3"/>
<path d="M177.2 54.2001C177.4 51.9001 177.8 49.5001 179.1 47.6001C179.2 47.5001 179.3 47.4001 179.4 47.3001C179.7 47.2001 180 47.5001 180.2 47.7001C181 48.8001 181.8 49.9001 182.6 51.0001C183.4 52.1001 184.2 53.2001 184.8 54.5001C186.3 57.6001 186.3 61.3001 185.6 64.7001C185.2 66.7001 184.4 68.6001 183.6 70.5001C183 71.8001 182.2 74.0001 180.7 72.1001C179.6 70.7001 179.1 68.4001 178.6 66.7001C178 64.8001 177.6 62.8001 177.4 60.9001C177.1 58.5001 177.1 56.3001 177.2 54.2001Z" fill="#7B35E3"/>
<path d="M155.201 56.3003C154.801 56.3003 154.301 56.3003 153.901 56.5003C153.501 56.7003 153.101 57.1003 153.101 57.5003C153.101 57.9003 153.401 58.3003 153.701 58.7003C154.701 59.9003 155.801 61.1003 156.801 62.2003C158.201 63.8003 159.701 65.5003 161.301 66.8003C162.101 67.4003 162.901 68.0003 163.801 68.4003C164.701 68.7003 165.701 68.9003 166.701 69.0003C169.801 69.4003 173.101 69.7003 175.901 68.3003C178.101 67.2003 176.101 65.8003 175.101 64.7003C173.901 63.4003 172.501 62.3003 171.001 61.3003C168.001 59.3003 164.701 57.8003 161.201 57.0003C159.201 56.6003 157.201 56.3003 155.201 56.3003Z" fill="#7B35E3"/>
<path d="M166.2 44.9999C166 41.6999 166.3 38.1999 168.4 35.6999C168.5 35.4999 168.7 35.3999 168.9 35.3999C169.1 35.3999 169.2 35.4999 169.3 35.5999C170.3 36.3999 170.9 37.6999 171.4 38.9999C172.2 40.8999 173.1 42.7999 173.5 44.7999C173.9 46.7999 174.1 48.9999 173.4 50.8999C172.8 52.4999 171.8 53.8999 170.9 55.2999C170.7 55.5999 170.4 55.9999 169.9 55.9999C169.3 56.0999 168.7 54.4999 168.4 53.9999C167.8 53.0999 167.4 52.0999 167.1 51.0999C166.6 49.1999 166.3 47.0999 166.2 44.9999Z" fill="#7B35E3"/>
<path d="M157.2 48.3003C153.5 47.2003 149.6 47.6003 145.9 46.8003C144.3 46.5003 142.7 46.0003 141.2 45.3003C141.5 46.6003 142.3 47.8003 143.3 48.7003C144.3 49.6003 145.5 50.2003 146.7 50.7003C148.9 51.7003 151.3 52.4003 153.7 52.9003C155.2 53.2003 156.8 53.3003 158.3 53.1003C159.1 52.9003 162.2 52.0003 162.1 50.7003C162 49.8003 158 48.5003 157.2 48.3003Z" fill="#7B35E3"/>
<path d="M159.8 46.1002C157.5 45.3002 155.8 43.2002 154.8 41.0002C153 37.2002 152.7 32.7002 154.1 28.8002C154.3 28.2002 154.8 27.4002 155.4 27.5002C155.8 27.5002 156.2 27.8002 156.5 28.2002C157.4 29.3002 157.9 30.7002 158.7 31.9002C159.3 32.9002 160.1 33.6002 160.7 34.6002C162.4 37.3002 162.7 40.9002 161.3 43.7002C161 44.3002 160.6 44.9002 160.5 45.5002C160.3 46.1002 160.4 46.9002 160.9 47.4002" fill="#7B35E3"/>
<path d="M142.301 32.5999C141.501 31.3999 140.701 30.1999 140.001 28.9999C138.001 24.9999 138.001 20.2999 138.101 15.6999C138.101 15.0999 138.201 14.3999 138.601 13.9999C139.201 13.3999 140.301 13.7999 141.001 14.2999C142.701 15.7999 143.101 18.2999 144.101 20.3999C144.901 22.0999 146.101 23.4999 146.901 25.1999C148.101 27.9999 148.201 31.1999 147.501 34.0999C147.201 35.1999 146.501 36.5999 145.301 35.8999C144.001 35.3999 143.101 33.5999 142.301 32.5999Z" fill="#7B35E3"/>
<path d="M143.301 38.0002C137.301 35.7002 130.801 35.0002 124.501 35.9002C122.601 36.2002 120.701 36.6002 119.101 37.7002C122.301 38.5002 125.501 39.3002 128.701 40.1002C131.601 40.8002 134.501 41.5002 137.401 41.6002C139.301 41.6002 141.101 41.4002 142.801 40.7002C143.401 40.5002 144.901 40.0002 145.201 39.4002C145.701 38.6002 143.901 38.3002 143.301 38.0002Z" fill="#7B35E3"/>
<path d="M127.4 24.8999C125.6 21.8999 124.8 18.3999 124.7 14.7999C124.7 13.9999 124.7 13.0999 125.1 12.3999C125.5 11.6999 126.4 11.1999 127.2 11.3999C127.5 11.4999 127.9 11.7999 128.1 12.0999C129.4 13.5999 129.9 15.7999 131.1 17.2999C131.7 18.0999 132.6 18.7999 133.2 19.5999C134.2 20.8999 134.5 22.5999 134.6 24.1999C134.7 25.7999 134.5 27.2999 134.5 28.8999C134.5 30.2999 134.7 30.9999 133.1 30.1999C130.8 29.0999 128.8 27.1999 127.4 24.8999Z" fill="#7B35E3"/>
<path d="M107.9 27.1002C107.2 27.3002 106.6 27.5002 106 27.9002C105.4 28.3002 105 28.9002 105 29.6002C107.1 30.0002 109.2 29.4002 111.3 29.7002C112.6 29.9002 113.8 30.4002 115.1 30.8002C116.4 31.2002 117.8 31.5002 119.1 31.6002C120.6 31.7002 122.1 31.7002 123.5 31.0002C124.5 30.5002 125.7 29.3002 125.6 28.1002C125.4 26.9002 123.9 26.6002 123 26.5002C119.7 25.8002 116.4 25.7002 113.1 26.1002C111.4 26.2002 109.6 26.6002 107.9 27.1002Z" fill="#7B35E3"/>
<path d="M118.3 23.7999C115.2 23.0999 112.1 22.0999 109.3 20.4999C106.5 18.8999 104 16.7999 102.3 14.0999C102 13.5999 101.7 12.8999 102 12.3999C102.2 12.0999 102.6 11.9999 103 11.8999C104.5 11.6999 105.7 12.7999 107 13.4999C110.3 15.3999 114.6 14.7999 117.9 16.7999C120 18.0999 121.5 20.2999 122.3 22.6999C122.6 23.4999 122.7 24.3999 123.3 25.1999C122.3 25.4999 121.1 25.2999 120.3 24.4999" fill="#7B35E3"/>
<path d="M112.3 21C120.8 23.2 128.9 26.4 136.7 30.3C144.6 34.2 152 39 158.8 44.5C162.2 47.3 165.4 50.3 168.5 53.5C171.5 56.8 174.3 60.2 176.7 63.9C179.2 67.6 181.2 71.5 182.9 75.6C184.5 79.7 185.7 84 186.4 88.2C186.4 88.3 186.3 88.4 186.2 88.5C186.1 88.5 186 88.4 185.9 88.3C184.5 84.2 183 80.2 181 76.4C179 72.6 176.8 69 174.3 65.6C169.2 58.7 163.2 52.7 156.5 47.3C149.9 41.9 142.7 37.2 135.3 32.9C127.8 28.7 120.1 24.8 112 21.6C111.9 21.5 111.8 21.4 111.9 21.3C112.1 21.1 112.2 21 112.3 21Z" fill="#7B35E3"/>
<path d="M13.5001 104.9C13.1001 99.7002 13.3001 94.6002 13.9001 89.5002C14.5001 84.4002 15.5001 79.4002 16.9001 74.4002C18.2001 69.5002 20.0001 64.6002 22.2001 60.0002C24.3001 55.3002 27.0001 50.9002 29.8001 46.7002C30.0001 46.4002 30.4001 46.4002 30.6001 46.5002C30.8001 46.6002 30.9001 47.0002 30.8001 47.2002C28.5001 51.7002 26.2001 56.2002 24.4001 60.9002C23.4001 63.2002 22.7001 65.6002 21.8001 68.0002C21.1001 70.4002 20.3001 72.8002 19.7001 75.2002C18.4001 80.0002 17.3001 84.9002 16.5001 89.9002C15.7001 94.8002 15.0001 99.8002 14.6001 104.8C14.6001 105.1 14.3001 105.4 14.0001 105.4C13.8001 105.4 13.6001 105.2 13.5001 104.9Z" fill="#7B35E3"/>
<path d="M14.6999 101.1C15.4999 98.3002 16.0999 95.4002 17.0999 92.6002C18.0999 89.8002 19.4999 87.1002 21.6999 85.1002C21.9999 84.9002 22.2999 84.6002 22.6999 84.5002C23.0999 84.4002 23.4999 84.4002 23.7999 84.7002C23.9999 84.9002 24.0999 85.3002 24.0999 85.5002C24.1999 86.4002 24.0999 87.2002 23.9999 88.1002C23.7999 90.0002 23.5999 91.9002 23.3999 93.8002C23.2999 94.8002 23.1999 95.8002 22.7999 96.7002C22.1999 98.2002 20.8999 99.2002 19.6999 100.1C18.3999 100.9 16.8999 101.6 15.5999 102.4C15.1999 102.6 14.7999 103.1 14.3999 103.2C14.1999 102.6 14.4999 101.8 14.6999 101.1Z" fill="#7B35E3"/>
<path d="M31.5005 52.4003C32.6005 51.4003 33.8005 50.4003 35.1005 49.6003C36.6005 48.6003 38.3005 48.0003 39.9005 47.4003C40.0005 47.3003 40.2005 47.3003 40.3005 47.3003C40.5005 47.4003 40.6005 47.5003 40.7005 47.7003C41.0005 48.6003 40.8005 49.7003 40.3005 50.5003C39.8005 51.3003 39.1005 52.0003 38.4005 52.7003C36.5005 54.8003 35.2005 57.6003 32.8005 59.1003C31.3005 60.1003 29.5005 60.5003 27.7005 60.6003C27.0005 60.7003 24.8005 61.2003 24.6005 60.4003C24.4005 59.6003 25.8005 58.1003 26.3005 57.5003C27.9005 55.6003 29.7005 54.0003 31.5005 52.4003Z" fill="#7B35E3"/>
<path d="M25.2998 54.5003C25.9998 51.2003 25.4998 47.8003 26.0998 44.6003C26.7998 40.9003 28.9998 37.5003 32.1998 35.3003C33.5998 40.0003 32.8998 45.2003 30.2998 49.3003C29.1998 51.0003 27.7998 52.6003 26.3998 54.1003" fill="#7B35E3"/>
<path d="M13.8002 96.4999C13.6002 91.4999 12.1002 86.5999 9.50019 82.2999C9.20019 81.6999 8.70019 81.0999 8.00019 80.8999C7.80019 82.7999 7.6002 84.5999 7.4002 86.4999C7.3002 87.7999 7.2002 88.9999 7.2002 90.2999C7.4002 94.6999 9.60019 99.0999 13.1002 101.8C13.2002 101.9 13.4002 102 13.5002 101.9C13.7002 101.8 13.7002 101.7 13.7002 101.5C13.9002 100.5 14.0002 99.4999 14.1002 98.5999" fill="#7B35E3"/>
<path d="M17.8998 81.1999C17.9998 80.1999 18.3998 79.2999 18.7998 78.3999C21.1998 73.3999 25.3998 69.2999 30.3998 66.8999C30.7998 68.1999 30.5998 69.6999 30.2998 71.1999C30.0998 72.4999 29.8998 73.7999 29.5998 75.1999C29.4998 75.8999 29.3998 76.4999 28.9998 77.0999C28.5998 77.6999 27.9998 78.0999 27.3998 78.4999C24.5998 80.1999 21.7998 81.8999 19.0998 83.6999C18.6998 83.9999 18.2998 84.1999 17.7998 84.3999C17.3998 84.5999 16.8998 84.6999 16.5998 84.4999C16.3998 84.3999 16.3998 84.1999 16.2998 83.9999C16.0998 83.1999 15.9998 82.3999 16.0998 81.5999" fill="#7B35E3"/>
<path d="M16.7006 77.2003C16.9006 73.6003 16.0006 70.0003 14.2006 67.0003C13.6006 66.1003 13.0006 65.3003 12.1006 64.8003C11.2006 66.3003 11.0006 68.1003 11.1006 69.8003C11.2006 71.5003 11.6006 73.2003 11.7006 74.9003C11.9006 77.2003 11.5006 79.7003 12.7006 81.7003C13.2006 82.6003 14.4006 83.4003 15.3006 82.9003" fill="#7B35E3"/>
<path d="M18.9 68.8999C17.3 65.7999 16.7 62.1999 17.2 58.6999C17.7 55.1999 19.3 51.8999 21.7 49.3999C22 50.8999 22 52.4999 22.2 54.0999C22.4 55.1999 22.6 56.1999 22.7 57.3999C22.8 59.6999 22 61.9999 21.2 64.1999" fill="#7B35E3"/>
<path d="M21.8998 67.4001C22.6998 65.7001 24.5998 64.8001 26.2998 63.9001C27.8998 63.1001 29.5998 62.3001 31.3998 62.1001C31.6998 62.5001 31.2998 63.1001 30.9998 63.4001C29.0998 65.3001 26.9998 67.1001 24.3998 67.6001C23.2998 67.8001 22.1998 67.9001 21.2998 68.6001" fill="#7B35E3"/>
<path d="M147.9 172.8C153.2 166.2 156.3 158.1 158.7 150C159.4 147.7 160 145.3 160.7 143C160.9 142.3 159.7 141.9 159.5 142.7C157.3 150.7 155.1 158.8 150.9 166.1C149.7 168.1 148.4 170.1 147 171.9C146.5 172.5 147.4 173.4 147.9 172.8Z" fill="#7B35E3"/>
<path d="M84.1998 53.9003C80.8998 60.1003 80.4998 67.2003 80.2998 74.1003C80.2998 74.9003 81.4998 74.9003 81.4998 74.1003C81.6998 67.5003 81.8998 60.5003 85.1998 54.5003C85.5998 53.8003 84.5998 53.1003 84.1998 53.9003Z" fill="#7B35E3"/>
<path d="M101.9 58.5001C103.4 58.4001 104.8 59.2001 105.9 60.1001C107.1 61.1001 108.3 62.3001 109.4 63.4001C111.7 65.8001 113.9 68.3001 116 70.9001C120.4 76.3001 124.8 81.7001 129.1 87.1001C131.6 90.2001 134.2 93.4001 136.7 96.6001C137.2 97.2001 138 96.4001 137.5 95.8001C132.9 90.1001 128.3 84.4001 123.7 78.7001C119.4 73.3001 115.2 67.7001 110.3 62.8001C109 61.5001 107.7 60.2001 106.3 59.1001C105 58.1001 103.4 57.2001 101.7 57.4001C101.1 57.4001 101.1 58.6001 101.9 58.5001Z" fill="#7B35E3"/>
<path d="M141.601 101.3C144.201 104.3 147.301 106.9 150.801 109C151.501 109.4 152.101 108.3 151.401 107.9C148.001 105.9 145.001 103.3 142.501 100.4C142.001 99.8999 141.101 100.8 141.601 101.3Z" fill="#7B35E3"/>
<path d="M140.5 89.8C144.5 94.4 148.7 99.1 153.9 102.4C156.3 104 159 105.3 161.8 106C164.7 106.8 167.6 106.8 170.6 106.8C174 106.7 177.5 106.7 180.7 108.1C181.4 108.4 182 107.4 181.3 107C175.7 104.5 169.6 106.3 163.8 105.1C157.9 104 152.8 100.4 148.5 96.4C146 94 143.7 91.4 141.3 88.8C140.8 88.4 140 89.2 140.5 89.8Z" fill="#7B35E3"/>
<path d="M81.3998 68.8001C78.8998 66.6001 75.7998 65.5001 72.4998 65.2001C69.1998 64.9001 65.3998 65.2001 62.6998 67.3001C62.0998 67.8001 62.8998 68.6001 63.4998 68.1001C64.6998 67.1001 66.3998 66.7001 67.8998 66.5001C69.3998 66.3001 70.8998 66.3001 72.2998 66.4001C75.1998 66.7001 78.0998 67.7001 80.2998 69.7001C80.9998 70.2001 81.8998 69.3001 81.3998 68.8001Z" fill="#7B35E3"/>
<path d="M56.0005 78.5003C55.2005 80.1003 54.9005 81.8003 54.7005 83.6003C54.5005 85.6003 54.3005 87.6003 54.1005 89.7003C53.8005 93.6003 53.7005 97.6003 53.3005 101.5C53.1005 103.3 52.9005 105.1 52.3005 106.8C51.8005 108.6 50.9005 110.2 49.8005 111.7C48.8005 113 47.8005 114.3 46.9005 115.7C46.3005 116.7 45.8005 117.7 45.3005 118.7C44.6005 120 44.1005 121.4 43.6005 122.8C43.2005 123.9 42.8005 125.2 43.0005 126.3C43.1005 127.1 44.3005 127.1 44.2005 126.3C44.1005 125.3 44.4005 124.3 44.7005 123.3C45.1005 122.1 45.6005 120.8 46.2005 119.6C46.7005 118.5 47.2005 117.5 47.8005 116.5C48.6005 115.2 49.5005 114 50.4005 112.8C51.4005 111.4 52.4005 109.9 53.0005 108.3C53.7005 106.7 54.0005 104.9 54.2005 103.2C54.7005 99.4003 54.8005 95.6003 55.0005 91.9003C55.2005 89.7003 55.3005 87.5003 55.6005 85.2003C55.8005 83.1003 55.9005 80.9003 56.9005 79.0003C57.4005 78.4003 56.3005 77.8003 56.0005 78.5003Z" fill="#7B35E3"/>
<path d="M46.5006 140.8C47.6006 145 50.3006 148.4 53.9006 150.8C57.4006 153.1 61.6006 152.8 65.5006 152.3C67.6006 152 69.7006 151.6 71.7006 151.1C72.4006 150.9 72.1006 149.8 71.4006 149.9C68.1006 150.7 64.7006 151.3 61.2006 151.4C59.1006 151.4 57.1006 151.2 55.3006 150.2C53.6006 149.2 52.0006 147.9 50.7006 146.5C49.1006 144.8 48.1006 142.7 47.6006 140.4C47.5006 139.7 46.4006 140 46.5006 140.8Z" fill="#7B35E3"/>
<path d="M46.4 127.8C46.2 129.6 46 131.3 46 133.1C46 133.4 46.3 133.7 46.6 133.7C46.9 133.7 47.2 133.4 47.2 133.1C47.3 131.3 47.5 129.5 47.6 127.8C47.7 127.5 47.3 127.2 47 127.2C46.6 127.2 46.4 127.5 46.4 127.8Z" fill="#7B35E3"/>
<path d="M83.2998 128.2C80.8998 127.6 78.3998 127.2 75.8998 127.3C75.0998 127.3 75.0998 128.5 75.8998 128.5C78.2998 128.5 80.6998 128.8 82.9998 129.4C83.6998 129.5 83.9998 128.4 83.2998 128.2Z" fill="#7B35E3"/>
<path d="M109.4 115.5C110.7 114.3 112.7 113.8 114.4 113.3C116.3 112.7 118.3 112.4 120.3 112.3C121.1 112.2 121.1 111 120.3 111.1C118.1 111.3 116 111.7 113.9 112.2C112 112.7 110.1 113.3 108.6 114.7C108 115.2 108.8 116 109.4 115.5Z" fill="#7B35E3"/>
<path d="M90.2006 75.8001C91.7006 73.1001 94.0006 71.0001 96.8006 69.8001C97.0006 69.7001 97.1006 69.4001 97.0006 69.1001C96.9006 68.9001 96.6006 68.8001 96.3006 68.9001C93.3006 70.2001 90.9006 72.4001 89.3006 75.3001C89.0006 75.8001 89.9006 76.3001 90.2006 75.8001Z" fill="#7B35E3"/>
<path d="M92.4004 77.3C93.4004 76.1 94.4004 75.1 95.7004 74.2C95.9004 74 96.0004 73.8 95.9004 73.5C95.8004 73.3 95.5004 73.2 95.2004 73.3C93.9004 74.2 92.7004 75.3 91.8004 76.6C91.6004 76.8 91.6004 77.1 91.8004 77.3C91.9004 77.5 92.2004 77.5 92.4004 77.3Z" fill="#7B35E3"/>
<path d="M75.0997 81.9003C72.1997 80.8003 68.8997 79.7003 65.7997 80.9003C65.1997 81.1003 65.4997 82.1003 66.0997 81.9003C68.9997 80.7003 72.0997 81.8003 74.8997 82.9003C75.3997 83.0003 75.6997 82.1003 75.0997 81.9003Z" fill="#7B35E3"/>
<path d="M65.9998 83.9C66.1998 83.8 66.3998 83.8 66.5998 83.8C66.6998 83.8 66.4998 83.8 66.6998 83.8C66.7998 83.8 66.7998 83.8 66.8998 83.8C66.9998 83.8 67.0998 83.8 67.1998 83.8C67.5998 83.8 67.9998 83.8 68.2998 83.8C68.4998 83.8 68.7998 83.6 68.7998 83.3C68.7998 83 68.5998 82.9 68.2998 82.8C67.4998 82.7 66.6998 82.8 65.8998 83C65.6998 83.1 65.4998 83.3 65.5998 83.6C65.4998 83.9 65.6998 84 65.9998 83.9Z" fill="#7B35E3"/>
<path d="M98.5002 72.5003C98.6002 72.4003 98.7002 72.4003 98.8002 72.4003C98.8002 72.4003 98.9002 72.4003 98.9002 72.3003C98.8002 72.3003 98.8002 72.3003 98.9002 72.3003C99.0002 72.3003 99.0002 72.3003 99.0002 72.2003C99.2002 72.1003 99.3002 72.1003 99.6002 72.0003C99.7002 72.0003 99.8002 71.9003 99.9002 71.9003C100 71.9003 100 71.9003 100 71.9003C100 71.9003 100.2 71.8003 100.1 71.9003C100.3 71.8003 100.5 71.8003 100.7 71.8003C100.9 71.8003 101.2 71.6003 101.2 71.3003C101.2 71.0003 101 70.8003 100.7 70.8003C99.8002 70.8003 99.0002 71.0003 98.2002 71.4003C98.0002 71.5003 97.9002 71.8003 98.0002 72.1003C98.0002 72.5003 98.3002 72.6003 98.5002 72.5003Z" fill="#7B35E3"/>
<path d="M70.7 129.3C70.4 129.7 70 130.2 69.6 130.6C69.5 130.7 69.5 130.8 69.5 130.9C69.5 131 69.6 131.2 69.6 131.2C69.7 131.3 69.8 131.4 69.9 131.3C70 131.3 70.2 131.2 70.2 131.2C70.5 130.8 70.9 130.3 71.3 129.9C71.4 129.8 71.4 129.7 71.4 129.6C71.4 129.5 71.3 129.3 71.3 129.3C71.2 129.2 71.1 129.1 71 129.2C71 129.1 70.8 129.2 70.7 129.3Z" fill="#7B35E3"/>
<path d="M110.3 118C110.2 118.8 110 119.6 109.7 120.3C109.6 120.5 109.8 120.9 110 120.9C110.3 121 110.5 120.8 110.6 120.6C110.9 119.9 111 119.1 111.2 118.3C111.2 118.2 111.2 118.1 111.1 117.9C111 117.8 110.9 117.7 110.8 117.7C110.7 117.6 110.3 117.8 110.3 118Z" fill="#7B35E3"/>
<path d="M133.5 117.9C133.2 121.2 131.9 124.4 129.7 126.9C129.3 127.3 130 128.1 130.4 127.6C132.7 124.8 134.1 121.5 134.4 117.9C134.6 117.3 133.6 117.3 133.5 117.9Z" fill="#7B35E3"/>
<path d="M135.1 121.9C134.9 122.8 134.5 123.8 134.2 124.6C134.1 124.8 134.3 125.2 134.5 125.2C134.8 125.3 135 125.1 135.1 124.9C135.5 124 135.8 123.1 136 122.2C136.1 122 135.9 121.6 135.7 121.6C135.5 121.5 135.2 121.6 135.1 121.9Z" fill="#7B35E3"/>
<path d="M174.2 113.3C180.2 116.4 185 121.8 187.5 128.1C187.8 128.8 189 128.5 188.7 127.8C186.1 121.2 181.2 115.6 174.8 112.2C174.1 112 173.5 113 174.2 113.3Z" fill="#7B35E3"/>
<path d="M173.5 121.9C179 128 182.6 135.7 183.7 143.9C183.8 144.6 185 144.7 184.9 143.9C184.1 137.3 181.6 131 177.9 125.5C176.8 124 175.7 122.5 174.4 121.1C173.9 120.4 173 121.3 173.5 121.9Z" fill="#7B35E3"/>
<path d="M170.5 131.2C171.6 132.8 172 134.9 172.4 136.7C172.8 138.7 173.1 140.6 173.4 142.6C174 146.1 174.7 149.6 176.4 152.8C177.3 154.5 178.5 156 179.9 157.2C180.5 157.7 181.4 156.9 180.7 156.4C175 151.6 174.9 143.4 173.5 136.6C173.1 134.6 172.7 132.3 171.5 130.6C171.1 130 170 130.6 170.5 131.2Z" fill="#7B35E3"/>
<path d="M165.6 140.5C165.5 143.4 165.3 146.4 165.4 149.4C165.4 152.1 165.7 154.7 167 157.2C167.3 157.9 168.4 157.3 168.1 156.6C166.9 154.2 166.7 151.6 166.7 149C166.7 146.2 166.9 143.4 166.9 140.6C166.9 139.8 165.6 139.8 165.6 140.5Z" fill="#7B35E3"/>
<path d="M85.7001 158.6C88.1001 168.4 85.1001 178.4 83.3001 188.1C82.3001 193.1 81.6001 198.1 80.9001 203.2C80.3001 208.1 79.5001 213.1 80.4001 218C81.2001 222.3 83.5001 226.5 87.5001 228.6C88.2001 228.9 88.8001 227.9 88.1001 227.5C84.6001 225.6 82.5001 222.1 81.7001 218.3C80.7001 213.5 81.5001 208.5 82.0001 203.8C82.6001 198.8 83.4001 193.9 84.3001 189C85.2001 184.2 86.3001 179.3 87.1001 174.5C87.9001 169.2 88.1001 163.7 86.8001 158.4C86.7001 157.6 85.6001 157.9 85.7001 158.6Z" fill="#7B35E3"/>
<path d="M97.6005 174.1C98.8005 177.9 98.3005 182 97.3005 185.8C96.3005 189.7 94.9005 193.5 93.6005 197.3C91.2005 204.3 89.2005 212.1 92.0005 219.3C93.3005 222.6 95.5005 225.6 98.6005 227.4C99.3005 227.8 99.9005 226.7 99.2005 226.3C93.2005 222.9 91.3005 215.6 91.8005 209.2C92.5005 201.3 96.3005 194 98.2005 186.4C99.2005 182.3 99.9005 177.9 98.5005 173.8C98.5005 173 97.4005 173.4 97.6005 174.1Z" fill="#7B35E3"/>
<path d="M110.1 183.1C110.9 185 110.5 186.9 109.8 188.8C109.1 190.8 108 192.7 107.1 194.6L104.2 200.4C103.3 202.3 102.3 204.1 101.8 206.1C101.2 208.4 101 210.8 101.3 213.1C101.4 213.8 102.6 213.9 102.5 213.1C102.2 211 102.3 208.8 102.9 206.7C103.4 204.7 104.4 202.8 105.3 200.9C106.3 198.9 107.3 196.9 108.3 194.8C109.2 192.9 110.2 191.1 110.9 189.2C111.7 187.2 112.1 184.9 111.2 182.8C111 182.1 109.8 182.4 110.1 183.1Z" fill="#7B35E3"/>
<path d="M124.4 184.5C124.8 188 122.7 191.2 120.7 193.9C119.7 195.2 118.7 196.6 117.8 198.1C117.1 199.3 116 201 116.8 202.4C117.2 203.1 118.3 202.5 117.9 201.8C117.5 201.1 118 200.2 118.3 199.6C118.7 198.9 119.1 198.2 119.6 197.5C120.6 196.1 121.6 194.8 122.6 193.4C124.5 190.7 126 187.6 125.5 184.2C125.5 183.5 124.3 183.8 124.4 184.5Z" fill="#7B35E3"/>
<path d="M196.4 113.8C197.5 123.1 196.4 132.6 193.3 141.4C193 142.1 194.2 142.5 194.5 141.7C196.9 134.8 198.2 127.4 198 120.1C198 118 197.8 115.9 197.6 113.8C197.5 113 196.3 113 196.4 113.8Z" fill="#7B35E3"/>
<path d="M190.6 148.6C189.7 150.8 189.1 153.2 188.8 155.6C188.7 155.9 188.9 156.2 189.2 156.3C189.5 156.4 189.9 156.2 189.9 155.9C190.2 153.5 190.9 151.2 191.7 148.9C191.8 148.6 191.6 148.2 191.3 148.2C191.1 148.1 190.8 148.3 190.6 148.6Z" fill="#7B35E3"/>
<path d="M30.5997 86.9003C30.8997 90.2003 31.6997 93.3003 33.0997 96.3003C34.2997 99.2003 36.1996 101.7 36.6996 104.9C36.7996 105.7 37.9997 105.3 37.8997 104.6C37.4997 101.6 35.7997 99.0003 34.4997 96.3003C33.0997 93.3003 32.2997 90.1003 31.9997 86.9003C31.6997 86.1003 30.4997 86.1003 30.5997 86.9003Z" fill="#7B35E3"/>
<path d="M35.0002 113.3C34.7002 114.6 34.4002 116.1 34.1002 117.4C34.0002 117.7 34.2002 118.1 34.5002 118.1C34.8002 118.2 35.2002 118 35.2002 117.7C35.5002 116.4 35.8002 114.9 36.1002 113.6C36.2002 113.3 36.0002 112.9 35.7002 112.9C35.5002 112.8 35.1002 112.9 35.0002 113.3Z" fill="#7B35E3"/>
<path d="M79.6004 149.7C79.9004 149.7 80.1004 149.8 80.4004 149.8C80.5004 149.8 80.6004 149.8 80.7004 149.9C80.9004 149.9 80.6004 149.9 80.8004 149.9C80.9004 149.9 80.9004 149.9 81.0004 149.9C81.5004 150 82.0004 150.1 82.5004 150.2C82.8004 150.3 83.2004 150.1 83.2004 149.8C83.3004 149.5 83.1004 149.1 82.8004 149.1C81.7004 148.9 80.7004 148.7 79.5004 148.7C79.2004 148.7 78.9004 149 78.9004 149.3C79.0004 149.4 79.3004 149.6 79.6004 149.7Z" fill="#7B35E3"/>
<path d="M161.4 134.5C161.5 134.5 161.5 134.5 161.4 134.5C161.3 134.5 161.3 134.5 161.2 134.5C161.1 134.4 161.1 134.4 161.1 134.5C161.1 134.6 161 134.5 161 134.4C161 134.4 161 134.5 161.1 134.5C161.1 134.4 161.1 134.6 161.1 134.6C161.1 134.7 161.1 134.7 161.1 134.7V134.8C161.1 134.9 161.1 134.7 161.1 134.7C161.1 134.8 161 134.8 161.1 134.7C161.2 134.6 161.2 134.6 161.2 134.6C161.1 134.7 161.2 134.6 161.3 134.6C161.3 134.6 161.4 134.7 161.4 134.6C161.5 134.7 161.3 134.5 161.4 134.6C161.4 134.6 161.5 134.7 161.5 134.6C161.4 134.6 161.4 134.5 161.5 134.6L161.4 134.5C161.4 134.4 161.4 134.3 161.4 134.3V134.2C161.4 134.3 161.4 134.3 161.4 134.3C161.4 134.3 161.4 134.2 161.3 134.4C161.2 134.6 161.2 134.5 161.3 134.5L161.2 134.6C161.2 134.5 161.4 134.4 161.4 134.5C161.4 134.4 161.3 134.4 161.4 134.5L161.5 134.4C161.5 134.4 161.4 134.4 161.4 134.5C161.5 134.4 161.6 134.4 161.6 134.5C161.7 134.5 161.5 134.5 161.5 134.5H161.6L161.7 134.6C161.7 134.6 161.6 134.5 161.6 134.6L161.7 134.7C161.7 134.7 161.7 134.8 161.8 134.8L161.9 134.9V135C161.9 135.1 161.9 134.9 161.9 135C161.9 135.1 161.9 135.1 161.9 135.1C161.9 135.2 161.9 135 161.9 135V135.1C161.9 135.1 161.9 135.2 161.8 135.2C161.8 135.2 161.9 135.1 161.8 135.1L161.7 135.2C161.8 135.1 161.6 135.3 161.7 135.2C161.7 135.2 161.7 135.2 161.6 135.3C161.6 135.3 161.5 135.3 161.5 135.4H161.4C161.5 135.3 161.5 135.3 161.5 135.4H161.4H161.3C161.2 135.4 161.2 135.4 161.1 135.4C161 135.4 160.9 135.4 161 135.4C160.9 135.4 160.9 135.4 160.8 135.3C160.7 135.3 160.7 135.2 160.6 135.2C160.6 135.2 160.5 135.2 160.5 135.1C160.5 135.1 160.4 135.1 160.4 135L160.3 134.9C160.4 135 160.2 134.8 160.3 134.9C160.3 134.8 160.2 134.8 160.2 134.8C160.2 134.8 160.3 134.9 160.2 134.9V134.8C160.2 134.7 160.2 134.7 160.1 134.6C160.1 134.5 160.1 134.7 160.1 134.7V134.6C160.1 134.5 160.1 134.5 160.1 134.4V134.3C160.1 134.2 160.1 134.2 160.1 134.3C160.1 134.2 160.2 134.1 160.2 134C160.3 133.9 160.1 134.1 160.2 134C160.2 133.9 160.3 133.9 160.3 133.9L160.4 133.8L160.5 133.7C160.6 133.6 160.4 133.8 160.5 133.7C160.6 133.7 160.6 133.6 160.6 133.6C160.6 133.6 160.7 133.6 160.7 133.5C160.7 133.4 160.6 133.5 160.6 133.5C160.7 133.4 160.8 133.4 160.9 133.4C161 133.4 160.8 133.4 160.9 133.4C161 133.4 161 133.4 161.1 133.4C161.2 133.4 161.2 133.4 161.3 133.4C161.2 133.4 161.3 133.4 161.4 133.4C161.5 133.4 161.5 133.4 161.6 133.5H161.7C161.7 133.5 161.8 133.6 161.9 133.6C161.8 133.5 162 133.7 162 133.7L162.1 133.8C162.1 133.9 162.2 133.9 162.2 133.9L162.3 134C162.3 134.1 162.4 134.1 162.4 134.2C162.4 134.1 162.4 134.3 162.4 134.3C162.4 134.4 162.4 134.4 162.4 134.5C162.4 134.6 162.4 134.4 162.4 134.5C162.4 134.6 162.4 134.6 162.4 134.6C162.4 134.6 162.3 134.7 162.3 134.8C162.3 134.9 162.3 134.8 162.3 134.7C162.3 134.7 162.3 134.8 162.2 134.8C162.2 134.9 162.1 134.9 162.1 135C162.1 135 162.1 135.1 162 135.1C162 135.1 161.9 135.2 162 135.2C162.1 135.2 162 135.2 161.9 135.3C161.9 135.4 161.8 135.4 161.8 135.4C161.6 135.6 161.6 136 161.8 136.2C162 136.4 162.4 136.4 162.6 136.2C163.2 135.6 163.4 134.9 163.3 134.1C163.1 133.4 162.5 132.8 161.8 132.6C161.1 132.4 160.2 132.6 159.7 133.2C159.2 133.8 159 134.5 159.2 135.3C159.3 135.7 159.5 136 159.9 136.3C160.2 136.5 160.7 136.6 161.1 136.6C161.9 136.6 162.6 136.1 162.7 135.4C162.9 134.6 162.4 133.9 161.6 133.5C161.3 133.4 160.9 133.3 160.6 133.4C160.1 133.6 159.9 134 159.9 134.5C159.9 135 160.1 135.5 160.5 135.8C160.9 136.1 161.5 136 161.8 135.7C162.2 135.3 162.1 134.7 161.9 134.2C161.7 133.8 161.2 133.4 160.7 133.5C160.4 133.6 160.2 133.9 160.3 134.2C160.4 134.5 160.7 134.8 161 134.6L161.4 134.5Z" fill="#7B35E3"/>
<path d="M164.8 128.9H164.9C164.9 128.8 164.8 128.8 164.8 128.9H164.9C164.9 128.9 164.8 128.8 164.8 128.9C164.9 128.9 164.9 128.9 165 129C164.9 128.9 164.9 128.8 164.8 128.9C164.9 128.9 164.9 128.9 164.9 129C164.9 128.9 164.8 128.9 164.8 128.8C164.9 128.8 164.9 128.8 164.8 128.9C164.9 128.8 164.9 128.7 164.9 128.7C164.9 128.8 164.9 128.8 164.8 128.8C164.8 128.7 164.9 128.7 164.9 128.6C164.9 128.7 164.8 128.7 164.8 128.7C164.9 128.6 164.9 128.6 164.9 128.6C164.8 128.7 164.8 128.7 164.8 128.7C164.9 128.6 164.9 128.6 164.9 128.6C164.8 128.7 164.8 128.7 164.7 128.7C164.8 128.7 164.8 128.7 164.9 128.7C164.8 128.7 164.8 128.7 164.7 128.6C164.8 128.6 164.8 128.7 164.9 128.7C164.8 128.7 164.8 128.6 164.8 128.6C164.9 128.7 164.9 128.7 164.9 128.7C164.8 128.6 164.8 128.6 164.7 128.5C164.8 128.6 164.8 128.6 164.8 128.6C164.7 128.5 164.7 128.5 164.7 128.4C164.7 128.5 164.8 128.5 164.8 128.6C164.7 128.5 164.7 128.4 164.7 128.4C164.7 128.5 164.7 128.5 164.7 128.6C164.7 128.5 164.7 128.4 164.7 128.4C164.7 128.5 164.7 128.5 164.7 128.6C164.7 128.5 164.7 128.5 164.8 128.4C164.8 128.5 164.7 128.5 164.7 128.6C164.7 128.5 164.8 128.5 164.8 128.5C164.7 128.6 164.7 128.6 164.7 128.6L164.8 128.5C164.7 128.6 164.7 128.6 164.7 128.6L164.8 128.5C164.7 128.5 164.7 128.6 164.6 128.6C164.7 128.6 164.7 128.6 164.7 128.6C164.6 128.6 164.6 128.6 164.5 128.6C164.6 128.6 164.6 128.6 164.6 128.6C164.5 128.6 164.5 128.6 164.4 128.6C164.5 128.6 164.5 128.6 164.5 128.7C164.4 128.6 164.4 128.6 164.4 128.6C164.5 128.7 164.5 128.7 164.5 128.7C164.4 128.6 164.4 128.6 164.4 128.6C164.5 128.7 164.5 128.7 164.5 128.8C164.5 128.7 164.4 128.7 164.4 128.6C164.5 128.7 164.5 128.8 164.5 128.9C164.5 128.8 164.5 128.8 164.5 128.7C164.5 128.8 164.5 128.9 164.5 129C164.5 129.2 164.6 129.3 164.7 129.4C164.8 129.5 165 129.6 165.1 129.6C165.4 129.6 165.7 129.3 165.7 129C165.7 128.9 165.7 128.8 165.7 128.7C165.7 128.6 165.7 128.5 165.6 128.4C165.6 128.3 165.5 128.2 165.5 128.1C165.3 127.8 165.1 127.5 164.8 127.4C164.6 127.3 164.4 127.3 164.2 127.4C164 127.5 163.9 127.6 163.7 127.7C163.6 127.9 163.5 128 163.4 128.2C163.3 128.3 163.3 128.5 163.3 128.6C163.3 128.7 163.4 128.9 163.4 129C163.5 129.2 163.6 129.3 163.7 129.5C163.9 129.8 164.3 129.9 164.6 129.9C164.7 129.9 164.7 129.9 164.8 129.9C164.9 129.9 164.9 129.9 165 129.8C165.2 129.7 165.3 129.6 165.4 129.5C165.6 129.3 165.8 128.9 165.7 128.7C165.7 128.5 165.6 128.3 165.5 128.2C165.4 128 165.3 127.9 165.1 127.8C164.9 127.7 164.8 127.7 164.5 127.6C164.4 127.6 164.4 127.6 164.3 127.6C164.2 127.6 164.1 127.6 164 127.7C163.8 127.8 163.7 127.8 163.7 128C163.6 128.1 163.6 128.3 163.6 128.4C163.7 128.6 163.7 128.7 163.9 128.7C164.5 128.9 164.7 128.9 164.8 128.9Z" fill="#7B35E3"/>
<path d="M168.7 112.5C167.4 111.6 165.8 111.5 164.3 112.1C162.7 112.8 161.8 114.1 161 115.6C160.7 116.4 160.3 117.2 160 118C159.7 118.8 159.4 119.7 159 120.5C158.3 121.8 156.7 123.1 157 124.8C157.2 125.8 158 126 158.7 126.6C159.4 127.2 159.9 128.1 160.3 128.9C160.6 129.6 161.7 129 161.4 128.3C161 127.5 160.6 126.8 160 126.1C159.7 125.8 159.4 125.5 159 125.3C158.6 125 158.2 124.9 158.2 124.3C158.2 123.4 159.1 122.6 159.5 121.9C160 121.1 160.5 120.3 160.7 119.4C161.3 117.6 161.8 115.5 163.1 114.1C164.3 112.8 166.3 112.4 167.8 113.4C168.8 114 169.3 112.9 168.7 112.5Z" fill="#7B35E3"/>
<path d="M160.701 120.9C160.301 120.7 160.201 120.7 160.401 120.8L160.501 120.9C160.601 121 160.601 121 160.601 121.1C160.701 121.2 160.801 121.3 160.901 121.4L161.001 121.5C160.901 121.4 160.901 121.4 161.001 121.5C161.101 121.6 161.101 121.6 161.101 121.6C161.101 121.6 161.201 121.8 161.201 121.7C161.201 121.8 161.301 121.8 161.301 121.9C161.401 122 161.401 122.2 161.401 122.3C161.401 122.4 161.401 122.5 161.501 122.5C161.501 122.6 161.501 122.6 161.501 122.6C161.501 122.7 161.501 122.7 161.501 122.7C161.501 122.7 161.501 122.7 161.501 122.8C161.501 122.9 161.501 122.9 161.501 122.9C161.501 123 161.501 123.1 161.501 123.1C161.501 123.3 161.501 123.4 161.601 123.5C161.601 123.8 161.901 124.1 162.201 124.1C162.501 124.1 162.801 123.8 162.801 123.5C162.801 123.1 162.701 122.7 162.701 122.3C162.701 121.9 162.601 121.6 162.501 121.2C162.301 120.9 162.101 120.5 161.801 120.2C161.501 119.9 161.201 119.4 160.701 119.6C160.401 119.7 160.201 120 160.301 120.3C160.001 120.7 160.301 121 160.701 120.9Z" fill="#7B35E3"/>
<path d="M169 115.3C169.1 116.6 168.8 117.9 167.9 118.9C167 119.9 165.8 120.3 164.5 120.6C163.8 120.8 164.1 122 164.8 121.8C166.3 121.4 167.7 120.8 168.8 119.7C169.9 118.5 170.3 116.9 170.2 115.4C170.2 114.5 168.9 114.5 169 115.3Z" fill="#7B35E3"/>
<path d="M154.7 120.8C157.2 118.9 158 115.7 159.5 113.2C159.9 112.5 158.8 111.9 158.4 112.6C157 115 156.3 118.1 154 119.8C153.7 120 153.6 120.3 153.8 120.6C154 120.9 154.4 121.1 154.7 120.8Z" fill="#7B35E3"/>
<path d="M158.8 166.4C157.8 168.3 156.7 170.1 155.6 171.8C155.2 172.5 156.2 173 156.7 172.4C157.8 170.6 158.9 168.8 159.9 167C160.2 166.3 159.2 165.7 158.8 166.4Z" fill="#7B35E3"/>
<path d="M162.9 149.9C163.1 153.6 162.501 157.1 161.301 160.6C161.101 161.3 162.2 161.7 162.5 160.9C163.7 157.4 164.401 153.6 164.101 149.9C164.001 149.1 162.9 149.1 162.9 149.9Z" fill="#7B35E3"/>
<path d="M168.1 158.8C168.4 163.6 166.3 168.1 164.2 172.4C163.9 173.1 164.9 173.7 165.3 173C167.4 168.6 169.7 163.9 169.3 158.8C169.2 158 168 158 168.1 158.8Z" fill="#7B35E3"/>
<path d="M174 164.4C174.4 167.8 173 171 171.6 173.9C171.3 174.6 172.3 175.2 172.7 174.5C174.2 171.2 175.7 167.8 175.2 164.1C175.1 163.8 174.8 163.6 174.5 163.7C174.2 163.7 174 164 174 164.4Z" fill="#7B35E3"/>
</g>
</g>
<defs>
<clipPath id="clip0_2251_1096">
<rect width="210" height="305" fill="white"/>
</clipPath>
</defs>
</svg>
