<svg width="272" height="106" viewBox="0 0 272 106" fill="none" xmlns="http://www.w3.org/2000/svg">
<path d="M117.942 37.5577C117.231 37.5577 116.519 37.7 115.95 37.8423C115.381 37.9846 114.954 38.4115 114.669 38.9808C114.385 39.55 114.242 40.5462 114.242 41.9692V56.2C114.242 58.3346 114.527 60.1846 114.954 61.6077C115.381 63.0308 116.092 64.1692 116.804 64.8808C117.515 65.7346 118.512 66.3038 119.508 66.5885C120.504 66.8731 121.5 67.1577 122.496 67.1577C124.346 67.1577 126.054 66.8731 127.335 66.0192C128.615 65.1654 129.754 64.0269 130.465 62.3192C131.177 60.6115 131.604 58.6192 131.604 56.0577V42.5385C131.604 41.5423 131.604 40.6885 131.604 39.8346C131.604 38.9808 131.746 38.2692 131.746 37.8423C131.177 37.8423 130.465 37.8423 129.612 37.9846C128.758 37.9846 128.188 37.9846 127.762 38.1269V34.1423H139.715V37.5577C139.004 37.5577 138.292 37.7 137.723 37.8423C137.154 37.9846 136.727 38.4115 136.442 38.9808C136.158 39.55 136.015 40.5462 136.015 41.9692V54.9192C136.015 57.9077 135.588 60.3269 134.877 62.4615C134.165 64.5962 133.169 66.1615 131.888 67.4423C130.608 68.7231 129.042 69.5769 127.335 70.1462C125.627 70.7154 123.635 71 121.642 71C118.796 71 116.377 70.5731 114.385 69.7192C112.392 68.8654 110.969 67.7269 109.831 66.3038C108.692 64.8808 107.981 63.1731 107.412 61.1808C106.985 59.1885 106.7 57.1962 106.7 54.9192V42.3962C106.7 41.4 106.7 40.5462 106.842 39.6923C106.842 38.8385 106.985 38.1269 106.985 37.7C106.415 37.7 105.704 37.7 104.85 37.8423C103.996 37.8423 103.427 37.8423 103 37.9846V34H117.8V37.5577H117.942Z" fill="#7B35E3"/>
<path d="M143.558 70.2885V66.8731C144.411 66.8731 144.981 66.7308 145.55 66.5885C146.119 66.4462 146.546 66.0193 146.831 65.4501C147.115 64.8808 147.258 63.8847 147.258 62.4616V42.6808C147.258 41.6847 147.258 40.8308 147.4 39.977C147.4 39.1231 147.542 38.4116 147.542 37.9847C146.973 37.9847 146.261 37.9847 145.408 38.127C144.554 38.127 143.985 38.127 143.558 38.2693V34.2847H158.358V37.7001C157.646 37.7001 156.935 37.8424 156.365 37.9847C155.796 38.127 155.369 38.5539 155.085 39.1231C154.8 39.6924 154.658 40.6885 154.658 42.1116V61.8924C154.658 62.8885 154.658 63.7424 154.658 64.5962C154.658 65.4501 154.515 66.0193 154.515 66.4462H161.488C163.481 66.4462 165.046 65.7347 166.327 64.3116C167.608 62.8885 168.035 60.7539 168.035 57.9077H171.45L171.165 70.2885H143.558Z" fill="#7B35E3"/>
<path d="M192.368 57.9077C192.368 56.4847 192.084 55.3462 191.657 54.777C191.23 54.0654 190.661 53.7808 189.807 53.4962C189.095 53.3539 188.241 53.2116 187.245 53.3539H185.965V61.8924C185.965 62.8885 185.965 63.7424 185.965 64.5962C185.965 65.4501 185.822 66.0193 185.822 66.4462H192.795C193.791 66.4462 194.788 66.1616 195.784 65.7347C196.78 65.3077 197.491 64.4539 198.203 63.4577C198.772 62.3193 199.199 60.8962 199.199 59.0462H202.615L202.33 70.4308H175.007V67.0154C175.861 67.0154 176.43 66.8731 176.999 66.7308C177.568 66.5885 177.995 66.1616 178.28 65.5924C178.565 65.0231 178.707 64.027 178.707 62.6039V42.6808C178.707 41.6847 178.707 40.8308 178.849 39.977C178.849 39.1231 178.991 38.4116 178.991 37.9847C178.422 37.9847 177.711 37.9847 176.857 38.127C176.003 38.127 175.434 38.127 175.007 38.2693V34.2847H200.765L201.049 44.2462H197.634C197.634 42.3962 197.349 40.9731 196.638 39.977C195.926 38.9808 195.215 38.4116 194.218 37.9847C193.222 37.7001 192.368 37.5577 191.372 37.5577H189.522C188.811 37.5577 188.241 37.7 187.672 37.8424C187.103 37.9847 186.818 38.4116 186.534 39.1231C186.249 39.6924 186.107 40.6885 186.107 42.1116V49.7962H192.084L191.941 45.2424H195.926V57.7654H192.368V57.9077Z" fill="#7B35E3"/>
<path d="M206.174 70.2885V66.8731C207.17 66.5885 208.166 66.0193 209.162 65.1654C210.158 64.3116 211.297 63.0308 212.577 61.3231L218.554 53.3539C217.131 51.6462 215.851 49.7962 214.427 48.0885C213.004 46.3808 211.724 44.5308 210.301 42.8231C209.731 42.1116 209.304 41.2577 208.735 40.4039C208.308 39.5501 207.881 38.6962 207.597 37.9847C207.027 37.9847 206.601 37.9847 206.174 38.127C205.747 38.127 205.32 38.127 205.035 38.2693V34.2847H220.689V37.7001H220.12C218.981 37.7001 218.27 37.8424 217.843 38.127C217.416 38.4116 217.274 38.8385 217.416 39.4077C217.558 39.977 217.843 40.5462 218.412 41.2577C219.266 42.2539 219.977 43.2501 220.689 44.1039C221.401 45.1001 222.254 46.0962 222.966 47.0924L226.951 41.6847C227.662 40.6885 228.231 39.977 228.658 39.5501C229.085 39.1231 229.512 38.6962 229.939 38.2693C229.37 38.2693 228.658 38.2693 227.804 38.4116C226.951 38.5539 226.381 38.4116 225.954 38.5539V34.5693H237.624V37.9847C236.77 38.127 236.058 38.4116 235.204 38.8385C234.493 39.2654 233.639 39.977 232.785 40.6885C231.931 41.5424 231.077 42.5385 230.224 43.8193L225.243 50.65C226.381 52.0731 227.377 53.3539 228.516 54.777C229.512 56.2001 230.651 57.4808 231.789 58.9039C232.927 60.327 233.924 61.6077 235.062 63.0308C235.631 63.7424 236.201 64.4539 236.627 65.1654C237.054 65.877 237.481 66.4462 237.766 67.0154C238.335 67.0154 238.762 66.8731 239.047 66.8731C239.331 66.8731 239.616 66.8731 239.901 66.8731V70.8577H224.531V67.4424C225.812 67.4424 226.666 67.3 226.951 67.0154C227.377 66.7308 227.377 66.3039 227.235 65.7347C227.093 65.1654 226.666 64.5962 226.239 63.8847C225.385 62.7462 224.531 61.6077 223.677 60.6116C222.824 59.4731 221.97 58.3347 220.974 57.3385C220.262 58.3347 219.408 59.4731 218.697 60.4693C217.985 61.4654 217.131 62.6039 216.42 63.6001C215.708 64.5962 215.139 65.3077 214.712 65.7347C214.285 66.1616 214.001 66.7308 213.574 67.0154C214.143 67.0154 214.854 67.0154 215.566 66.8731C216.277 66.8731 216.847 66.8731 217.274 66.8731V70.8577H206.174V70.2885Z" fill="#7B35E3"/>
<path d="M260.676 57.9077C260.676 56.4847 260.391 55.3462 259.964 54.777C259.538 54.0654 258.968 53.7808 258.114 53.4962C257.403 53.3539 256.549 53.2116 255.553 53.3539H254.272V61.8924C254.272 62.8885 254.272 63.7424 254.272 64.5962C254.272 65.4501 254.13 66.0193 254.13 66.4462H261.103C262.099 66.4462 263.095 66.1616 264.091 65.7347C265.088 65.3077 265.799 64.4539 266.511 63.4577C267.08 62.3193 267.507 60.8962 267.507 59.0462H270.922L270.638 70.4308H243.314V67.0154C244.168 67.0154 244.738 66.8731 245.307 66.7308C245.876 66.5885 246.303 66.1616 246.588 65.5924C246.872 65.0231 247.014 64.027 247.014 62.6039V42.6808C247.014 41.6847 247.014 40.8308 247.157 39.977C247.157 39.1231 247.299 38.4116 247.299 37.9847C246.73 37.9847 246.018 37.9847 245.164 38.127C244.311 38.2693 243.741 38.127 243.314 38.2693V34.2847H269.072L269.357 44.2462H265.941C265.941 42.3962 265.657 40.9731 264.945 39.977C264.234 38.9808 263.522 38.4116 262.526 37.9847C261.53 37.7001 260.676 37.5577 259.68 37.5577H257.83C257.118 37.5577 256.549 37.7 255.98 37.8424C255.411 37.9847 255.126 38.4116 254.841 39.1231C254.557 39.6924 254.414 40.6885 254.414 42.1116V49.7962H260.391L260.249 45.2424H264.234V57.7654H260.676V57.9077Z" fill="#7B35E3"/>
<mask id="mask0_2251_989" style="mask-type:luminance" maskUnits="userSpaceOnUse" x="1" y="3" width="95" height="100">
<path d="M95.7004 3H1.90039V102.2H95.7004V3Z" fill="white"/>
</mask>
<g mask="url(#mask0_2251_989)">
<path d="M53.5003 31.0998C53.5003 31.0998 47.6003 28.9998 43.9003 29.8998C40.2003 30.6998 38.4003 31.9998 38.4003 31.9998C38.4003 31.9998 35.2003 32.0998 33.4003 33.0998C31.6003 34.0998 32.0003 45.0998 32.5003 45.9998C33.0003 46.9998 40.2003 50.4998 41.8003 52.8998C43.5003 55.3998 42.2003 58.4998 42.1003 59.8998C42.0003 61.2998 42.2003 62.0998 43.2003 62.1998C44.2003 62.2998 45.3003 61.5998 45.9003 61.2998C46.5003 60.9998 47.7003 61.2998 48.3003 61.4998C48.9003 61.7998 48.2003 63.1998 48.5003 64.1998C48.8003 65.1998 49.3003 66.1998 49.6003 67.0998C49.9003 67.9998 53.4003 65.7998 53.4003 65.9998C53.4003 66.2998 51.9003 67.4998 52.1003 68.7998C52.3003 70.0998 53.1003 69.9998 53.5003 69.9998C54.0003 69.9998 55.1003 68.6998 55.2003 69.3998C55.3003 70.0998 55.5003 70.5998 54.8003 71.9998C54.1003 73.3998 56.0003 73.7998 57.5003 73.3998C58.2003 73.1998 57.4003 74.9998 58.4003 76.7998C59.4003 78.6998 62.7003 80.9998 63.9003 82.8998C65.2003 84.7998 64.5003 84.2998 63.3003 84.2998C62.1003 84.2998 57.6003 84.3998 54.7003 85.1998C51.9003 85.9998 49.6003 87.1998 49.6003 87.1998C49.6003 87.1998 45.1003 92.8998 44.6003 93.8998C44.1003 94.9998 44.1003 95.7998 42.2003 95.6998C40.3003 95.5998 32.2003 95.5998 31.4003 83.2998C30.6003 70.8998 26.8003 79.0998 26.2003 83.6998C25.6003 88.2998 26.1003 70.7998 23.3003 67.5998C20.4003 64.3998 13.4003 58.8998 17.1003 49.6998C20.8003 40.4998 20.0003 36.7998 18.2003 33.4998C16.4003 30.1998 15.7003 27.6998 19.1003 24.2998C22.5003 20.8998 34.6003 13.1998 52.2003 12.7998C58.9003 13.0998 59.8003 17.9998 61.3003 22.4998C62.8003 26.9998 62.8003 29.1998 67.2003 31.3998C71.6003 33.5998 79.3003 35.5998 83.1003 38.4998C86.9003 41.4998 87.8003 42.6998 86.7003 48.0998C85.6003 53.4998 83.0003 59.3998 83.3003 64.0998C83.6003 68.7998 84.1003 70.4998 86.3003 72.5998C88.5003 74.6998 90.2003 75.9998 91.6003 78.5998C93.0003 81.1998 94.3003 82.4998 94.6003 84.7998C94.8003 86.9998 92.8003 92.7998 92.8003 91.6998C92.8003 90.5998 85.5003 92.9998 81.2003 92.9998C76.9003 92.9998 76.6003 93.5998 75.5003 93.9998C74.4003 94.4998 71.4003 92.6998 73.0003 90.7998C74.6003 88.8998 88.9003 84.2998 87.4003 79.7998C85.9003 75.2998 84.1003 71.1998 79.8003 69.1998C75.5003 67.1998 73.9003 65.7998 72.2003 66.7998C70.6003 67.6998 63.2003 72.2998 60.9003 71.8998C61.9003 69.9998 69.6003 55.5998 70.4003 54.9998C71.2003 54.3998 72.0003 55.9998 73.9003 55.7998C75.8003 55.4998 77.1003 53.8998 78.1003 50.8998C79.2003 47.8998 78.9003 44.1998 77.8003 42.9998C76.7003 41.6998 74.7003 42.5998 74.2003 43.3998C73.7003 44.1998 70.7003 46.8998 70.7003 48.0998C70.7003 49.2998 70.5003 56.1998 68.4003 60.3998C66.3003 64.5998 66.5003 64.7998 66.0003 64.2998C65.4003 63.4998 67.0003 48.3998 65.0003 43.7998C63.4003 41.4998 53.5003 31.0998 53.5003 31.0998Z" fill="#BD9AF1"/>
<path d="M43.2001 19.5C42.4001 19.6 47.4001 18.8 49.5001 20.8C51.7001 22.8 60.1001 33.9 63.8001 37.3C67.5001 40.7 71.6001 42.1 73.1001 41.7C74.6001 41.3 70.1001 45.4 67.4001 44.4C64.6001 43.4 58.3001 37 54.9001 32.9C51.7001 28.8 44.1001 19.4 43.2001 19.5Z" fill="#D3BCF6"/>
<path d="M48.6999 69C49.5999 69 50.1999 69.6 49.9999 69.9C49.7999 70.2 49.0999 70.5 48.3999 70.2C47.6999 70 47.4999 69 48.6999 69Z" fill="#D3BCF6"/>
<path d="M49.0008 67.1C48.8008 67.1 48.2008 66.2 47.6008 65.6C47.0008 65 47.0008 66.9001 47.4008 67.5001C47.8008 68.1001 49.0008 67.1 49.0008 67.1Z" fill="#D3BCF6"/>
<path d="M28.7008 26.9997C28.7008 26.9997 27.2008 26.6997 26.6008 29.3997C26.0008 31.9997 25.2008 36.6997 24.4008 39.2997C23.6008 41.7997 20.2008 51.2997 21.7008 56.0997C23.2008 60.8997 27.9008 61.6997 31.2008 59.6997C31.2008 59.6997 28.1008 60.6997 26.2008 56.0997C24.4008 51.4997 25.6008 45.9997 27.3008 41.9997C28.9008 37.8997 28.7008 26.9997 28.7008 26.9997Z" fill="#D3BCF6"/>
<path d="M40.9009 53.3C40.9009 53.3 38.7009 50.9 37.9009 50.8C37.2009 50.7 35.7008 53.5 36.7008 54.1C37.8008 54.7 40.9009 53.3 40.9009 53.3Z" fill="#D3BCF6"/>
<path d="M40.6999 57.7997C39.7999 58.2997 39.2999 59.1997 39.5999 59.8997C39.8999 60.5997 41.5999 63.5997 42.0999 63.0997C42.5999 62.5997 42.2999 57.9997 42.1999 57.7997C42.1999 57.4997 41.3999 57.4997 40.6999 57.7997Z" fill="#D3BCF6"/>
<path d="M48.5006 41.2997C46.5006 42.3997 45.7006 43.9997 46.0006 44.5997C46.3006 45.1997 48.8006 46.8997 49.7006 47.1997C50.6006 47.4997 55.6006 38.9997 54.6006 38.9997C53.6006 38.8997 50.1006 40.2997 48.5006 41.2997Z" fill="#BD9AF1"/>
<path d="M55.5003 89.8C56.3003 89.9 60.7003 91.3 63.5003 91.2C65.3003 91.1 67.2003 90.7 68.4003 91C69.1003 91.2 69.5003 91.7 69.7003 92.3C70.2003 93.7 69.4003 94.8 67.7003 94.3C66.4003 93.9 62.7003 93.1 59.3003 92.5C55.8003 91.9 55.6003 91.9 54.6003 91.8C53.7003 91.7 54.4003 89.7 55.5003 89.8Z" fill="#BD9AF1"/>
<path d="M36.6005 28.0998C36.7005 26.8998 37.0005 25.7998 37.3005 24.5998C37.7005 23.4998 38.2005 22.2998 39.0005 21.2998C39.4005 20.7998 39.9005 20.2998 40.5005 19.8998C41.1005 19.4998 41.9005 19.2998 42.7005 19.2998C43.1005 19.2998 43.4005 19.2998 43.8005 19.3998C44.2005 19.4998 44.5005 19.6998 44.8005 19.7998C45.4005 20.0998 45.9005 20.4998 46.5005 20.7998C48.5005 22.2998 50.0005 24.0998 51.6005 25.7998C53.1005 27.5998 54.6005 29.3998 56.0005 31.1998L60.2005 36.5998C61.6005 38.3998 63.0005 40.1998 64.6005 41.6998C65.4005 42.3998 66.2005 42.9998 67.1005 43.2998C68.0005 43.5998 69.0005 43.4998 69.9005 43.1998C71.9005 42.4998 73.6005 40.8998 75.0005 39.1998C75.1005 39.0998 75.3005 38.9998 75.5005 39.1998C75.6005 39.2998 75.7005 39.4998 75.6005 39.5998C75.0005 40.6998 74.4005 41.5998 73.5005 42.4998C72.7005 43.3998 71.7005 44.1998 70.6005 44.6998C70.0005 44.9998 69.4005 45.1998 68.7005 45.2998C68.0005 45.3998 67.3005 45.3998 66.7005 45.2998C65.4005 44.9998 64.2005 44.2998 63.2005 43.4998C62.3005 42.6998 61.4005 41.8998 60.6005 40.9998C59.8005 40.0998 59.0005 39.2998 58.3005 38.3998C56.8005 36.6998 55.3005 34.8998 53.9005 33.0998C52.5005 31.2998 51.0005 29.5998 49.5005 27.7998C48.8005 26.8998 48.0005 26.0998 47.3005 25.2998C46.5005 24.4998 45.8005 23.5998 45.0005 22.9998C44.6005 22.6998 44.2005 22.2998 43.8005 22.0998C43.6005 21.9998 43.4005 21.8998 43.3005 21.7998C43.1005 21.7998 42.9005 21.6998 42.7005 21.6998C42.3005 21.6998 41.9005 21.6998 41.6005 21.8998C41.2005 22.0998 40.8005 22.2998 40.5005 22.6998C39.8005 23.3998 39.2005 24.2998 38.7005 25.2998C38.2005 26.2998 37.7005 27.2998 37.4005 28.3998C37.3005 28.5998 37.1005 28.6998 37.0005 28.5998C36.6005 28.3998 36.5005 28.1998 36.6005 28.0998Z" fill="#7B35E3"/>
<path d="M35.1005 59.2997C34.1005 59.7997 33.1005 60.0997 32.0005 60.1997C30.9005 60.2997 29.7005 60.0997 28.6005 59.5997C27.5005 59.0997 26.6005 58.2997 26.0005 57.3997C25.7005 56.8997 25.3005 56.4997 25.0005 55.9997C24.7005 55.4997 24.5005 54.9997 24.3005 54.3997C23.5005 52.1997 23.4005 49.8997 23.7005 47.7997C24.0005 45.5997 24.6005 43.5997 25.3005 41.5997C25.6005 40.5997 26.0005 39.5997 26.4005 38.6997L26.7005 37.9997C26.8005 37.7997 26.9005 37.5997 26.9005 37.3997C27.0005 36.9997 27.2005 36.4997 27.3005 35.9997C27.7005 34.0997 27.8005 32.0997 28.0005 29.9997C28.1005 28.8997 28.2005 27.8997 28.6005 26.6997C28.8005 26.0997 29.1005 25.4997 29.7005 24.9997C30.4005 24.4997 31.1005 24.3997 31.8005 24.4997C33.1005 24.6997 34.0005 25.2997 34.9005 25.8997C35.8005 26.4997 36.6005 27.2997 37.3005 27.9997C37.4005 28.0997 37.4005 28.2997 37.3005 28.4997C37.2005 28.5997 37.0005 28.5997 36.9005 28.4997C36.1005 27.8997 35.2005 27.2997 34.4005 26.8997C33.5005 26.3997 32.6005 26.0997 31.8005 26.0997C31.0005 26.0997 30.8005 26.3997 30.5005 27.2997C30.3005 28.0997 30.3005 29.1997 30.2005 30.1997C30.2005 32.1997 30.2005 34.3997 29.8005 36.4997C29.7005 37.0997 29.6005 37.5997 29.4005 38.1997C29.3005 38.4997 29.2005 38.7997 29.1005 38.9997L28.8005 39.6997C28.5005 40.6997 28.1005 41.5997 27.8005 42.5997C27.5005 43.5997 27.2005 44.4997 27.0005 45.4997C26.7005 46.4997 26.5005 47.3997 26.4005 48.3997C26.3005 49.3997 26.2005 50.2997 26.2005 51.2997C26.2005 52.1997 26.3005 53.1997 26.5005 54.0997C26.9005 55.8997 28.0005 57.5997 29.5005 58.5997C31.0005 59.5997 33.1005 59.6997 35.0005 59.0997C35.2005 58.9997 35.4005 59.0997 35.4005 59.2997C35.3005 59.0997 35.2005 59.1997 35.1005 59.2997Z" fill="#7B35E3"/>
<path d="M37.2 59.4996C39.4 63.2996 41.7 66.9996 44.7 70.1996C46.1 71.7996 47.8 73.1996 49.6 73.6996C51.5 74.2996 53.5 73.9996 55.4 73.2996C57.3 72.4996 59.1 71.3996 60.7 69.9996C62.1 68.6996 63.3 66.8996 64.4 64.9996C65.5 63.0996 66.4 61.1996 67.4 59.1996C68.3 57.1996 69.3 55.2996 70.8 53.4996C70.9 53.2996 71.1 53.2996 71.3 53.4996C71.4 53.5996 71.4 53.6996 71.4 53.7996C71.3 56.0996 70.6 58.2996 69.6 60.2996C68.6 62.2996 67.6 64.2996 66.5 66.2996C65.3 68.1996 64.1 70.1996 62.2 71.7996C60.4 73.2996 58.4 74.4996 56.2 75.2996C55.1 75.6996 53.9 75.9996 52.7 75.9996C51.5 76.0996 50.2 75.8996 49.1 75.4996C48 75.0996 46.9 74.4996 46 73.6996C45.1 72.8996 44.3 72.0996 43.6 71.1996C42.2 69.4996 40.9 67.5996 39.8 65.5996C38.7 63.6996 37.6 61.6996 36.8 59.6996C36.7 59.4996 36.8 59.3996 37 59.2996C36.9 59.2996 37.1 59.2996 37.2 59.4996Z" fill="#7B35E3"/>
<path d="M79.1002 39.8997C80.0002 40.4997 80.6002 41.2997 80.8002 42.3997C81.0002 42.8997 81.1002 43.4997 81.0002 43.9997C81.0002 44.4997 80.9002 44.9997 80.8002 45.4997C80.4002 47.3997 79.7002 49.0997 79.1002 50.7997C78.9002 51.1997 78.8002 51.5997 78.7002 51.9997C78.6002 52.4997 78.5002 52.9997 78.3002 53.4997C77.9002 54.4997 77.3002 55.4997 76.2002 56.0997C75.1002 56.7997 73.8002 56.8997 72.7002 56.3997C72.1002 56.0997 71.7002 55.7997 71.4002 55.4997C71.0002 55.0997 70.8002 54.6997 70.5002 54.1997C70.4002 53.9997 70.5002 53.7997 70.7002 53.7997C70.8002 53.7997 71.0002 53.7997 71.0002 53.7997C71.7002 54.2997 72.5002 54.6997 73.2002 54.8997C73.9002 54.9997 74.6002 54.7997 75.0002 54.4997C75.5002 54.0997 75.9002 53.4997 76.2002 52.7997C76.4002 52.3997 76.5002 51.9997 76.6002 51.5997C76.7002 51.0997 76.9002 50.5997 77.0002 50.1997C77.3002 49.2997 77.7002 48.3997 78.1002 47.5997C78.5002 46.7997 78.8002 45.8997 79.1002 45.0997C79.4002 44.2997 79.6002 43.4997 79.5002 42.6997C79.4002 41.8997 79.1002 41.0997 78.5002 40.4997C78.4002 40.3997 78.4002 40.1997 78.5002 39.9997C78.8002 39.7997 79.0002 39.7997 79.1002 39.8997Z" fill="#7B35E3"/>
<path d="M90.7004 94.3996C92.0004 92.4996 93.0004 90.3996 93.3004 88.1996C93.7004 85.9996 93.3004 83.7996 92.2004 81.7996C91.2004 79.7996 89.8004 77.9996 88.2004 76.3996C86.6004 74.6996 84.9004 73.0996 83.3004 71.1996C82.5004 70.1996 81.7004 69.1996 81.2004 67.7996L81.0004 67.2996C81.0004 67.0996 80.9004 66.8996 80.9004 66.6996C80.9004 66.4996 80.9004 66.2996 80.9004 66.0996V65.5996C80.9004 64.8996 80.9004 64.2996 81.0004 63.5996C81.0004 62.9996 81.2004 62.2996 81.3004 61.6996C81.4004 61.0996 81.6004 60.4996 81.8004 59.8996C82.1004 58.6996 82.5004 57.5996 82.9004 56.4996C83.6004 54.2996 84.4004 52.0996 84.8004 49.8996C85.3004 47.6996 85.4004 45.5996 84.9004 43.7996L84.6004 43.0996C84.5004 42.8996 84.5004 42.5996 84.3004 42.4996C84.2004 42.2996 84.1004 42.1996 84.0004 41.9996L83.8004 41.6996L83.6004 41.4996C83.0004 40.8996 82.2004 40.2996 81.3004 39.7996C79.5004 38.6996 77.3004 37.8996 75.1004 37.0996C72.9004 36.2996 70.6004 35.4996 68.4004 34.4996C66.2004 33.4996 63.8004 32.3996 61.7004 30.2996C60.7004 29.2996 59.8004 27.9996 59.3004 26.3996C59.2004 25.9996 59.1004 25.5996 59.0004 25.1996C59.0004 24.7996 58.9004 24.3996 58.9004 24.0996L58.8004 22.3996C58.7004 20.1996 58.4004 17.8996 57.7004 16.5996C57.3004 15.9996 56.9004 15.4996 56.1004 15.1996C55.3004 14.8996 54.4004 14.5996 53.3004 14.4996C51.2004 14.1996 48.9004 14.2996 46.6004 14.4996C44.3004 14.6996 42.0004 15.0996 39.7004 15.4996C38.6004 15.6996 37.4004 15.8996 36.3004 16.1996C35.2004 16.4996 34.1004 16.7996 33.0004 17.0996L31.4004 17.6996L29.8004 18.3996C29.2004 18.5996 28.7004 18.7996 28.2004 19.0996C27.7004 19.3996 27.2004 19.5996 26.7004 19.8996C24.7004 20.9996 22.9004 22.3996 21.3004 23.8996C20.9004 24.2996 20.5004 24.6996 20.2004 25.0996C19.9004 25.5996 19.5004 25.9996 19.3004 26.3996C18.7004 27.2996 18.2004 28.2996 18.0004 29.1996C18.0004 29.3996 17.9004 29.5996 17.9004 29.7996V30.0996C17.9004 30.1996 17.9004 30.1996 17.9004 30.2996V30.3996C17.9004 30.3996 17.9004 30.4996 17.9004 30.5996L18.0004 30.8996C18.1004 31.1996 18.2004 31.3996 18.3004 31.5996C18.7004 32.4996 19.4004 33.3996 20.1004 34.3996C20.8004 35.3996 21.5004 36.7996 21.7004 38.1996C21.7004 38.3996 21.7004 38.4996 21.8004 38.6996C21.8004 38.8996 21.9004 38.9996 21.8004 39.2996V39.6996V39.9996C21.8004 40.1996 21.8004 40.3996 21.7004 40.5996C21.6004 41.2996 21.4004 41.8996 21.3004 42.4996C20.6004 44.7996 19.9004 46.9996 19.3004 49.1996C18.7004 51.3996 18.2004 53.5996 18.1004 55.6996C18.0004 57.7996 18.2004 59.8996 19.1004 61.3996C19.2004 61.5996 19.3004 61.7996 19.5004 61.9996C19.6004 62.1996 19.8004 62.3996 19.9004 62.4996C20.0004 62.6996 20.2004 62.7996 20.4004 62.9996L20.7004 63.1996L21.1004 63.4996C22.1004 64.2996 23.0004 65.1996 23.9004 66.0996C24.3004 66.5996 24.7004 67.0996 25.1004 67.5996C25.5004 68.0996 25.8004 68.6996 26.2004 69.2996C26.8004 70.4996 27.3004 71.6996 27.6004 72.9996C28.2004 75.6996 27.8004 78.2996 27.3004 80.5996C26.8004 82.9996 26.2004 85.1996 25.7004 87.4996C25.2004 89.7996 24.9004 91.9996 24.8004 94.2996C24.8004 96.4996 24.9004 98.8996 26.3004 100.7C26.4004 100.8 26.4004 101 26.2004 101.2C26.1004 101.3 25.9004 101.3 25.8004 101.2C24.9004 100.3 24.3004 99.1996 23.9004 97.9996C23.5004 96.7996 23.3004 95.5996 23.2004 94.3996C23.0004 91.9996 23.2004 89.5996 23.4004 87.1996C23.7004 84.7996 24.1004 82.3996 24.4004 80.1996C24.8004 77.8996 24.8004 75.7996 24.3004 73.7996C24.0004 72.7996 23.6004 71.8996 23.1004 70.9996C22.8004 70.5996 22.5004 70.1996 22.2004 69.6996C21.9004 69.2996 21.5004 68.8996 21.1004 68.4996C20.4004 67.6996 19.5004 66.9996 18.7004 66.2996L18.0004 65.6996C17.7004 65.4996 17.4004 65.1996 17.2004 64.9996C16.9004 64.6996 16.7004 64.4996 16.5004 64.1996C16.3004 63.8996 16.1004 63.5996 15.9004 63.2996C15.1004 62.0996 14.7004 60.6996 14.4004 59.3996C14.1004 58.0996 14.1004 56.6996 14.2004 55.4996C14.3004 52.8996 14.9004 50.4996 15.6004 48.1996C15.9004 46.9996 16.3004 45.8996 16.7004 44.7996C17.1004 43.6996 17.5004 42.5996 17.9004 41.4996C18.1004 40.9996 18.2004 40.3996 18.3004 39.9996C18.3004 39.8996 18.3004 39.7996 18.4004 39.6996V39.5996C18.4004 39.5996 18.4004 39.5996 18.4004 39.4996C18.4004 39.4996 18.4004 39.2996 18.4004 39.1996C18.4004 39.0996 18.4004 38.9996 18.4004 38.8996C18.3004 37.9996 18.0004 37.1996 17.4004 36.1996C16.9004 35.2996 16.1004 34.1996 15.6004 32.8996C15.4004 32.5996 15.3004 32.2996 15.2004 31.8996L15.1004 31.3996C15.1004 31.2996 15.1004 31.1996 15.0004 31.0996V30.7996C15.0004 30.5996 15.0004 30.3996 15.0004 30.1996C15.0004 29.9996 15.0004 29.7996 15.0004 29.5996C15.0004 29.1996 15.1004 28.7996 15.2004 28.4996C15.6004 27.0996 16.3004 25.9996 17.0004 24.9996C17.3004 24.3996 17.8004 23.9996 18.2004 23.4996C18.7004 22.9996 19.1004 22.5996 19.5004 22.1996C21.3004 20.4996 23.4004 19.0996 25.5004 17.9996C27.7004 16.8996 29.9004 15.8996 32.2004 15.1996C32.8004 14.9996 33.3004 14.7996 33.9004 14.5996L35.6004 14.0996L39.0004 13.1996C41.3004 12.5996 43.6004 11.9996 46.0004 11.4996C48.4004 10.9996 50.8004 10.5996 53.4004 10.5996C54.7004 10.5996 56.1004 10.7996 57.5004 11.2996C58.9004 11.7996 60.4004 12.8996 61.3004 14.2996C62.2004 15.6996 62.6004 17.0996 62.8004 18.3996C63.0004 19.6996 63.1004 20.8996 63.2004 22.1996L63.3004 23.9996V24.5996C63.3004 24.7996 63.4004 24.9996 63.4004 25.1996C63.6004 25.8996 64.0004 26.5996 64.7004 27.2996C66.0004 28.5996 67.9004 29.6996 69.9004 30.5996C71.9004 31.4996 74.1004 32.3996 76.3004 33.1996C78.5004 34.0996 80.8004 34.9996 83.0004 36.3996C84.1004 37.0996 85.2004 37.8996 86.2004 38.9996L86.6004 39.3996L86.9004 39.8996C87.1004 40.1996 87.3004 40.4996 87.5004 40.8996C87.7004 41.1996 87.8004 41.5996 87.9004 41.8996L88.2004 42.8996C88.9004 45.6996 88.5004 48.3996 87.9004 50.7996C87.3004 53.1996 86.4004 55.4996 85.6004 57.6996C84.8004 59.8996 83.9004 62.0996 83.6004 64.1996C83.5004 64.6996 83.4004 65.1996 83.5004 65.6996C83.5004 65.8996 83.5004 66.1996 83.5004 66.3996V66.6996L83.6004 66.9996C83.8004 67.7996 84.4004 68.7996 85.1004 69.5996C87.8004 73.1996 91.6004 76.4996 93.5004 81.1996C94.5004 83.4996 94.8004 86.1996 94.2004 88.5996C93.6004 90.9996 92.3004 93.0996 90.8004 94.9996C90.7004 95.0996 90.5004 95.1996 90.3004 94.9996C90.7004 94.7996 90.6004 94.4996 90.7004 94.3996Z" fill="#7B35E3"/>
<path d="M57.6003 74.1997C58.3003 75.2997 59.1003 76.2997 59.9003 77.3997C60.7003 78.3997 61.6003 79.3997 62.5003 80.2997C63.6003 81.2997 64.3003 82.4997 64.9003 83.7997C65.4003 85.0997 65.8003 86.4997 65.6003 87.9997C65.6003 88.1997 65.4003 88.2997 65.2003 88.2997C65.0003 88.2997 64.9003 88.0997 64.9003 87.9997C64.9003 86.7997 64.5003 85.4997 63.9003 84.3997C63.3003 83.2997 62.5003 82.2997 61.5003 81.4997C60.4003 80.6997 59.4003 79.6997 58.4003 78.6997C57.4003 77.6997 56.5003 76.6997 55.6003 75.5997C55.2003 75.0997 55.3003 74.3997 55.8003 73.9997C56.3003 73.5997 57.0003 73.6997 57.4003 74.1997C57.6003 74.0997 57.6003 74.0997 57.6003 74.1997Z" fill="#7B35E3"/>
<path d="M60.3005 78.9998C59.8005 79.7998 59.2005 80.6998 58.6005 81.3998C58.0005 82.1998 57.2005 82.8998 56.4005 83.4998C54.8005 84.5998 53.3005 85.6998 51.8005 86.8998C50.3005 87.9998 48.9005 89.1998 47.7005 90.4998C46.4005 91.7998 45.4005 93.0998 44.7005 94.7998C44.6005 94.9998 44.4005 95.0998 44.3005 94.9998C44.2005 94.9998 44.1005 94.7998 44.1005 94.6998C44.0005 93.6998 44.1005 92.5998 44.5005 91.5998C44.9005 90.5998 45.4005 89.7998 46.0005 88.8998C47.2005 87.2998 48.8005 85.9998 50.4005 84.8998C52.0005 83.7998 53.7005 82.7998 55.3005 81.7998C56.8005 80.9998 58.3005 79.6998 59.7005 78.4998C59.8005 78.3998 60.1005 78.3998 60.2005 78.4998C60.3005 78.7998 60.3005 78.8998 60.3005 78.9998Z" fill="#7B35E3"/>
<path d="M73.0008 55.3996C74.6008 57.4996 76.1008 59.6996 77.7008 61.8996C78.5008 62.9996 79.3008 63.9997 80.0008 65.0997C80.8008 66.1997 81.6008 67.1996 82.4008 68.2996C82.5008 68.3996 82.5008 68.5996 82.3008 68.7996C82.2008 68.8996 82.0008 68.8996 81.9008 68.7996C80.7008 67.9996 79.6008 67.1996 78.7008 66.1996C77.7008 65.1996 76.8008 64.1997 76.0008 63.0997C75.2008 61.9997 74.5008 60.7997 73.8008 59.5997C73.2008 58.3997 72.6008 57.0996 72.3008 55.7996C72.3008 55.5996 72.3008 55.3996 72.5008 55.3996C72.7008 55.1996 72.9008 55.2996 73.0008 55.3996Z" fill="#7B35E3"/>
<path d="M30.7008 60.1998C31.4008 61.9998 31.8008 63.8998 32.2008 65.8998C32.3008 66.7998 32.5008 67.7998 32.5008 68.7998C32.6008 69.7998 32.6008 70.6998 32.6008 71.6998C32.6008 72.6998 32.6008 73.5998 32.5008 74.5998L32.3008 77.3998C32.2008 79.1998 32.2008 80.9998 32.3008 82.7998C32.5008 86.2998 33.1008 89.8998 35.1008 92.4998C35.2008 92.6998 35.4008 92.7998 35.5008 92.8998C35.6008 93.0998 35.8008 93.1998 35.9008 93.2998C36.1008 93.3998 36.2008 93.5998 36.3008 93.6998L36.8008 93.9998C37.4008 94.3998 38.2008 94.7998 39.0008 94.9998C40.6008 95.4998 42.5008 95.4998 44.3008 95.2998H44.4008C44.6008 95.2998 44.7008 95.3998 44.8008 95.5998C44.8008 95.7998 44.7008 95.8998 44.6008 95.9998C42.7008 96.5998 40.8008 96.7998 38.9008 96.4998C37.9008 96.2998 37.0008 95.9998 36.1008 95.4998C35.2008 95.0998 34.5008 94.3998 33.9008 93.6998C32.6008 92.1998 31.8008 90.3998 31.3008 88.5998C30.7008 86.6998 30.5008 84.8998 30.4008 82.9998C30.3008 81.0998 30.3008 79.1998 30.5008 77.2998C30.6008 75.3998 30.9008 73.5998 31.0008 71.6998C31.2008 67.9998 31.0008 64.1998 30.3008 60.4998C30.3008 60.2998 30.4008 60.1998 30.6008 60.0998C30.6008 59.8998 30.7008 59.8998 30.7008 60.1998Z" fill="#7B35E3"/>
<path d="M39.7004 50.3001C40.7004 51.2001 41.7004 52.1001 42.6004 53.2001C42.8004 53.5001 43.0004 53.8001 43.2004 54.1001C43.4004 54.4001 43.5004 54.8001 43.6004 55.3001C43.6004 56.1001 43.4004 56.8001 43.3004 57.5001L42.9004 59.5001C42.8004 60.1001 42.7004 60.8001 42.7004 61.3001C42.7004 61.6001 42.7004 61.6001 42.8004 61.8001C42.9004 61.9001 43.1004 62.1001 43.3004 62.2001C43.8004 62.5001 44.4004 62.8001 45.0004 63.0001C45.2004 63.1001 45.3004 63.3001 45.2004 63.4001C45.2004 63.5001 45.1004 63.6001 45.0004 63.6001C44.2004 63.8001 43.5004 63.7001 42.7004 63.5001C42.3004 63.3001 41.9004 63.1001 41.6004 62.7001C41.3004 62.3001 41.1004 61.7001 41.1004 61.3001C41.1004 60.4001 41.3004 59.8001 41.5004 59.1001C41.7004 58.5001 42.0004 57.8001 42.2004 57.2001C42.4004 56.6001 42.6004 55.9001 42.7004 55.4001C42.7004 54.9001 42.4004 54.3001 42.0004 53.8001C41.2004 52.7001 40.3004 51.8001 39.3004 50.9001C39.1004 50.8001 39.1004 50.6001 39.3004 50.4001C39.3004 50.2001 39.5004 50.2001 39.7004 50.3001Z" fill="#7B35E3"/>
<path d="M45.8002 68.0998C45.7002 68.1998 46.8002 68.3998 47.9002 68.4998C49.0002 68.5998 49.8002 68.9998 50.3002 68.7998C50.8002 68.5998 52.0002 67.3998 52.9002 66.7998C53.8002 66.1998 55.2002 65.1998 55.5002 64.6998C55.8002 64.0998 55.2002 63.9998 54.7002 64.4998C54.1002 64.9998 52.9002 65.2998 51.5002 65.3998C50.1002 65.5998 49.9002 65.8998 49.5002 66.6998C49.1002 67.4998 48.1002 66.5998 47.5002 66.9998C46.9002 67.3998 46.7002 67.8998 46.2002 67.7998C45.5002 67.7998 45.8002 68.0998 45.8002 68.0998Z" fill="#7B35E3"/>
<path d="M50 71.3997C50 71.3997 52.6 72.3997 54.9 69.1997L50 71.3997Z" fill="#7B35E3"/>
<path d="M59.4006 45.3999C58.0006 46.3999 55.2006 48.5999 51.2006 48.5999C50.9006 48.5999 50.6006 48.7999 50.4006 49.0999C49.9006 50.2999 50.0006 52.4999 49.1006 53.4999C49.4006 53.6999 51.2006 51.7999 51.7006 51.2999C52.2006 50.7999 54.0006 51.7999 56.8006 49.1999C58.5006 47.6999 59.3006 46.4999 59.7006 45.6999C59.9006 45.4999 59.6006 45.1999 59.4006 45.3999Z" fill="#7B35E3"/>
<path d="M40.4008 53.1999C39.1008 53.4999 36.7008 53.6999 35.3008 53.4999C34.4008 53.6999 33.5008 56.1999 32.3008 56.9999C32.6008 57.0999 34.4008 56.5999 35.2008 55.9999C35.6008 55.6999 37.5008 55.7999 39.0008 55.4999C40.3008 55.1999 41.1008 54.4999 41.3008 54.1999C41.6008 53.7999 41.3008 53.2999 41.0008 52.9999C40.9008 52.8999 40.6008 53.1999 40.4008 53.1999Z" fill="#7B35E3"/>
<path d="M45.1006 44.4998C44.8006 43.3998 45.9006 40.4998 48.7006 39.3998C51.5006 38.2998 56.9006 37.2998 57.3006 37.5998C57.6006 37.8998 51.0006 40.8998 48.7006 42.2998C46.4006 43.5998 45.2006 44.8998 45.1006 44.4998Z" fill="#7B35E3"/>
<path d="M38.6002 46.9998C38.8002 46.9998 38.9002 46.7998 38.7002 46.6998C37.9002 45.9998 36.2002 44.8998 34.7002 44.7998C32.8002 44.6998 28.8002 46.7998 28.7002 47.1998C28.7002 47.4998 30.7002 46.8998 34.0002 46.7998C36.3002 46.6998 37.9002 46.8998 38.6002 46.9998Z" fill="#7B35E3"/>
<path d="M36.9008 28.1C37.7008 27.4 38.6008 26.9 39.5008 26.4C40.4008 25.9 41.4008 25.6 42.4008 25.3C43.4008 25 44.5008 24.8 45.5008 24.8C46.6008 24.7 47.6008 24.8 48.6008 25L48.7008 25.1L48.6008 25.2C47.6008 25.2 46.6008 25.1 45.5008 25.2C45.0008 25.2 44.5008 25.3 44.0008 25.4C43.5008 25.5 43.0008 25.6 42.5008 25.7C41.5008 25.9 40.6008 26.3 39.6008 26.7C38.7008 27.1 37.8008 27.6 36.9008 28.1H36.8008C36.9008 28.2 36.9008 28.2 36.9008 28.1Z" fill="#7B35E3"/>
<path d="M36.8999 28.4C36.2999 28.4 35.5999 28.4 34.9999 28.4C34.3999 28.5 33.6999 28.6 33.0999 28.8C32.4999 29 31.8999 29.3 31.3999 29.6C30.8999 29.9 30.4999 30.4 30.0999 31C30.0999 31.1 29.9999 31.1 29.8999 31C29.8999 31 29.7999 30.9 29.8999 30.9C30.1999 30.3 30.5999 29.7 31.0999 29.2C31.6999 28.8 32.2999 28.5 32.8999 28.3C33.5999 28.1 34.1999 28 34.8999 28C35.5999 28 36.1999 28 36.8999 28.2L36.9999 28.3C36.9999 28.4 36.8999 28.4 36.8999 28.4Z" fill="#7B35E3"/>
<path d="M84.4006 26.7C83.8006 26.5 83.2006 26.5 82.6006 26.5C82.0006 26.5 81.3006 26.5 80.8006 26.9C80.7006 27 80.6006 27.1 80.6006 27.2C80.6006 27.4 80.8006 27.5 80.9006 27.6C81.7006 28.2 82.4006 28.9 83.1006 29.6C83.8006 30.3 84.6006 30.9 85.5006 31.2C86.2006 31.4 88.7006 31.5 88.2006 30.3C87.8006 29.2 87.0006 28.2 86.1006 27.5C85.6006 27.1 85.0006 26.9 84.4006 26.7Z" fill="#7B35E3"/>
<path d="M85.5004 19.5998C85.5004 18.7998 85.7004 17.8998 86.2004 17.1998L86.3004 17.0998C86.4004 16.9998 86.5004 17.0998 86.6004 17.2998C86.9004 17.6998 87.2004 18.0998 87.5004 18.4998C87.8004 18.8998 88.1004 19.2998 88.3004 19.7998C88.9004 20.9998 88.9004 22.2998 88.6004 23.5998C88.4004 24.2998 88.2004 24.9998 87.9004 25.6998C87.7004 26.1998 87.4004 26.9998 86.8004 26.2998C86.4004 25.7998 86.2004 24.8998 86.0004 24.2998C85.8004 23.5998 85.7004 22.8998 85.6004 22.0998C85.5004 21.1998 85.4004 20.3998 85.5004 19.5998Z" fill="#7B35E3"/>
<path d="M77.4006 20.3999C77.2006 20.3999 77.1006 20.3999 76.9006 20.4999C76.7006 20.4999 76.6006 20.6999 76.6006 20.8999C76.6006 21.0999 76.7006 21.1999 76.8006 21.2999C77.2006 21.6999 77.6006 22.0999 77.9006 22.5999C78.4006 23.1999 79.0006 23.7999 79.6006 24.2999C79.9006 24.4999 80.2006 24.6999 80.5006 24.8999C80.8006 24.9999 81.2006 25.0999 81.6006 25.0999C82.7006 25.1999 84.0006 25.3999 85.0006 24.7999C85.8006 24.3999 85.1006 23.8999 84.7006 23.4999C84.2006 22.9999 83.7006 22.5999 83.2006 22.1999C82.1006 21.4999 80.9006 20.8999 79.6006 20.5999C78.8006 20.4999 78.1006 20.3999 77.4006 20.3999Z" fill="#7B35E3"/>
<path d="M81.4002 16.1997C81.3002 14.9997 81.4002 13.6997 82.2002 12.7997C82.3002 12.6997 82.3002 12.6997 82.4002 12.6997C82.4002 12.6997 82.5002 12.6997 82.6002 12.7997C83.0002 13.0997 83.2002 13.5997 83.4002 13.9997C83.7002 14.6997 84.0002 15.3997 84.2002 16.1997C84.4002 16.9997 84.4002 17.6997 84.2002 18.4997C84.0002 19.0997 83.6002 19.5997 83.3002 20.0997C83.2002 20.1997 83.1002 20.3997 83.0002 20.3997C82.8002 20.3997 82.5002 19.7997 82.4002 19.6997C82.2002 19.3997 82.0002 18.9997 81.9002 18.5997C81.6002 17.6997 81.5002 16.9997 81.4002 16.1997Z" fill="#7B35E3"/>
<path d="M78.1002 17.3997C76.7002 16.9997 75.3002 17.0997 73.9002 16.7997C73.3002 16.6997 72.7002 16.4997 72.2002 16.1997C72.3002 16.6997 72.6002 17.0997 73.0002 17.3997C73.4002 17.6997 73.8002 17.9997 74.3002 18.1997C75.1002 18.5997 76.0002 18.7997 76.9002 18.9997C77.5002 19.0997 78.0002 19.1997 78.6002 19.0997C78.9002 18.9997 80.0002 18.6997 80.0002 18.1997C79.9002 17.9997 78.4002 17.4997 78.1002 17.3997Z" fill="#7B35E3"/>
<path d="M79.1004 16.5997C78.2004 16.2997 77.6004 15.4997 77.2004 14.6997C76.5004 13.2997 76.4004 11.5997 76.9004 10.1997C77.0004 9.99971 77.1004 9.69971 77.4004 9.69971C77.5004 9.69971 77.7004 9.79971 77.8004 9.99971C78.1004 10.3997 78.3004 10.8997 78.6004 11.3997C78.8004 11.6997 79.1004 11.9997 79.3004 12.3997C79.9004 13.3997 80.0004 14.6997 79.5004 15.7997C79.4004 15.9997 79.2004 16.1997 79.2004 16.4997C79.1004 16.7997 79.2004 16.9997 79.3004 17.1997" fill="#7B35E3"/>
<path d="M72.6001 11.5999C72.3001 11.1999 72.0001 10.6999 71.8001 10.2999C71.0001 8.79994 71.0001 6.99993 71.1001 5.39993C71.1001 5.19993 71.1001 4.89993 71.3001 4.79993C71.6001 4.59993 71.9001 4.69993 72.2001 4.89993C72.8001 5.49993 73.0001 6.39994 73.3001 7.19994C73.6001 7.79994 74.1001 8.39994 74.3001 8.99994C74.8001 9.99994 74.8001 11.1999 74.5001 12.2999C74.4001 12.6999 74.2001 13.1999 73.7001 12.9999C73.2001 12.5999 72.9001 11.9999 72.6001 11.5999Z" fill="#7B35E3"/>
<path d="M73.0006 13.5997C70.8006 12.7997 68.4006 12.4997 66.1006 12.7997C65.4006 12.8997 64.7006 13.0997 64.1006 13.4997C65.3006 13.7997 66.5006 14.0997 67.6006 14.3997C68.7006 14.6997 69.7006 14.8997 70.8006 14.9997C71.5006 14.9997 72.2006 14.8997 72.8006 14.6997C73.0006 14.5997 73.6006 14.3997 73.7006 14.1997C73.8006 13.7997 73.2006 13.6997 73.0006 13.5997Z" fill="#7B35E3"/>
<path d="M67.1006 8.69984C66.4006 7.59984 66.2006 6.29984 66.1006 4.99984C66.1006 4.69984 66.1006 4.39984 66.3006 4.09984C66.4006 3.79984 66.8006 3.59984 67.1006 3.69984C67.2006 3.69984 67.3006 3.89984 67.4006 3.99984C67.9006 4.59984 68.1006 5.29984 68.5006 5.89984C68.7006 6.19984 69.0006 6.39984 69.3006 6.69984C69.7006 7.19984 69.8006 7.79984 69.8006 8.39984C69.8006 8.99984 69.8006 9.49984 69.8006 10.0998C69.8006 10.5998 69.9006 10.8998 69.3006 10.5998C68.4006 10.2998 67.6006 9.59984 67.1006 8.69984Z" fill="#7B35E3"/>
<path d="M59.9002 9.59975C59.7002 9.69975 59.4002 9.79975 59.3002 9.89975C59.1002 9.99975 58.9002 10.2997 59.0002 10.4997C59.8002 10.6997 60.6002 10.3997 61.3002 10.4997C61.8002 10.5997 62.2002 10.7997 62.7002 10.8997C63.2002 11.0997 63.7002 11.1997 64.2002 11.1997C64.7002 11.1997 65.3002 11.1997 65.8002 10.8997C66.1002 10.6997 66.6002 10.2997 66.6002 9.79975C66.5002 9.29975 66.0002 9.19975 65.6002 9.19975C64.4002 8.89975 63.2002 8.89975 61.9002 8.99975C61.2002 9.29975 60.5002 9.39975 59.9002 9.59975Z" fill="#7B35E3"/>
<path d="M63.7006 8.40004C62.6006 8.10004 61.4006 7.80004 60.4006 7.20004C59.4006 6.60004 58.4006 5.80004 57.8006 4.80004C57.7006 4.60004 57.6006 4.40004 57.7006 4.20004C57.8006 4.10004 57.9006 4.00004 58.1006 4.00004C58.7006 3.90004 59.1006 4.30004 59.6006 4.60004C60.8006 5.30004 62.4006 5.10004 63.6006 5.80004C64.4006 6.30004 65.0006 7.10004 65.2006 8.00004C65.3006 8.30004 65.4006 8.60004 65.6006 8.90004C65.2006 9.00004 64.8006 8.90004 64.5006 8.60004" fill="#7B35E3"/>
<path d="M61.5008 7.2998C64.6008 8.0998 67.7008 9.2998 70.6008 10.6998C73.5008 12.0998 76.2008 13.8998 78.8008 15.8998C80.1008 16.8998 81.2008 17.9998 82.4008 19.1998C83.5008 20.3998 84.5008 21.6998 85.4008 22.9998C86.3008 24.3998 87.1008 25.7998 87.7008 27.2998C88.3008 28.7998 88.7008 30.3998 89.0008 31.9998C89.0008 31.9998 89.0008 32.0998 88.9008 32.0998H88.8008C88.3008 30.5998 87.7008 29.0998 87.0008 27.6998C86.2008 26.2998 85.4008 24.9998 84.5008 23.6998C82.6008 21.1998 80.4008 18.8998 78.0008 16.9998C75.5008 14.9998 72.9008 13.2998 70.1008 11.6998C67.3008 10.1998 64.5008 8.69981 61.5008 7.4998C61.4008 7.4998 61.4008 7.3998 61.5008 7.2998Z" fill="#7B35E3"/>
<path d="M5.39995 38.7C5.19995 36.3 5.29995 33.9 5.59995 31.6C5.89995 29.3 6.39995 26.9 6.99995 24.6C7.59995 22.3 8.49995 20.1 9.49995 17.9C10.4 15.7 11.7 13.7 13 11.7C13.1 11.6 13.3 11.5 13.4 11.6C13.5 11.7 13.5 11.8 13.5 11.9C12.4 14 11.4 16.1 10.5 18.2C9.99995 19.3 9.69995 20.4 9.29995 21.5C8.99995 22.6 8.59995 23.7 8.29995 24.9C7.69995 27.1 7.19995 29.4 6.79995 31.7C6.49995 34.1 6.09995 36.4 5.99995 38.7C5.99995 38.8 5.89995 39 5.69995 39C5.49995 39 5.39995 38.8 5.39995 38.7Z" fill="#7B35E3"/>
<path d="M5.9002 36.9998C6.3002 35.6998 6.5002 34.2998 7.0002 32.9998C7.5002 31.6998 8.1002 30.4998 9.1002 29.5998C9.2002 29.4998 9.4002 29.3998 9.5002 29.2998C9.7002 29.2998 9.9002 29.2998 10.0002 29.3998C10.1002 29.4998 10.1002 29.6998 10.1002 29.7998C10.1002 30.1998 10.1002 30.5998 10.1002 30.9998C10.0002 31.8998 9.9002 32.7998 9.8002 33.5998C9.7002 34.0998 9.7002 34.4998 9.5002 34.8998C9.2002 35.5998 8.7002 36.0998 8.1002 36.4998C7.5002 36.8998 6.8002 37.1998 6.2002 37.5998C6.0002 37.6998 5.9002 37.8998 5.7002 37.9998C5.7002 37.6998 5.8002 37.2998 5.9002 36.9998Z" fill="#7B35E3"/>
<path d="M13.7005 14.4C14.2005 13.9 14.8005 13.5 15.4005 13.1C16.1005 12.7 16.9005 12.3 17.6005 12C17.7005 12 17.8005 11.9 17.8005 12C17.9005 12 17.9005 12.1 18.0005 12.2C18.2005 12.6 18.0005 13.1 17.8005 13.5C17.6005 13.9 17.2005 14.2 17.0005 14.5C16.1005 15.5 15.5005 16.7 14.4005 17.5C13.7005 18 12.9005 18.1 12.0005 18.2C11.7005 18.2 10.7005 18.5 10.6005 18.1C10.5005 17.7 11.2005 17 11.4005 16.8C12.1005 15.9 12.9005 15.1 13.7005 14.4Z" fill="#7B35E3"/>
<path d="M10.9004 15.2999C11.2004 13.7999 11.0004 12.1999 11.3004 10.6999C11.6004 8.9999 12.7004 7.3999 14.1004 6.3999C14.7004 8.5999 14.4004 10.9999 13.2004 12.8999C12.7004 13.6999 12.0004 14.3999 11.4004 15.0999" fill="#7B35E3"/>
<path d="M5.50039 34.8996C5.40039 32.5996 4.70039 30.2996 3.50039 28.2996C3.30039 27.9996 3.10039 27.6996 2.80039 27.5996C2.70039 28.3996 2.60039 29.2996 2.50039 30.1996C2.50039 30.7996 2.40039 31.3996 2.40039 31.9996C2.50039 33.9996 3.50039 36.0996 5.10039 37.2996C5.10039 37.2996 5.20039 37.3996 5.30039 37.3996C5.40039 37.3996 5.40039 37.2996 5.40039 37.1996C5.50039 36.7996 5.50039 36.2996 5.60039 35.7996" fill="#7B35E3"/>
<path d="M7.4 27.6996C7.5 27.2996 7.6 26.7996 7.8 26.3996C8.9 24.0996 10.9 22.1996 13.2 21.0996C13.4 21.6996 13.3 22.3996 13.2 23.0996C13.1 23.6996 13 24.2996 12.9 24.9996C12.8 25.2996 12.8 25.5996 12.6 25.8996C12.4 26.1996 12.1 26.3996 11.8 26.4996C10.5 27.2996 9.2 28.0996 7.9 28.8996C7.7 28.9996 7.5 29.0996 7.3 29.1996C7.1 29.2996 6.9 29.3996 6.7 29.1996C6.6 29.0996 6.6 28.9996 6.6 28.8996C6.5 28.4996 6.5 28.1996 6.5 27.7996" fill="#7B35E3"/>
<path d="M6.80013 25.8996C6.90013 24.2996 6.50013 22.5996 5.60013 21.0996C5.30013 20.6996 5.00013 20.2996 4.60013 20.0996C4.20013 20.7996 4.10013 21.5996 4.20013 22.3996C4.20013 23.1996 4.50013 23.9996 4.50013 24.7996C4.60013 25.8996 4.40013 26.9996 4.90013 27.9996C5.20013 28.3996 5.70013 28.7996 6.10013 28.4996" fill="#7B35E3"/>
<path d="M7.90086 22.1C7.20086 20.6 6.90086 19 7.10086 17.3C7.30086 15.7 8.10086 14.1 9.20086 13C9.40086 13.7 9.30086 14.4 9.50086 15.2C9.60086 15.7 9.70086 16.2 9.70086 16.7C9.70086 17.7 9.30086 18.8 9.00086 19.8" fill="#7B35E3"/>
<path d="M9.20078 21.4C9.60078 20.6 10.4008 20.2 11.2008 19.8C12.0008 19.4 12.7008 19.1 13.6008 19C13.7008 19.2 13.6008 19.4 13.4008 19.6C12.6008 20.5 11.5008 21.3 10.3008 21.6C9.80078 21.7 9.20078 21.7 8.80078 22" fill="#7B35E3"/>
<path d="M67.7006 70.1998C70.2006 67.0998 71.6006 63.3998 72.7006 59.6998C73.0006 58.5998 73.3006 57.5998 73.6006 56.4998C73.7006 56.1998 73.2006 55.9998 73.1006 56.3998C72.1006 60.0998 71.0006 63.8998 69.1006 67.1998C68.5006 68.1998 68.0006 69.0998 67.3006 69.8998C67.1006 70.0998 67.5006 70.4998 67.7006 70.1998Z" fill="#7B35E3"/>
<path d="M38.2004 15.1C36.7004 17.9 36.5004 21.3 36.4004 24.5C36.4004 24.9 37.0004 24.9 37.0004 24.5C37.1004 21.4 37.2004 18.2 38.7004 15.4C38.8004 15 38.3004 14.7 38.2004 15.1Z" fill="#7B35E3"/>
<path d="M46.4008 17.1996C47.1008 17.1996 47.8008 17.4996 48.3008 17.8996C48.9008 18.3996 49.4008 18.8996 50.0008 19.3996C51.0008 20.4996 52.0008 21.6996 53.0008 22.8996C55.0008 25.3996 57.1008 27.8996 59.1008 30.3996C60.3008 31.8996 61.5008 33.2996 62.6008 34.7996C62.8008 35.0996 63.2008 34.6996 63.0008 34.3996C60.9008 31.7996 58.7008 29.0996 56.6008 26.4996C54.6008 23.9996 52.6008 21.3996 50.4008 19.0996C49.8008 18.4996 49.2008 17.8996 48.6008 17.3996C48.0008 16.8996 47.2008 16.5996 46.5008 16.5996C46.0008 16.6996 46.0008 17.1996 46.4008 17.1996Z" fill="#7B35E3"/>
<path d="M64.8006 37.1C66.0006 38.5 67.5006 39.7 69.1006 40.7C69.4006 40.9 69.7006 40.4 69.4006 40.2C67.8006 39.3 66.4006 38.1 65.2006 36.7C65.0006 36.4 64.6006 36.8 64.8006 37.1Z" fill="#7B35E3"/>
<path d="M64.2999 31.8C66.1999 33.9 68.0999 36.1 70.4999 37.7C71.5999 38.4 72.8999 39 74.1999 39.4C75.4999 39.7 76.8999 39.8 78.2999 39.8C79.8999 39.8 81.4999 39.8 82.9999 40.4C83.2999 40.5 83.5999 40.1 83.2999 39.9C80.6999 38.8 77.8999 39.6 75.1999 39.1C72.3999 38.6 70.0999 37 68.0999 35.1C66.8999 34 65.8999 32.8 64.7999 31.6C64.4999 31.1 64.0999 31.5 64.2999 31.8Z" fill="#7B35E3"/>
<path d="M36.8 22.0001C35.7 21.0001 34.2 20.5001 32.7 20.3001C31.2 20.2001 29.4 20.3001 28.2 21.3001C27.9 21.5001 28.3 21.9001 28.6 21.7001C29.2 21.2001 30 21.0001 30.7 20.9001C31.4 20.8001 32.1 20.8001 32.8 20.9001C34.2 21.0001 35.5 21.5001 36.5 22.4001C36.7 22.6001 37.1 22.2001 36.8 22.0001Z" fill="#7B35E3"/>
<path d="M25.1 26.5C24.7 27.2 24.6 28 24.5 28.8C24.4 29.7 24.3 30.7 24.2 31.6C24.1 33.4 24 35.3 23.8 37.1C23.7 37.9 23.6 38.8 23.4 39.6C23.1 40.4 22.8 41.2 22.3 41.8C21.9 42.4 21.4 43 20.9 43.7C20.6 44.2 20.3 44.6 20.1 45.1C19.8 45.7 19.5 46.3 19.3 47C19.1 47.5 19 48.1 19 48.7C19 49.1 19.6 49.1 19.6 48.7C19.6 48.2 19.7 47.8 19.8 47.3C20 46.7 20.2 46.2 20.5 45.6C20.8 45.1 21 44.6 21.3 44.2C21.7 43.6 22.1 43.1 22.5 42.5C23 41.9 23.4 41.2 23.7 40.4C24 39.6 24.2 38.8 24.3 38C24.5 36.3 24.6 34.5 24.7 32.7C24.8 31.7 24.9 30.6 25 29.6C25.1 28.6 25.2 27.6 25.6 26.7C25.7 26.4 25.2 26.2 25.1 26.5Z" fill="#7B35E3"/>
<path d="M20.7007 55.2998C21.2007 57.2998 22.5007 58.8998 24.1007 59.9998C25.7007 61.0998 27.7006 60.8998 29.5006 60.6998C30.5006 60.5998 31.5007 60.3998 32.4007 60.1998C32.7007 60.0998 32.6006 59.5998 32.3006 59.6998C30.8006 60.0998 29.2007 60.3998 27.6007 60.3998C26.7007 60.3998 25.7006 60.2998 24.9006 59.8998C24.1006 59.4998 23.4006 58.7998 22.8006 58.1998C22.1006 57.3998 21.6006 56.3998 21.3006 55.3998C21.2006 54.8998 20.6007 54.9998 20.7007 55.2998Z" fill="#7B35E3"/>
<path d="M20.6004 49.3C20.5004 50.1 20.4004 50.9 20.4004 51.8C20.4004 51.9 20.5004 52.1 20.7004 52.1C20.9004 52.1 21.0004 52 21.0004 51.8C21.0004 51 21.1004 50.2 21.2004 49.3C21.2004 49.2 21.1004 49 20.9004 49C20.7004 49.1 20.6004 49.2 20.6004 49.3Z" fill="#7B35E3"/>
<path d="M37.8006 49.4996C36.7006 49.1996 35.5006 49.0996 34.4006 49.0996C34.0006 49.0996 34.0006 49.6996 34.4006 49.6996C35.5006 49.6996 36.6006 49.7996 37.7006 50.0996C38.0006 50.1996 38.1006 49.5996 37.8006 49.4996Z" fill="#7B35E3"/>
<path d="M49.9005 43.6C50.5005 43 51.4005 42.8 52.2005 42.6C53.1005 42.3 54.0005 42.2 54.9005 42.1C55.3005 42.1 55.3005 41.5 54.9005 41.5C53.9005 41.6 52.9005 41.8 51.9005 42C51.0005 42.3 50.1005 42.5 49.4005 43.1C49.2005 43.5 49.6005 43.9 49.9005 43.6Z" fill="#7B35E3"/>
<path d="M40.9002 25.2996C41.6002 23.9996 42.7002 23.0996 44.0002 22.4996C44.1002 22.4996 44.1002 22.2996 44.1002 22.1996C44.0002 22.0996 43.9002 22.0996 43.8002 22.0996C42.4002 22.6996 41.3002 23.7996 40.6002 25.0996C40.4002 25.2996 40.8002 25.4996 40.9002 25.2996Z" fill="#7B35E3"/>
<path d="M42 25.8996C42.4 25.2996 42.9 24.7996 43.5 24.4996C43.6 24.3996 43.6 24.2996 43.6 24.1996C43.6 24.0996 43.4 24.0996 43.3 24.0996C42.7 24.4996 42.2 24.9996 41.7 25.5996C41.6 25.6996 41.6 25.7996 41.7 25.8996C41.7 25.9996 41.9 25.9996 42 25.8996Z" fill="#7B35E3"/>
<path d="M34.0007 28.0997C32.6007 27.5997 31.1007 27.0997 29.7007 27.5997C29.4007 27.6997 29.5007 28.1997 29.8007 27.9997C31.2007 27.3997 32.6007 27.9997 33.9007 28.4997C34.1007 28.5997 34.2007 28.0997 34.0007 28.0997Z" fill="#7B35E3"/>
<path d="M29.7004 28.9996C29.8004 28.9996 29.9004 28.9996 30.0004 28.9996C30.0004 28.9996 30.0004 28.9996 30.1004 28.9996C30.2004 28.9996 30.2004 28.9996 30.2004 28.9996C30.4004 28.9996 30.5004 28.9996 30.7004 28.9996C30.8004 28.9996 30.9004 28.8996 30.9004 28.7996C30.9004 28.6996 30.8004 28.5996 30.7004 28.5996C30.3004 28.5996 29.9004 28.5996 29.6004 28.6996C29.5004 28.6996 29.4004 28.8996 29.4004 28.9996C29.5004 28.9996 29.6004 28.9996 29.7004 28.9996Z" fill="#7B35E3"/>
<path d="M44.8008 23.6997H44.9008C45.0008 23.6997 45.1008 23.6997 45.2008 23.5997H45.3008C45.4008 23.5997 45.5008 23.5997 45.6008 23.5997C45.7008 23.5997 45.8008 23.4997 45.8008 23.3997C45.8008 23.2997 45.7008 23.1997 45.6008 23.1997C45.2008 23.1997 44.8008 23.2997 44.4008 23.4997C44.3008 23.4997 44.3008 23.6997 44.3008 23.7997C44.6008 23.6997 44.7008 23.6997 44.8008 23.6997Z" fill="#7B35E3"/>
<path d="M31.9008 49.9999C31.7008 50.1999 31.6008 50.3999 31.4008 50.5999C31.4008 50.5999 31.3008 50.6999 31.3008 50.7999C31.3008 50.7999 31.3008 50.8999 31.4008 50.9999C31.4008 50.9999 31.5008 51.0999 31.6008 51.0999C31.7008 51.0999 31.7008 51.0999 31.8008 50.9999C32.0008 50.7999 32.1008 50.5999 32.3008 50.3999C32.3008 50.3999 32.4008 50.2999 32.4008 50.1999C32.4008 50.1999 32.4008 50.0999 32.3008 49.9999C32.3008 49.9999 32.2008 49.8999 32.1008 49.8999C32.0008 49.9999 32.0008 49.9999 31.9008 49.9999Z" fill="#7B35E3"/>
<path d="M50.3 44.7996C50.2 45.1996 50.1 45.4996 50 45.8996C50 45.9996 50 46.1996 50.2 46.1996C50.3 46.1996 50.4 46.1996 50.5 45.9996C50.6 45.6996 50.7 45.2996 50.8 44.8996C50.8 44.7996 50.8 44.7996 50.8 44.6996C50.8 44.5996 50.7 44.5996 50.7 44.5996C50.4 44.5996 50.3 44.6996 50.3 44.7996Z" fill="#7B35E3"/>
<path d="M61.0999 44.6998C60.9999 46.1998 60.2999 47.6998 59.3999 48.8998C59.1999 49.0998 59.4999 49.3998 59.6999 49.1998C60.7999 47.8998 61.3999 46.3998 61.5999 44.6998C61.4999 44.4998 61.0999 44.4998 61.0999 44.6998Z" fill="#7B35E3"/>
<path d="M61.8004 46.5999C61.7004 46.9999 61.5004 47.3999 61.4004 47.8999C61.4004 47.9999 61.4004 48.1999 61.6004 48.1999C61.7004 48.1999 61.8004 48.1999 61.9004 47.9999C62.1004 47.5999 62.2004 47.1999 62.3004 46.6999C62.3004 46.5999 62.3004 46.3999 62.1004 46.3999C61.9004 46.3999 61.8004 46.4999 61.8004 46.5999Z" fill="#7B35E3"/>
<path d="M79.9006 42.5996C82.7006 44.0996 84.9006 46.4996 86.1006 49.4996C86.2006 49.7996 86.8006 49.6996 86.6006 49.3996C85.4006 46.2996 83.1006 43.6996 80.2006 42.1996C79.9006 41.9996 79.6006 42.4996 79.9006 42.5996Z" fill="#7B35E3"/>
<path d="M79.6004 46.5997C82.2004 49.3997 83.8004 52.9996 84.3004 56.7996C84.3004 57.1996 84.9004 57.1996 84.9004 56.7996C84.5004 53.6996 83.4004 50.7996 81.6004 48.2996C81.1004 47.5996 80.6004 46.8996 80.0004 46.2996C79.8004 45.8996 79.4004 46.2997 79.6004 46.5997Z" fill="#7B35E3"/>
<path d="M78.2001 50.9C78.7001 51.6 78.9001 52.6 79.0001 53.5C79.2001 54.4 79.3001 55.3 79.5001 56.2C79.8001 57.8 80.1001 59.5 80.9001 61C81.3001 61.8 81.9001 62.5 82.5001 63C82.8001 63.2 83.2001 62.8 82.9001 62.6C80.2001 60.4 80.2001 56.6 79.5001 53.4C79.3001 52.5 79.1001 51.4 78.6001 50.6C78.5001 50.4 78.0001 50.6 78.2001 50.9Z" fill="#7B35E3"/>
<path d="M75.9008 55.3C75.9008 56.7 75.8008 58 75.8008 59.4C75.8008 60.6 76.0008 61.9 76.5008 63C76.7008 63.3 77.1008 63 77.0008 62.7C76.5008 61.6 76.4008 60.4 76.4008 59.2C76.4008 57.9 76.5008 56.6 76.5008 55.3C76.5008 54.9 76.0008 54.9 75.9008 55.3Z" fill="#7B35E3"/>
<path d="M38.9004 63.6999C40.0004 68.1999 38.6004 72.8999 37.8004 77.3999C37.4004 79.6999 37.0004 82.0999 36.7004 84.3999C36.4004 86.5999 36.1004 88.9999 36.5004 91.1999C36.9004 93.1999 37.9004 95.1999 39.8004 96.0999C40.1004 96.2999 40.4004 95.7999 40.1004 95.5999C38.5004 94.7999 37.5004 93.0999 37.1004 91.2999C36.6004 89.0999 37.0004 86.7999 37.3004 84.5999C37.6004 82.2999 37.9004 79.9999 38.4004 77.6999C38.8004 75.4999 39.3004 73.1999 39.7004 70.9999C40.1004 68.4999 40.2004 65.9999 39.6004 63.5999C39.3004 63.1999 38.8004 63.2999 38.9004 63.6999Z" fill="#7B35E3"/>
<path d="M44.4001 70.9C45.0001 72.6 44.7001 74.6 44.3001 76.3C43.8001 78.1 43.2001 79.9 42.6001 81.6C41.5001 84.8 40.6001 88.5 41.9001 91.8C42.5001 93.3 43.5001 94.7 45.0001 95.5C45.3001 95.7 45.6001 95.2 45.3001 95C42.5001 93.4 41.6001 90 41.9001 87.1C42.2001 83.4 44.0001 80.1 44.9001 76.5C45.4001 74.6 45.7001 72.6 45.1001 70.6C44.8001 70.3 44.3001 70.5 44.4001 70.9Z" fill="#7B35E3"/>
<path d="M50.2007 74.9998C50.6007 75.8998 50.4007 76.7998 50.1007 77.5998C49.8007 78.4998 49.3007 79.3998 48.8007 80.2998L47.5007 82.9998C47.1007 83.8998 46.7007 84.6998 46.4007 85.5998C46.1007 86.6998 46.0007 87.7998 46.2007 88.8998C46.2007 89.2998 46.8007 89.2998 46.8007 88.8998C46.7007 87.8998 46.7007 86.8998 47.0007 85.8998C47.3007 84.9998 47.7007 84.0998 48.1007 83.1998C48.6007 82.2998 49.0007 81.2998 49.5007 80.3998C49.9007 79.4998 50.4007 78.6998 50.7007 77.7998C51.1007 76.8998 51.3007 75.7998 50.9007 74.7998C50.6007 74.4998 50.1007 74.6998 50.2007 74.9998Z" fill="#7B35E3"/>
<path d="M56.8008 75.6999C57.0008 77.2999 56.0008 78.7999 55.1008 80.0999C54.6008 80.6999 54.2008 81.2999 53.8008 81.9999C53.5008 82.5999 53.0008 83.3999 53.4008 83.9999C53.6008 84.2999 54.1008 83.9999 53.9008 83.6999C53.7008 83.3999 54.0008 82.9999 54.1008 82.6999C54.3008 82.3999 54.5008 81.9999 54.7008 81.6999C55.1008 81.0999 55.6008 80.3999 56.1008 79.7999C57.0008 78.4999 57.7008 77.0999 57.5008 75.5999C57.3008 75.1999 56.8008 75.2999 56.8008 75.6999Z" fill="#7B35E3"/>
<path d="M90.2003 42.8996C90.7003 47.1996 90.2003 51.5996 88.8003 55.6996C88.7003 55.9996 89.2003 56.1996 89.3003 55.7996C90.4003 52.5996 91.0003 49.1996 91.0003 45.7996C91.0003 44.7996 90.9003 43.7996 90.8003 42.8996C90.7003 42.4996 90.2003 42.4996 90.2003 42.8996Z" fill="#7B35E3"/>
<path d="M87.5002 58.9998C87.1002 59.9998 86.8002 61.0998 86.7002 62.1998C86.7002 62.2998 86.7002 62.4998 86.9002 62.4998C87.0002 62.4998 87.2002 62.4998 87.2002 62.2998C87.4002 61.1998 87.6002 60.0998 88.0002 59.0998C88.0002 58.9998 87.9002 58.7998 87.8002 58.7998C87.7002 58.7998 87.6002 58.8998 87.5002 58.9998Z" fill="#7B35E3"/>
<path d="M13.3008 30.3996C13.4008 31.8996 13.8008 33.3996 14.4008 34.7996C15.0008 36.0996 15.8008 37.2996 16.1008 38.7996C16.1008 39.1996 16.7008 38.9996 16.6008 38.6996C16.4008 37.2996 15.6008 36.0996 15.0008 34.7996C14.4008 33.3996 14.0008 31.8996 13.8008 30.3996C13.8008 29.9996 13.3008 29.9996 13.3008 30.3996Z" fill="#7B35E3"/>
<path d="M15.3004 42.5999C15.2004 43.1999 15.0004 43.8999 14.9004 44.4999C14.9004 44.5999 14.9004 44.7999 15.1004 44.7999C15.2004 44.7999 15.4004 44.6999 15.4004 44.5999C15.5004 43.9999 15.7004 43.2999 15.8004 42.6999C15.8004 42.5999 15.8004 42.3999 15.6004 42.3999C15.6004 42.3999 15.4004 42.4999 15.3004 42.5999Z" fill="#7B35E3"/>
<path d="M36.0006 59.4999C36.1006 59.4999 36.3006 59.4999 36.3006 59.4999C36.3006 59.4999 36.4006 59.4999 36.5006 59.4999H36.6006C36.8006 59.4999 37.1006 59.5999 37.3006 59.5999C37.4006 59.5999 37.6006 59.5999 37.6006 59.3999C37.6006 59.2999 37.6006 59.0999 37.4006 59.0999C36.9006 58.9999 36.4006 58.8999 35.9006 58.8999C35.8006 58.8999 35.6006 58.9999 35.6006 59.1999C35.8006 59.3999 35.9006 59.4999 36.0006 59.4999Z" fill="#7B35E3"/>
<path d="M74.0008 52.4999C73.9008 52.4999 73.9008 52.4999 74.0008 52.4999C73.9008 52.4999 73.9008 52.4999 73.9008 52.4999C73.9008 52.4999 73.9008 52.5999 74.0008 52.4999C73.9008 52.5999 73.9008 52.5999 74.0008 52.4999C73.9008 52.4999 73.9008 52.4999 74.0008 52.4999C74.0008 52.3999 74.0008 52.3999 74.0008 52.4999C74.0008 52.3999 74.0008 52.3999 74.0008 52.2999C74.0008 52.2999 74.0008 52.2999 74.1008 52.2999C74.1008 52.2999 74.1008 52.2999 74.1008 52.3999C74.1008 52.3999 74.1008 52.3999 74.0008 52.3999H73.9008C73.9008 52.3999 73.9008 52.3999 73.8008 52.3999C73.8008 52.3999 73.8008 52.3999 73.8008 52.2999C73.8008 52.2999 73.8008 52.2999 73.8008 52.1999C73.8008 52.1999 73.8008 52.1999 73.8008 52.0999V51.9999C73.8008 51.9999 73.8008 51.9999 73.8008 51.8999H73.9008C73.9008 51.8999 73.9008 51.8999 74.0008 51.8999C74.1008 51.8999 74.0008 51.8999 74.1008 51.8999C74.1008 51.8999 74.1008 51.8999 74.2008 51.8999H74.3008C74.3008 51.8999 74.3008 51.8999 74.3008 51.9999C74.3008 51.9999 74.3008 51.9999 74.3008 52.0999C74.3008 52.0999 74.3008 52.0999 74.3008 52.1999C74.3008 52.1999 74.3008 52.1999 74.3008 52.2999C74.2008 52.3999 74.2008 52.5999 74.3008 52.6999C74.4008 52.7999 74.6008 52.7999 74.7008 52.6999C75.0008 52.3999 75.1008 52.0999 75.0008 51.6999C74.9008 51.3999 74.7008 51.0999 74.3008 50.9999C73.9008 50.8999 73.6008 50.9999 73.3008 51.2999C73.0008 51.5999 73.0008 51.8999 73.1008 52.2999C73.1008 52.4999 73.3008 52.5999 73.4008 52.6999C73.6008 52.7999 73.8008 52.7999 74.0008 52.7999C74.4008 52.7999 74.7008 52.5999 74.8008 52.1999C74.9008 51.7999 74.7008 51.4999 74.3008 51.3999C74.2008 51.2999 74.0008 51.2999 73.8008 51.3999C73.6008 51.4999 73.5008 51.6999 73.5008 51.8999C73.5008 52.0999 73.6008 52.3999 73.8008 52.4999C74.0008 52.5999 74.3008 52.5999 74.4008 52.4999C74.6008 52.2999 74.6008 51.9999 74.4008 51.7999C74.3008 51.5999 74.1008 51.3999 73.8008 51.4999C73.6008 51.5999 73.5008 51.6999 73.6008 51.7999C73.7008 51.8999 73.9008 52.3999 74.0008 52.4999Z" fill="#7B35E3"/>
<path d="M75.5002 49.7996C75.6002 49.7996 75.6002 49.7996 75.5002 49.7996C75.6002 49.8996 75.6002 49.8996 75.5002 49.7996C75.5002 49.6996 75.5002 49.6996 75.5002 49.6996C75.5002 49.6996 75.6002 49.6996 75.5002 49.7996C75.5002 49.6996 75.5002 49.6996 75.5002 49.5996C75.5002 49.5996 75.5002 49.5996 75.5002 49.6996V49.5996C75.5002 49.5996 75.5002 49.5996 75.5002 49.6996V49.5996C75.5002 49.5996 75.5002 49.5996 75.5002 49.6996C75.5002 49.6996 75.5002 49.6996 75.4002 49.6996C75.4002 49.6996 75.4002 49.6996 75.3002 49.6996C75.3002 49.6996 75.3002 49.6996 75.2002 49.6996C75.2002 49.6996 75.2002 49.6996 75.3002 49.6996C75.3002 49.6996 75.3002 49.6996 75.2002 49.6996C75.2002 49.6996 75.2002 49.6996 75.3002 49.6996C75.3002 49.6996 75.3002 49.6996 75.3002 49.7996C75.3002 49.7996 75.3002 49.7996 75.3002 49.6996C75.5002 49.5996 75.5002 49.6996 75.5002 49.7996C75.5002 49.6996 75.5002 49.6996 75.5002 49.5996C75.5002 49.6996 75.5002 49.7996 75.5002 49.7996C75.5002 49.8996 75.5002 49.9996 75.6002 49.9996C75.7002 49.9996 75.7002 50.0996 75.8002 50.0996C76.0002 50.0996 76.1002 49.9996 76.1002 49.7996C76.1002 49.7996 76.1002 49.6996 76.1002 49.5996C76.1002 49.4996 76.1002 49.4996 76.1002 49.4996V49.3996C76.0002 49.2996 75.9002 49.0996 75.8002 49.0996C75.7002 49.0996 75.6002 49.0996 75.5002 49.0996C75.4002 49.0996 75.3002 49.1996 75.3002 49.1996C75.3002 49.2996 75.2002 49.2996 75.2002 49.3996C75.2002 49.4996 75.2002 49.5996 75.2002 49.5996C75.2002 49.6996 75.2002 49.7996 75.2002 49.7996C75.2002 49.8996 75.3002 49.9996 75.3002 49.9996C75.4002 50.0996 75.6002 50.1996 75.7002 50.1996C75.7002 50.1996 75.7002 50.1996 75.8002 50.1996C75.9002 50.1996 75.9002 50.1996 75.9002 50.1996C76.0002 50.1996 76.0002 50.0996 76.1002 50.0996C76.2002 49.9996 76.3002 49.7996 76.3002 49.6996C76.3002 49.5996 76.3002 49.4996 76.2002 49.3996C76.1002 49.2996 76.1002 49.2996 76.0002 49.1996C75.9002 49.1996 75.8002 49.0996 75.7002 49.0996C75.7002 49.0996 75.7002 49.0996 75.6002 49.0996H75.5002C75.4002 49.0996 75.4002 49.1996 75.3002 49.1996C75.3002 49.1996 75.2002 49.2996 75.3002 49.3996C75.3002 49.4996 75.4002 49.4996 75.4002 49.5996C75.4002 49.8996 75.5002 49.8996 75.5002 49.7996Z" fill="#7B35E3"/>
<path d="M77.4001 42.2997C76.8001 41.8997 76.0001 41.7997 75.3001 42.0997C74.6001 42.3997 74.2001 42.9997 73.8001 43.6997C73.6001 43.9997 73.5001 44.3997 73.4001 44.7997C73.3001 45.1997 73.2001 45.5997 73.0001 45.9997C72.7001 46.5997 71.9001 47.1997 72.1001 47.9997C72.2001 48.4997 72.6001 48.5997 72.9001 48.7997C73.2001 49.0997 73.4001 49.4997 73.6001 49.8997C73.8001 50.1997 74.2001 49.8997 74.1001 49.5997C73.9001 49.2997 73.7001 48.8997 73.5001 48.5997C73.4001 48.4997 73.2001 48.2997 73.1001 48.1997C72.9001 48.0997 72.7001 47.9997 72.7001 47.7997C72.7001 47.3997 73.1001 46.9997 73.3001 46.6997C73.6001 46.2997 73.8001 45.8997 73.9001 45.4997C74.2001 44.6997 74.4001 43.6997 75.0001 42.9997C75.6001 42.3997 76.5001 42.1997 77.2001 42.6997C77.4001 42.9997 77.7001 42.4997 77.4001 42.2997Z" fill="#7B35E3"/>
<path d="M73.6002 46.0998C73.4002 45.9998 73.4002 45.9998 73.4002 45.9998C73.4002 45.9998 73.4002 45.9998 73.4002 46.0998C73.4002 46.0998 73.5002 46.1998 73.5002 46.2998C73.5002 46.2998 73.5002 46.2998 73.5002 46.3998C73.5002 46.3998 73.5002 46.3998 73.5002 46.4998C73.5002 46.5998 73.5002 46.5998 73.5002 46.6998V46.7998V46.8998C73.5002 46.9998 73.5002 46.9998 73.5002 47.0998C73.5002 47.1998 73.6002 47.3998 73.8002 47.3998C73.9002 47.3998 74.1002 47.2998 74.1002 47.0998C74.1002 46.8998 74.1002 46.6998 74.1002 46.4998C74.1002 46.2998 74.0002 46.0998 74.0002 45.9998C73.9002 45.7998 73.8002 45.6998 73.7002 45.5998C73.6002 45.3998 73.4002 45.2998 73.2002 45.2998C73.0002 45.2998 72.9002 45.4998 73.0002 45.5998C73.4002 46.0998 73.5002 46.1998 73.6002 46.0998Z" fill="#7B35E3"/>
<path d="M77.5009 43.5998C77.5009 44.1998 77.4009 44.7998 77.0009 45.2998C76.6009 45.6998 76.0009 45.8998 75.4009 46.0998C75.1009 46.1998 75.2009 46.6998 75.5009 46.5998C76.2009 46.3998 76.9009 46.0998 77.3009 45.5998C77.8009 44.9998 78.0009 44.2998 78.0009 43.5998C78.0009 43.1998 77.4009 43.1998 77.5009 43.5998Z" fill="#7B35E3"/>
<path d="M70.9004 46.0999C72.1004 45.1999 72.4004 43.7999 73.1004 42.4999C73.3004 42.1999 72.8004 41.8999 72.6004 42.1999C71.9004 43.2999 71.6004 44.6999 70.6004 45.5999C70.5004 45.6999 70.4004 45.7999 70.5004 45.9999C70.5004 46.0999 70.7004 46.1999 70.9004 46.0999Z" fill="#7B35E3"/>
<path d="M72.8002 67.2997C72.4002 68.1997 71.8002 68.9997 71.3002 69.7997C71.1002 70.0997 71.6002 70.3997 71.8002 70.0997C72.3002 69.2997 72.8002 68.3997 73.3002 67.5997C73.4002 67.1997 72.9002 66.8997 72.8002 67.2997Z" fill="#7B35E3"/>
<path d="M74.7005 59.5998C74.8005 61.2998 74.5005 62.9998 74.0005 64.5998C73.9005 64.8998 74.4005 65.0998 74.5005 64.6998C75.1005 62.9998 75.4005 61.2998 75.3005 59.5998C75.2005 59.1998 74.6005 59.1998 74.7005 59.5998Z" fill="#7B35E3"/>
<path d="M77.1002 63.6996C77.3002 65.9996 76.3002 67.9996 75.3002 69.9996C75.1002 70.2996 75.6002 70.5996 75.8002 70.2996C76.8002 68.1996 77.8002 66.0996 77.7002 63.6996C77.6002 63.3996 77.0002 63.3996 77.1002 63.6996Z" fill="#7B35E3"/>
<path d="M79.9 66.2997C80.1 67.8997 79.4 69.3997 78.8 70.6997C78.7 70.9997 79.1 71.2997 79.3 70.9997C80 69.4997 80.7 67.8997 80.5 66.1997C80.5 65.9997 80.3 65.8997 80.2 65.9997C79.9 65.9997 79.8 66.1997 79.9 66.2997Z" fill="#7B35E3"/>
</g>
</svg>
